G04 #@! TF.GenerationSoftware,KiCad,Pcbnew,(5.0.0)*
G04 #@! TF.CreationDate,2018-09-15T12:16:20+02:00*
G04 #@! TF.ProjectId,Blinky,426C696E6B792E6B696361645F706362,rev?*
G04 #@! TF.SameCoordinates,Original*
G04 #@! TF.FileFunction,Legend,Top*
G04 #@! TF.FilePolarity,Positive*
%FSLAX46Y46*%
G04 Gerber Fmt 4.6, Leading zero omitted, Abs format (unit mm)*
G04 Created by KiCad (PCBNEW (5.0.0)) date 09/15/18 12:16:20*
%MOMM*%
%LPD*%
G01*
G04 APERTURE LIST*
%ADD10C,0.300000*%
%ADD11C,0.120000*%
%ADD12C,0.150000*%
%ADD13C,0.010000*%
%ADD14C,0.127000*%
G04 APERTURE END LIST*
D10*
X66875000Y-81017857D02*
X67089285Y-81089285D01*
X67160714Y-81160714D01*
X67232142Y-81303571D01*
X67232142Y-81517857D01*
X67160714Y-81660714D01*
X67089285Y-81732142D01*
X66946428Y-81803571D01*
X66375000Y-81803571D01*
X66375000Y-80303571D01*
X66875000Y-80303571D01*
X67017857Y-80375000D01*
X67089285Y-80446428D01*
X67160714Y-80589285D01*
X67160714Y-80732142D01*
X67089285Y-80875000D01*
X67017857Y-80946428D01*
X66875000Y-81017857D01*
X66375000Y-81017857D01*
X68089285Y-81803571D02*
X67946428Y-81732142D01*
X67875000Y-81589285D01*
X67875000Y-80303571D01*
X68660714Y-81803571D02*
X68660714Y-80803571D01*
X68660714Y-80303571D02*
X68589285Y-80375000D01*
X68660714Y-80446428D01*
X68732142Y-80375000D01*
X68660714Y-80303571D01*
X68660714Y-80446428D01*
X69375000Y-80803571D02*
X69375000Y-81803571D01*
X69375000Y-80946428D02*
X69446428Y-80875000D01*
X69589285Y-80803571D01*
X69803571Y-80803571D01*
X69946428Y-80875000D01*
X70017857Y-81017857D01*
X70017857Y-81803571D01*
X70732142Y-81803571D02*
X70732142Y-80303571D01*
X70875000Y-81232142D02*
X71303571Y-81803571D01*
X71303571Y-80803571D02*
X70732142Y-81375000D01*
X71803571Y-80803571D02*
X72160714Y-81803571D01*
X72517857Y-80803571D02*
X72160714Y-81803571D01*
X72017857Y-82160714D01*
X71946428Y-82232142D01*
X71803571Y-82303571D01*
X67339285Y-84353571D02*
X66839285Y-83639285D01*
X66482142Y-84353571D02*
X66482142Y-82853571D01*
X67053571Y-82853571D01*
X67196428Y-82925000D01*
X67267857Y-82996428D01*
X67339285Y-83139285D01*
X67339285Y-83353571D01*
X67267857Y-83496428D01*
X67196428Y-83567857D01*
X67053571Y-83639285D01*
X66482142Y-83639285D01*
X68553571Y-84282142D02*
X68410714Y-84353571D01*
X68125000Y-84353571D01*
X67982142Y-84282142D01*
X67910714Y-84139285D01*
X67910714Y-83567857D01*
X67982142Y-83425000D01*
X68125000Y-83353571D01*
X68410714Y-83353571D01*
X68553571Y-83425000D01*
X68625000Y-83567857D01*
X68625000Y-83710714D01*
X67910714Y-83853571D01*
X69125000Y-83353571D02*
X69482142Y-84353571D01*
X69839285Y-83353571D01*
X71482142Y-82996428D02*
X71553571Y-82925000D01*
X71696428Y-82853571D01*
X72053571Y-82853571D01*
X72196428Y-82925000D01*
X72267857Y-82996428D01*
X72339285Y-83139285D01*
X72339285Y-83282142D01*
X72267857Y-83496428D01*
X71410714Y-84353571D01*
X72339285Y-84353571D01*
D11*
G04 #@! TO.C,C1*
X71874000Y-92876000D02*
X70874000Y-92876000D01*
X70874000Y-94576000D02*
X71874000Y-94576000D01*
G04 #@! TO.C,C2*
X68969000Y-86448000D02*
X69969000Y-86448000D01*
X69969000Y-84748000D02*
X68969000Y-84748000D01*
G04 #@! TO.C,D1*
X79755000Y-90007000D02*
X81155000Y-90007000D01*
X81155000Y-90007000D02*
X81155000Y-87207000D01*
X79755000Y-90007000D02*
X79755000Y-87207000D01*
G04 #@! TO.C,D2*
X57720000Y-90065000D02*
X57720000Y-87265000D01*
X59120000Y-90065000D02*
X59120000Y-87265000D01*
X57720000Y-90065000D02*
X59120000Y-90065000D01*
G04 #@! TO.C,R1*
X75741000Y-83919000D02*
X75741000Y-85119000D01*
X73981000Y-85119000D02*
X73981000Y-83919000D01*
G04 #@! TO.C,R2*
X79575001Y-93125000D02*
X79575001Y-91925000D01*
X81335001Y-91925000D02*
X81335001Y-93125000D01*
G04 #@! TO.C,R3*
X73981000Y-88548000D02*
X73981000Y-87348000D01*
X75741000Y-87348000D02*
X75741000Y-88548000D01*
G04 #@! TO.C,R4*
X59300000Y-91856000D02*
X59300000Y-93056000D01*
X57540000Y-93056000D02*
X57540000Y-91856000D01*
D12*
G04 #@! TO.C,U1*
X67521000Y-87010000D02*
X66121000Y-87010000D01*
X67521000Y-92110000D02*
X71671000Y-92110000D01*
X67521000Y-86960000D02*
X71671000Y-86960000D01*
X67521000Y-92110000D02*
X67521000Y-91965000D01*
X71671000Y-92110000D02*
X71671000Y-91965000D01*
X71671000Y-86960000D02*
X71671000Y-87105000D01*
X67521000Y-86960000D02*
X67521000Y-87010000D01*
D13*
G04 #@! TO.C,REF\002A\002A\002A*
G36*
X62878629Y-102269066D02*
X62918111Y-102269467D01*
X63033800Y-102272259D01*
X63130689Y-102280550D01*
X63212081Y-102295232D01*
X63281277Y-102317193D01*
X63341580Y-102347322D01*
X63396292Y-102386510D01*
X63415833Y-102403532D01*
X63448250Y-102443363D01*
X63477480Y-102497413D01*
X63500009Y-102557323D01*
X63512321Y-102614739D01*
X63513600Y-102635956D01*
X63505583Y-102694769D01*
X63484101Y-102759013D01*
X63453001Y-102819821D01*
X63416134Y-102868330D01*
X63410146Y-102874182D01*
X63359421Y-102915321D01*
X63303875Y-102947435D01*
X63240304Y-102971365D01*
X63165506Y-102987953D01*
X63076278Y-102998041D01*
X62969418Y-103002469D01*
X62920472Y-103002845D01*
X62858238Y-103002545D01*
X62814472Y-103001292D01*
X62785069Y-102998554D01*
X62765921Y-102993801D01*
X62752923Y-102986501D01*
X62745955Y-102980267D01*
X62739374Y-102972694D01*
X62734212Y-102962924D01*
X62730297Y-102948340D01*
X62727457Y-102926326D01*
X62725520Y-102894264D01*
X62724316Y-102849536D01*
X62723672Y-102789526D01*
X62723417Y-102711617D01*
X62723378Y-102635956D01*
X62723130Y-102535041D01*
X62723183Y-102454427D01*
X62724143Y-102415822D01*
X62870133Y-102415822D01*
X62870133Y-102856089D01*
X62963266Y-102856004D01*
X63019307Y-102854396D01*
X63078001Y-102850256D01*
X63126972Y-102844464D01*
X63128462Y-102844226D01*
X63207608Y-102825090D01*
X63268998Y-102795287D01*
X63315695Y-102752878D01*
X63345365Y-102706961D01*
X63363647Y-102656026D01*
X63362229Y-102608200D01*
X63341012Y-102556933D01*
X63299511Y-102503899D01*
X63242002Y-102464600D01*
X63167250Y-102438331D01*
X63117292Y-102429035D01*
X63060584Y-102422507D01*
X63000481Y-102417782D01*
X62949361Y-102415817D01*
X62946333Y-102415808D01*
X62870133Y-102415822D01*
X62724143Y-102415822D01*
X62724740Y-102391851D01*
X62729002Y-102345055D01*
X62737170Y-102311778D01*
X62750444Y-102289759D01*
X62770026Y-102276739D01*
X62797117Y-102270457D01*
X62832918Y-102268653D01*
X62878629Y-102269066D01*
X62878629Y-102269066D01*
G37*
X62878629Y-102269066D02*
X62918111Y-102269467D01*
X63033800Y-102272259D01*
X63130689Y-102280550D01*
X63212081Y-102295232D01*
X63281277Y-102317193D01*
X63341580Y-102347322D01*
X63396292Y-102386510D01*
X63415833Y-102403532D01*
X63448250Y-102443363D01*
X63477480Y-102497413D01*
X63500009Y-102557323D01*
X63512321Y-102614739D01*
X63513600Y-102635956D01*
X63505583Y-102694769D01*
X63484101Y-102759013D01*
X63453001Y-102819821D01*
X63416134Y-102868330D01*
X63410146Y-102874182D01*
X63359421Y-102915321D01*
X63303875Y-102947435D01*
X63240304Y-102971365D01*
X63165506Y-102987953D01*
X63076278Y-102998041D01*
X62969418Y-103002469D01*
X62920472Y-103002845D01*
X62858238Y-103002545D01*
X62814472Y-103001292D01*
X62785069Y-102998554D01*
X62765921Y-102993801D01*
X62752923Y-102986501D01*
X62745955Y-102980267D01*
X62739374Y-102972694D01*
X62734212Y-102962924D01*
X62730297Y-102948340D01*
X62727457Y-102926326D01*
X62725520Y-102894264D01*
X62724316Y-102849536D01*
X62723672Y-102789526D01*
X62723417Y-102711617D01*
X62723378Y-102635956D01*
X62723130Y-102535041D01*
X62723183Y-102454427D01*
X62724143Y-102415822D01*
X62870133Y-102415822D01*
X62870133Y-102856089D01*
X62963266Y-102856004D01*
X63019307Y-102854396D01*
X63078001Y-102850256D01*
X63126972Y-102844464D01*
X63128462Y-102844226D01*
X63207608Y-102825090D01*
X63268998Y-102795287D01*
X63315695Y-102752878D01*
X63345365Y-102706961D01*
X63363647Y-102656026D01*
X63362229Y-102608200D01*
X63341012Y-102556933D01*
X63299511Y-102503899D01*
X63242002Y-102464600D01*
X63167250Y-102438331D01*
X63117292Y-102429035D01*
X63060584Y-102422507D01*
X63000481Y-102417782D01*
X62949361Y-102415817D01*
X62946333Y-102415808D01*
X62870133Y-102415822D01*
X62724143Y-102415822D01*
X62724740Y-102391851D01*
X62729002Y-102345055D01*
X62737170Y-102311778D01*
X62750444Y-102289759D01*
X62770026Y-102276739D01*
X62797117Y-102270457D01*
X62832918Y-102268653D01*
X62878629Y-102269066D01*
G36*
X64287206Y-102269146D02*
X64356614Y-102269518D01*
X64409003Y-102270385D01*
X64447153Y-102271946D01*
X64473841Y-102274403D01*
X64491847Y-102277957D01*
X64503951Y-102282810D01*
X64512931Y-102289161D01*
X64516182Y-102292084D01*
X64535957Y-102323142D01*
X64539518Y-102358828D01*
X64526509Y-102390510D01*
X64520494Y-102396913D01*
X64510765Y-102403121D01*
X64495099Y-102407910D01*
X64470592Y-102411514D01*
X64434339Y-102414164D01*
X64383435Y-102416095D01*
X64314974Y-102417539D01*
X64252383Y-102418418D01*
X64004666Y-102421467D01*
X64001281Y-102486378D01*
X63997895Y-102551289D01*
X64166042Y-102551289D01*
X64239041Y-102551919D01*
X64292483Y-102554553D01*
X64329372Y-102560309D01*
X64352712Y-102570304D01*
X64365506Y-102585656D01*
X64370758Y-102607482D01*
X64371555Y-102627738D01*
X64369077Y-102652592D01*
X64359723Y-102670906D01*
X64340617Y-102683637D01*
X64308882Y-102691741D01*
X64261641Y-102696176D01*
X64196017Y-102697899D01*
X64160199Y-102698045D01*
X63999022Y-102698045D01*
X63999022Y-102856089D01*
X64247378Y-102856089D01*
X64328787Y-102856202D01*
X64390658Y-102856712D01*
X64436032Y-102857870D01*
X64467946Y-102859930D01*
X64489441Y-102863146D01*
X64503557Y-102867772D01*
X64513332Y-102874059D01*
X64518311Y-102878667D01*
X64535390Y-102905560D01*
X64540889Y-102929467D01*
X64533037Y-102958667D01*
X64518311Y-102980267D01*
X64510454Y-102987066D01*
X64500312Y-102992346D01*
X64485156Y-102996298D01*
X64462259Y-102999113D01*
X64428891Y-103000982D01*
X64382325Y-103002098D01*
X64319833Y-103002651D01*
X64238686Y-103002833D01*
X64196578Y-103002845D01*
X64106402Y-103002765D01*
X64036076Y-103002398D01*
X63982871Y-103001552D01*
X63944060Y-103000036D01*
X63916913Y-102997659D01*
X63898702Y-102994229D01*
X63886700Y-102989554D01*
X63878178Y-102983444D01*
X63874844Y-102980267D01*
X63868245Y-102972670D01*
X63863073Y-102962870D01*
X63859154Y-102948239D01*
X63856316Y-102926152D01*
X63854385Y-102893982D01*
X63853188Y-102849103D01*
X63852552Y-102788889D01*
X63852303Y-102710713D01*
X63852266Y-102637923D01*
X63852300Y-102544707D01*
X63852535Y-102471431D01*
X63853170Y-102415458D01*
X63854406Y-102374151D01*
X63856444Y-102344872D01*
X63859483Y-102324984D01*
X63863723Y-102311850D01*
X63869365Y-102302832D01*
X63876609Y-102295293D01*
X63878394Y-102293612D01*
X63887055Y-102286172D01*
X63897118Y-102280409D01*
X63911375Y-102276112D01*
X63932617Y-102273064D01*
X63963636Y-102271051D01*
X64007223Y-102269860D01*
X64066169Y-102269275D01*
X64143266Y-102269083D01*
X64197999Y-102269067D01*
X64287206Y-102269146D01*
X64287206Y-102269146D01*
G37*
X64287206Y-102269146D02*
X64356614Y-102269518D01*
X64409003Y-102270385D01*
X64447153Y-102271946D01*
X64473841Y-102274403D01*
X64491847Y-102277957D01*
X64503951Y-102282810D01*
X64512931Y-102289161D01*
X64516182Y-102292084D01*
X64535957Y-102323142D01*
X64539518Y-102358828D01*
X64526509Y-102390510D01*
X64520494Y-102396913D01*
X64510765Y-102403121D01*
X64495099Y-102407910D01*
X64470592Y-102411514D01*
X64434339Y-102414164D01*
X64383435Y-102416095D01*
X64314974Y-102417539D01*
X64252383Y-102418418D01*
X64004666Y-102421467D01*
X64001281Y-102486378D01*
X63997895Y-102551289D01*
X64166042Y-102551289D01*
X64239041Y-102551919D01*
X64292483Y-102554553D01*
X64329372Y-102560309D01*
X64352712Y-102570304D01*
X64365506Y-102585656D01*
X64370758Y-102607482D01*
X64371555Y-102627738D01*
X64369077Y-102652592D01*
X64359723Y-102670906D01*
X64340617Y-102683637D01*
X64308882Y-102691741D01*
X64261641Y-102696176D01*
X64196017Y-102697899D01*
X64160199Y-102698045D01*
X63999022Y-102698045D01*
X63999022Y-102856089D01*
X64247378Y-102856089D01*
X64328787Y-102856202D01*
X64390658Y-102856712D01*
X64436032Y-102857870D01*
X64467946Y-102859930D01*
X64489441Y-102863146D01*
X64503557Y-102867772D01*
X64513332Y-102874059D01*
X64518311Y-102878667D01*
X64535390Y-102905560D01*
X64540889Y-102929467D01*
X64533037Y-102958667D01*
X64518311Y-102980267D01*
X64510454Y-102987066D01*
X64500312Y-102992346D01*
X64485156Y-102996298D01*
X64462259Y-102999113D01*
X64428891Y-103000982D01*
X64382325Y-103002098D01*
X64319833Y-103002651D01*
X64238686Y-103002833D01*
X64196578Y-103002845D01*
X64106402Y-103002765D01*
X64036076Y-103002398D01*
X63982871Y-103001552D01*
X63944060Y-103000036D01*
X63916913Y-102997659D01*
X63898702Y-102994229D01*
X63886700Y-102989554D01*
X63878178Y-102983444D01*
X63874844Y-102980267D01*
X63868245Y-102972670D01*
X63863073Y-102962870D01*
X63859154Y-102948239D01*
X63856316Y-102926152D01*
X63854385Y-102893982D01*
X63853188Y-102849103D01*
X63852552Y-102788889D01*
X63852303Y-102710713D01*
X63852266Y-102637923D01*
X63852300Y-102544707D01*
X63852535Y-102471431D01*
X63853170Y-102415458D01*
X63854406Y-102374151D01*
X63856444Y-102344872D01*
X63859483Y-102324984D01*
X63863723Y-102311850D01*
X63869365Y-102302832D01*
X63876609Y-102295293D01*
X63878394Y-102293612D01*
X63887055Y-102286172D01*
X63897118Y-102280409D01*
X63911375Y-102276112D01*
X63932617Y-102273064D01*
X63963636Y-102271051D01*
X64007223Y-102269860D01*
X64066169Y-102269275D01*
X64143266Y-102269083D01*
X64197999Y-102269067D01*
X64287206Y-102269146D01*
G36*
X65308297Y-102270351D02*
X65383112Y-102275581D01*
X65452694Y-102283750D01*
X65512998Y-102294550D01*
X65559980Y-102307673D01*
X65589594Y-102322813D01*
X65594140Y-102327269D01*
X65609946Y-102361850D01*
X65605153Y-102397351D01*
X65580636Y-102427725D01*
X65579466Y-102428596D01*
X65565046Y-102437954D01*
X65549992Y-102442876D01*
X65528995Y-102443473D01*
X65496743Y-102439861D01*
X65447927Y-102432154D01*
X65444000Y-102431505D01*
X65371261Y-102422569D01*
X65292783Y-102418161D01*
X65214073Y-102418119D01*
X65140639Y-102422279D01*
X65077989Y-102430479D01*
X65031630Y-102442557D01*
X65028584Y-102443771D01*
X64994952Y-102462615D01*
X64983136Y-102481685D01*
X64992386Y-102500439D01*
X65021953Y-102518337D01*
X65071089Y-102534837D01*
X65139043Y-102549396D01*
X65184355Y-102556406D01*
X65278544Y-102569889D01*
X65353456Y-102582214D01*
X65412283Y-102594449D01*
X65458215Y-102607661D01*
X65494445Y-102622917D01*
X65524162Y-102641285D01*
X65550558Y-102663831D01*
X65571770Y-102685971D01*
X65596935Y-102716819D01*
X65609319Y-102743345D01*
X65613192Y-102776026D01*
X65613333Y-102787995D01*
X65610424Y-102827712D01*
X65598798Y-102857259D01*
X65578677Y-102883486D01*
X65537784Y-102923576D01*
X65492183Y-102954149D01*
X65438487Y-102976203D01*
X65373308Y-102990735D01*
X65293256Y-102998741D01*
X65194943Y-103001218D01*
X65178711Y-103001177D01*
X65113151Y-102999818D01*
X65048134Y-102996730D01*
X64990748Y-102992356D01*
X64948078Y-102987140D01*
X64944628Y-102986541D01*
X64902204Y-102976491D01*
X64866220Y-102963796D01*
X64845850Y-102952190D01*
X64826893Y-102921572D01*
X64825573Y-102885918D01*
X64841915Y-102854144D01*
X64845571Y-102850551D01*
X64860685Y-102839876D01*
X64879585Y-102835276D01*
X64908838Y-102836059D01*
X64944349Y-102840127D01*
X64984030Y-102843762D01*
X65039655Y-102846828D01*
X65104594Y-102849053D01*
X65172215Y-102850164D01*
X65190000Y-102850237D01*
X65257872Y-102849964D01*
X65307546Y-102848646D01*
X65343390Y-102845827D01*
X65369776Y-102841050D01*
X65391074Y-102833857D01*
X65403874Y-102827867D01*
X65432000Y-102811233D01*
X65449932Y-102796168D01*
X65452553Y-102791897D01*
X65447024Y-102774263D01*
X65420740Y-102757192D01*
X65375522Y-102741458D01*
X65313192Y-102727838D01*
X65294829Y-102724804D01*
X65198910Y-102709738D01*
X65122359Y-102697146D01*
X65062220Y-102686111D01*
X65015540Y-102675720D01*
X64979363Y-102665056D01*
X64950735Y-102653205D01*
X64926702Y-102639251D01*
X64904308Y-102622281D01*
X64880598Y-102601378D01*
X64872620Y-102594049D01*
X64844647Y-102566699D01*
X64829840Y-102545029D01*
X64824048Y-102520232D01*
X64823111Y-102488983D01*
X64833425Y-102427705D01*
X64864248Y-102375640D01*
X64915405Y-102332958D01*
X64986717Y-102299825D01*
X65037600Y-102284964D01*
X65092900Y-102275366D01*
X65159147Y-102269936D01*
X65232294Y-102268367D01*
X65308297Y-102270351D01*
X65308297Y-102270351D01*
G37*
X65308297Y-102270351D02*
X65383112Y-102275581D01*
X65452694Y-102283750D01*
X65512998Y-102294550D01*
X65559980Y-102307673D01*
X65589594Y-102322813D01*
X65594140Y-102327269D01*
X65609946Y-102361850D01*
X65605153Y-102397351D01*
X65580636Y-102427725D01*
X65579466Y-102428596D01*
X65565046Y-102437954D01*
X65549992Y-102442876D01*
X65528995Y-102443473D01*
X65496743Y-102439861D01*
X65447927Y-102432154D01*
X65444000Y-102431505D01*
X65371261Y-102422569D01*
X65292783Y-102418161D01*
X65214073Y-102418119D01*
X65140639Y-102422279D01*
X65077989Y-102430479D01*
X65031630Y-102442557D01*
X65028584Y-102443771D01*
X64994952Y-102462615D01*
X64983136Y-102481685D01*
X64992386Y-102500439D01*
X65021953Y-102518337D01*
X65071089Y-102534837D01*
X65139043Y-102549396D01*
X65184355Y-102556406D01*
X65278544Y-102569889D01*
X65353456Y-102582214D01*
X65412283Y-102594449D01*
X65458215Y-102607661D01*
X65494445Y-102622917D01*
X65524162Y-102641285D01*
X65550558Y-102663831D01*
X65571770Y-102685971D01*
X65596935Y-102716819D01*
X65609319Y-102743345D01*
X65613192Y-102776026D01*
X65613333Y-102787995D01*
X65610424Y-102827712D01*
X65598798Y-102857259D01*
X65578677Y-102883486D01*
X65537784Y-102923576D01*
X65492183Y-102954149D01*
X65438487Y-102976203D01*
X65373308Y-102990735D01*
X65293256Y-102998741D01*
X65194943Y-103001218D01*
X65178711Y-103001177D01*
X65113151Y-102999818D01*
X65048134Y-102996730D01*
X64990748Y-102992356D01*
X64948078Y-102987140D01*
X64944628Y-102986541D01*
X64902204Y-102976491D01*
X64866220Y-102963796D01*
X64845850Y-102952190D01*
X64826893Y-102921572D01*
X64825573Y-102885918D01*
X64841915Y-102854144D01*
X64845571Y-102850551D01*
X64860685Y-102839876D01*
X64879585Y-102835276D01*
X64908838Y-102836059D01*
X64944349Y-102840127D01*
X64984030Y-102843762D01*
X65039655Y-102846828D01*
X65104594Y-102849053D01*
X65172215Y-102850164D01*
X65190000Y-102850237D01*
X65257872Y-102849964D01*
X65307546Y-102848646D01*
X65343390Y-102845827D01*
X65369776Y-102841050D01*
X65391074Y-102833857D01*
X65403874Y-102827867D01*
X65432000Y-102811233D01*
X65449932Y-102796168D01*
X65452553Y-102791897D01*
X65447024Y-102774263D01*
X65420740Y-102757192D01*
X65375522Y-102741458D01*
X65313192Y-102727838D01*
X65294829Y-102724804D01*
X65198910Y-102709738D01*
X65122359Y-102697146D01*
X65062220Y-102686111D01*
X65015540Y-102675720D01*
X64979363Y-102665056D01*
X64950735Y-102653205D01*
X64926702Y-102639251D01*
X64904308Y-102622281D01*
X64880598Y-102601378D01*
X64872620Y-102594049D01*
X64844647Y-102566699D01*
X64829840Y-102545029D01*
X64824048Y-102520232D01*
X64823111Y-102488983D01*
X64833425Y-102427705D01*
X64864248Y-102375640D01*
X64915405Y-102332958D01*
X64986717Y-102299825D01*
X65037600Y-102284964D01*
X65092900Y-102275366D01*
X65159147Y-102269936D01*
X65232294Y-102268367D01*
X65308297Y-102270351D01*
G36*
X66076178Y-102291645D02*
X66082758Y-102299218D01*
X66087921Y-102308987D01*
X66091836Y-102323571D01*
X66094676Y-102345585D01*
X66096613Y-102377648D01*
X66097817Y-102422375D01*
X66098461Y-102482385D01*
X66098716Y-102560294D01*
X66098755Y-102635956D01*
X66098686Y-102729802D01*
X66098362Y-102803689D01*
X66097614Y-102860232D01*
X66096268Y-102902049D01*
X66094154Y-102931757D01*
X66091100Y-102951973D01*
X66086934Y-102965314D01*
X66081484Y-102974398D01*
X66076178Y-102980267D01*
X66043174Y-102999947D01*
X66008009Y-102998181D01*
X65976545Y-102976717D01*
X65969316Y-102968337D01*
X65963666Y-102958614D01*
X65959401Y-102944861D01*
X65956327Y-102924389D01*
X65954248Y-102894512D01*
X65952970Y-102852541D01*
X65952299Y-102795789D01*
X65952041Y-102721567D01*
X65952000Y-102637537D01*
X65952000Y-102324485D01*
X65979709Y-102296776D01*
X66013863Y-102273463D01*
X66046994Y-102272623D01*
X66076178Y-102291645D01*
X66076178Y-102291645D01*
G37*
X66076178Y-102291645D02*
X66082758Y-102299218D01*
X66087921Y-102308987D01*
X66091836Y-102323571D01*
X66094676Y-102345585D01*
X66096613Y-102377648D01*
X66097817Y-102422375D01*
X66098461Y-102482385D01*
X66098716Y-102560294D01*
X66098755Y-102635956D01*
X66098686Y-102729802D01*
X66098362Y-102803689D01*
X66097614Y-102860232D01*
X66096268Y-102902049D01*
X66094154Y-102931757D01*
X66091100Y-102951973D01*
X66086934Y-102965314D01*
X66081484Y-102974398D01*
X66076178Y-102980267D01*
X66043174Y-102999947D01*
X66008009Y-102998181D01*
X65976545Y-102976717D01*
X65969316Y-102968337D01*
X65963666Y-102958614D01*
X65959401Y-102944861D01*
X65956327Y-102924389D01*
X65954248Y-102894512D01*
X65952970Y-102852541D01*
X65952299Y-102795789D01*
X65952041Y-102721567D01*
X65952000Y-102637537D01*
X65952000Y-102324485D01*
X65979709Y-102296776D01*
X66013863Y-102273463D01*
X66046994Y-102272623D01*
X66076178Y-102291645D01*
G36*
X67049919Y-102274599D02*
X67118435Y-102286095D01*
X67171057Y-102303967D01*
X67205292Y-102327499D01*
X67214621Y-102340924D01*
X67224107Y-102372148D01*
X67217723Y-102400395D01*
X67197570Y-102427182D01*
X67166255Y-102439713D01*
X67120817Y-102438696D01*
X67085674Y-102431906D01*
X67007581Y-102418971D01*
X66927774Y-102417742D01*
X66838445Y-102428241D01*
X66813771Y-102432690D01*
X66730709Y-102456108D01*
X66665727Y-102490945D01*
X66619539Y-102536604D01*
X66592855Y-102592494D01*
X66587337Y-102621388D01*
X66590949Y-102680012D01*
X66614271Y-102731879D01*
X66655176Y-102775978D01*
X66711541Y-102811299D01*
X66781240Y-102836829D01*
X66862148Y-102851559D01*
X66952140Y-102854478D01*
X67049090Y-102844575D01*
X67054564Y-102843641D01*
X67093125Y-102836459D01*
X67114506Y-102829521D01*
X67123773Y-102819227D01*
X67125994Y-102801976D01*
X67126044Y-102792841D01*
X67126044Y-102754489D01*
X67057569Y-102754489D01*
X66997100Y-102750347D01*
X66955835Y-102737147D01*
X66931825Y-102713730D01*
X66923123Y-102678936D01*
X66923017Y-102674394D01*
X66928108Y-102644654D01*
X66945567Y-102623419D01*
X66978061Y-102609366D01*
X67028257Y-102601173D01*
X67076877Y-102598161D01*
X67147544Y-102596433D01*
X67198802Y-102599070D01*
X67233761Y-102608800D01*
X67255530Y-102628353D01*
X67267220Y-102660456D01*
X67271940Y-102707838D01*
X67272800Y-102770071D01*
X67271391Y-102839535D01*
X67267152Y-102886786D01*
X67260064Y-102912012D01*
X67258689Y-102913988D01*
X67219772Y-102945508D01*
X67162714Y-102970470D01*
X67091131Y-102988340D01*
X67008642Y-102998586D01*
X66918861Y-103000673D01*
X66825408Y-102994068D01*
X66770444Y-102985956D01*
X66684234Y-102961554D01*
X66604108Y-102921662D01*
X66537023Y-102869887D01*
X66526827Y-102859539D01*
X66493698Y-102816035D01*
X66463806Y-102762118D01*
X66440643Y-102705592D01*
X66427702Y-102654259D01*
X66426142Y-102634544D01*
X66432782Y-102593419D01*
X66450432Y-102542252D01*
X66475703Y-102488394D01*
X66505211Y-102439195D01*
X66531281Y-102406334D01*
X66592235Y-102357452D01*
X66671031Y-102318545D01*
X66764843Y-102290494D01*
X66870850Y-102274179D01*
X66968000Y-102270192D01*
X67049919Y-102274599D01*
X67049919Y-102274599D01*
G37*
X67049919Y-102274599D02*
X67118435Y-102286095D01*
X67171057Y-102303967D01*
X67205292Y-102327499D01*
X67214621Y-102340924D01*
X67224107Y-102372148D01*
X67217723Y-102400395D01*
X67197570Y-102427182D01*
X67166255Y-102439713D01*
X67120817Y-102438696D01*
X67085674Y-102431906D01*
X67007581Y-102418971D01*
X66927774Y-102417742D01*
X66838445Y-102428241D01*
X66813771Y-102432690D01*
X66730709Y-102456108D01*
X66665727Y-102490945D01*
X66619539Y-102536604D01*
X66592855Y-102592494D01*
X66587337Y-102621388D01*
X66590949Y-102680012D01*
X66614271Y-102731879D01*
X66655176Y-102775978D01*
X66711541Y-102811299D01*
X66781240Y-102836829D01*
X66862148Y-102851559D01*
X66952140Y-102854478D01*
X67049090Y-102844575D01*
X67054564Y-102843641D01*
X67093125Y-102836459D01*
X67114506Y-102829521D01*
X67123773Y-102819227D01*
X67125994Y-102801976D01*
X67126044Y-102792841D01*
X67126044Y-102754489D01*
X67057569Y-102754489D01*
X66997100Y-102750347D01*
X66955835Y-102737147D01*
X66931825Y-102713730D01*
X66923123Y-102678936D01*
X66923017Y-102674394D01*
X66928108Y-102644654D01*
X66945567Y-102623419D01*
X66978061Y-102609366D01*
X67028257Y-102601173D01*
X67076877Y-102598161D01*
X67147544Y-102596433D01*
X67198802Y-102599070D01*
X67233761Y-102608800D01*
X67255530Y-102628353D01*
X67267220Y-102660456D01*
X67271940Y-102707838D01*
X67272800Y-102770071D01*
X67271391Y-102839535D01*
X67267152Y-102886786D01*
X67260064Y-102912012D01*
X67258689Y-102913988D01*
X67219772Y-102945508D01*
X67162714Y-102970470D01*
X67091131Y-102988340D01*
X67008642Y-102998586D01*
X66918861Y-103000673D01*
X66825408Y-102994068D01*
X66770444Y-102985956D01*
X66684234Y-102961554D01*
X66604108Y-102921662D01*
X66537023Y-102869887D01*
X66526827Y-102859539D01*
X66493698Y-102816035D01*
X66463806Y-102762118D01*
X66440643Y-102705592D01*
X66427702Y-102654259D01*
X66426142Y-102634544D01*
X66432782Y-102593419D01*
X66450432Y-102542252D01*
X66475703Y-102488394D01*
X66505211Y-102439195D01*
X66531281Y-102406334D01*
X66592235Y-102357452D01*
X66671031Y-102318545D01*
X66764843Y-102290494D01*
X66870850Y-102274179D01*
X66968000Y-102270192D01*
X67049919Y-102274599D01*
G36*
X67699886Y-102273448D02*
X67723452Y-102287273D01*
X67754265Y-102309881D01*
X67793922Y-102342338D01*
X67844020Y-102385708D01*
X67906157Y-102441058D01*
X67981928Y-102509451D01*
X68068666Y-102588084D01*
X68249289Y-102751878D01*
X68254933Y-102532029D01*
X68256971Y-102456351D01*
X68258937Y-102399994D01*
X68261266Y-102359706D01*
X68264394Y-102332235D01*
X68268755Y-102314329D01*
X68274784Y-102302737D01*
X68282916Y-102294208D01*
X68287228Y-102290623D01*
X68321759Y-102271670D01*
X68354617Y-102274441D01*
X68380682Y-102290633D01*
X68407333Y-102312199D01*
X68410648Y-102627151D01*
X68411565Y-102719779D01*
X68412032Y-102792544D01*
X68411887Y-102848161D01*
X68410968Y-102889342D01*
X68409113Y-102918803D01*
X68406161Y-102939255D01*
X68401950Y-102953413D01*
X68396318Y-102963991D01*
X68390073Y-102972474D01*
X68376561Y-102988207D01*
X68363117Y-102998636D01*
X68347876Y-103002639D01*
X68328974Y-102999094D01*
X68304545Y-102986879D01*
X68272727Y-102964871D01*
X68231652Y-102931949D01*
X68179458Y-102886991D01*
X68114278Y-102828875D01*
X68040444Y-102762099D01*
X67775155Y-102521458D01*
X67769511Y-102740589D01*
X67767469Y-102816128D01*
X67765498Y-102872354D01*
X67763161Y-102912524D01*
X67760019Y-102939896D01*
X67755636Y-102957728D01*
X67749576Y-102969279D01*
X67741400Y-102977807D01*
X67737216Y-102981282D01*
X67700235Y-103000372D01*
X67665292Y-102997493D01*
X67634864Y-102973100D01*
X67627903Y-102963286D01*
X67622477Y-102951826D01*
X67618397Y-102935968D01*
X67615471Y-102912963D01*
X67613508Y-102880062D01*
X67612317Y-102834516D01*
X67611708Y-102773573D01*
X67611489Y-102694486D01*
X67611466Y-102635956D01*
X67611540Y-102544407D01*
X67611887Y-102472687D01*
X67612699Y-102418045D01*
X67614167Y-102377732D01*
X67616481Y-102348998D01*
X67619833Y-102329093D01*
X67624412Y-102315268D01*
X67630411Y-102304772D01*
X67634864Y-102298811D01*
X67646150Y-102284691D01*
X67656699Y-102274029D01*
X67668107Y-102267892D01*
X67681970Y-102267343D01*
X67699886Y-102273448D01*
X67699886Y-102273448D01*
G37*
X67699886Y-102273448D02*
X67723452Y-102287273D01*
X67754265Y-102309881D01*
X67793922Y-102342338D01*
X67844020Y-102385708D01*
X67906157Y-102441058D01*
X67981928Y-102509451D01*
X68068666Y-102588084D01*
X68249289Y-102751878D01*
X68254933Y-102532029D01*
X68256971Y-102456351D01*
X68258937Y-102399994D01*
X68261266Y-102359706D01*
X68264394Y-102332235D01*
X68268755Y-102314329D01*
X68274784Y-102302737D01*
X68282916Y-102294208D01*
X68287228Y-102290623D01*
X68321759Y-102271670D01*
X68354617Y-102274441D01*
X68380682Y-102290633D01*
X68407333Y-102312199D01*
X68410648Y-102627151D01*
X68411565Y-102719779D01*
X68412032Y-102792544D01*
X68411887Y-102848161D01*
X68410968Y-102889342D01*
X68409113Y-102918803D01*
X68406161Y-102939255D01*
X68401950Y-102953413D01*
X68396318Y-102963991D01*
X68390073Y-102972474D01*
X68376561Y-102988207D01*
X68363117Y-102998636D01*
X68347876Y-103002639D01*
X68328974Y-102999094D01*
X68304545Y-102986879D01*
X68272727Y-102964871D01*
X68231652Y-102931949D01*
X68179458Y-102886991D01*
X68114278Y-102828875D01*
X68040444Y-102762099D01*
X67775155Y-102521458D01*
X67769511Y-102740589D01*
X67767469Y-102816128D01*
X67765498Y-102872354D01*
X67763161Y-102912524D01*
X67760019Y-102939896D01*
X67755636Y-102957728D01*
X67749576Y-102969279D01*
X67741400Y-102977807D01*
X67737216Y-102981282D01*
X67700235Y-103000372D01*
X67665292Y-102997493D01*
X67634864Y-102973100D01*
X67627903Y-102963286D01*
X67622477Y-102951826D01*
X67618397Y-102935968D01*
X67615471Y-102912963D01*
X67613508Y-102880062D01*
X67612317Y-102834516D01*
X67611708Y-102773573D01*
X67611489Y-102694486D01*
X67611466Y-102635956D01*
X67611540Y-102544407D01*
X67611887Y-102472687D01*
X67612699Y-102418045D01*
X67614167Y-102377732D01*
X67616481Y-102348998D01*
X67619833Y-102329093D01*
X67624412Y-102315268D01*
X67630411Y-102304772D01*
X67634864Y-102298811D01*
X67646150Y-102284691D01*
X67656699Y-102274029D01*
X67668107Y-102267892D01*
X67681970Y-102267343D01*
X67699886Y-102273448D01*
G36*
X69230343Y-102269260D02*
X69306701Y-102270174D01*
X69365217Y-102272311D01*
X69408255Y-102276175D01*
X69438183Y-102282267D01*
X69457368Y-102291090D01*
X69468176Y-102303146D01*
X69472973Y-102318939D01*
X69474127Y-102338970D01*
X69474133Y-102341335D01*
X69473131Y-102363992D01*
X69468396Y-102381503D01*
X69457333Y-102394574D01*
X69437348Y-102403913D01*
X69405846Y-102410227D01*
X69360232Y-102414222D01*
X69297913Y-102416606D01*
X69216293Y-102418086D01*
X69191277Y-102418414D01*
X68949200Y-102421467D01*
X68945814Y-102486378D01*
X68942429Y-102551289D01*
X69110576Y-102551289D01*
X69176266Y-102551531D01*
X69223172Y-102552556D01*
X69255083Y-102554811D01*
X69275791Y-102558742D01*
X69289084Y-102564798D01*
X69298755Y-102573424D01*
X69298817Y-102573493D01*
X69316356Y-102607112D01*
X69315722Y-102643448D01*
X69297314Y-102674423D01*
X69293671Y-102677607D01*
X69280741Y-102685812D01*
X69263024Y-102691521D01*
X69236570Y-102695162D01*
X69197432Y-102697167D01*
X69141662Y-102697964D01*
X69105994Y-102698045D01*
X68943555Y-102698045D01*
X68943555Y-102856089D01*
X69190161Y-102856089D01*
X69271580Y-102856231D01*
X69333410Y-102856814D01*
X69378637Y-102858068D01*
X69410248Y-102860227D01*
X69431231Y-102863523D01*
X69444573Y-102868189D01*
X69453261Y-102874457D01*
X69455450Y-102876733D01*
X69471614Y-102908280D01*
X69472797Y-102944168D01*
X69459536Y-102975285D01*
X69449043Y-102985271D01*
X69438129Y-102990769D01*
X69421217Y-102995022D01*
X69395633Y-102998180D01*
X69358701Y-103000392D01*
X69307746Y-103001806D01*
X69240094Y-103002572D01*
X69153069Y-103002838D01*
X69133394Y-103002845D01*
X69044911Y-103002787D01*
X68976227Y-103002467D01*
X68924564Y-103001667D01*
X68887145Y-103000167D01*
X68861190Y-102997749D01*
X68843922Y-102994194D01*
X68832562Y-102989282D01*
X68824332Y-102982795D01*
X68819817Y-102978138D01*
X68813021Y-102969889D01*
X68807712Y-102959669D01*
X68803706Y-102944800D01*
X68800821Y-102922602D01*
X68798874Y-102890393D01*
X68797681Y-102845496D01*
X68797061Y-102785228D01*
X68796829Y-102706911D01*
X68796800Y-102640994D01*
X68796871Y-102548628D01*
X68797208Y-102476117D01*
X68797998Y-102420737D01*
X68799426Y-102379765D01*
X68801679Y-102350478D01*
X68804943Y-102330153D01*
X68809404Y-102316066D01*
X68815248Y-102305495D01*
X68820197Y-102298811D01*
X68843594Y-102269067D01*
X69133774Y-102269067D01*
X69230343Y-102269260D01*
X69230343Y-102269260D01*
G37*
X69230343Y-102269260D02*
X69306701Y-102270174D01*
X69365217Y-102272311D01*
X69408255Y-102276175D01*
X69438183Y-102282267D01*
X69457368Y-102291090D01*
X69468176Y-102303146D01*
X69472973Y-102318939D01*
X69474127Y-102338970D01*
X69474133Y-102341335D01*
X69473131Y-102363992D01*
X69468396Y-102381503D01*
X69457333Y-102394574D01*
X69437348Y-102403913D01*
X69405846Y-102410227D01*
X69360232Y-102414222D01*
X69297913Y-102416606D01*
X69216293Y-102418086D01*
X69191277Y-102418414D01*
X68949200Y-102421467D01*
X68945814Y-102486378D01*
X68942429Y-102551289D01*
X69110576Y-102551289D01*
X69176266Y-102551531D01*
X69223172Y-102552556D01*
X69255083Y-102554811D01*
X69275791Y-102558742D01*
X69289084Y-102564798D01*
X69298755Y-102573424D01*
X69298817Y-102573493D01*
X69316356Y-102607112D01*
X69315722Y-102643448D01*
X69297314Y-102674423D01*
X69293671Y-102677607D01*
X69280741Y-102685812D01*
X69263024Y-102691521D01*
X69236570Y-102695162D01*
X69197432Y-102697167D01*
X69141662Y-102697964D01*
X69105994Y-102698045D01*
X68943555Y-102698045D01*
X68943555Y-102856089D01*
X69190161Y-102856089D01*
X69271580Y-102856231D01*
X69333410Y-102856814D01*
X69378637Y-102858068D01*
X69410248Y-102860227D01*
X69431231Y-102863523D01*
X69444573Y-102868189D01*
X69453261Y-102874457D01*
X69455450Y-102876733D01*
X69471614Y-102908280D01*
X69472797Y-102944168D01*
X69459536Y-102975285D01*
X69449043Y-102985271D01*
X69438129Y-102990769D01*
X69421217Y-102995022D01*
X69395633Y-102998180D01*
X69358701Y-103000392D01*
X69307746Y-103001806D01*
X69240094Y-103002572D01*
X69153069Y-103002838D01*
X69133394Y-103002845D01*
X69044911Y-103002787D01*
X68976227Y-103002467D01*
X68924564Y-103001667D01*
X68887145Y-103000167D01*
X68861190Y-102997749D01*
X68843922Y-102994194D01*
X68832562Y-102989282D01*
X68824332Y-102982795D01*
X68819817Y-102978138D01*
X68813021Y-102969889D01*
X68807712Y-102959669D01*
X68803706Y-102944800D01*
X68800821Y-102922602D01*
X68798874Y-102890393D01*
X68797681Y-102845496D01*
X68797061Y-102785228D01*
X68796829Y-102706911D01*
X68796800Y-102640994D01*
X68796871Y-102548628D01*
X68797208Y-102476117D01*
X68797998Y-102420737D01*
X68799426Y-102379765D01*
X68801679Y-102350478D01*
X68804943Y-102330153D01*
X68809404Y-102316066D01*
X68815248Y-102305495D01*
X68820197Y-102298811D01*
X68843594Y-102269067D01*
X69133774Y-102269067D01*
X69230343Y-102269260D01*
G36*
X70018309Y-102269275D02*
X70147288Y-102273636D01*
X70256991Y-102286861D01*
X70349226Y-102309741D01*
X70425802Y-102343070D01*
X70488527Y-102387638D01*
X70539212Y-102444236D01*
X70579663Y-102513658D01*
X70580459Y-102515351D01*
X70604601Y-102577483D01*
X70613203Y-102632509D01*
X70606231Y-102687887D01*
X70583654Y-102751073D01*
X70579372Y-102760689D01*
X70550172Y-102816966D01*
X70517356Y-102860451D01*
X70475002Y-102897417D01*
X70417190Y-102934135D01*
X70413831Y-102936052D01*
X70363504Y-102960227D01*
X70306621Y-102978282D01*
X70239527Y-102990839D01*
X70158565Y-102998522D01*
X70060082Y-103001953D01*
X70025286Y-103002251D01*
X69859594Y-103002845D01*
X69836197Y-102973100D01*
X69829257Y-102963319D01*
X69823842Y-102951897D01*
X69819765Y-102936095D01*
X69816837Y-102913175D01*
X69814867Y-102880396D01*
X69814225Y-102856089D01*
X69970844Y-102856089D01*
X70064726Y-102856089D01*
X70119664Y-102854483D01*
X70176060Y-102850255D01*
X70222345Y-102844292D01*
X70225139Y-102843790D01*
X70307348Y-102821736D01*
X70371114Y-102788600D01*
X70418452Y-102742847D01*
X70451382Y-102682939D01*
X70457108Y-102667061D01*
X70462721Y-102642333D01*
X70460291Y-102617902D01*
X70448467Y-102585400D01*
X70441340Y-102569434D01*
X70418000Y-102527006D01*
X70389880Y-102497240D01*
X70358940Y-102476511D01*
X70296966Y-102449537D01*
X70217651Y-102429998D01*
X70125253Y-102418746D01*
X70058333Y-102416270D01*
X69970844Y-102415822D01*
X69970844Y-102856089D01*
X69814225Y-102856089D01*
X69813668Y-102835021D01*
X69813050Y-102774311D01*
X69812825Y-102695526D01*
X69812800Y-102633920D01*
X69812800Y-102324485D01*
X69840509Y-102296776D01*
X69852806Y-102285544D01*
X69866103Y-102277853D01*
X69884672Y-102273040D01*
X69912786Y-102270446D01*
X69954717Y-102269410D01*
X70014737Y-102269270D01*
X70018309Y-102269275D01*
X70018309Y-102269275D01*
G37*
X70018309Y-102269275D02*
X70147288Y-102273636D01*
X70256991Y-102286861D01*
X70349226Y-102309741D01*
X70425802Y-102343070D01*
X70488527Y-102387638D01*
X70539212Y-102444236D01*
X70579663Y-102513658D01*
X70580459Y-102515351D01*
X70604601Y-102577483D01*
X70613203Y-102632509D01*
X70606231Y-102687887D01*
X70583654Y-102751073D01*
X70579372Y-102760689D01*
X70550172Y-102816966D01*
X70517356Y-102860451D01*
X70475002Y-102897417D01*
X70417190Y-102934135D01*
X70413831Y-102936052D01*
X70363504Y-102960227D01*
X70306621Y-102978282D01*
X70239527Y-102990839D01*
X70158565Y-102998522D01*
X70060082Y-103001953D01*
X70025286Y-103002251D01*
X69859594Y-103002845D01*
X69836197Y-102973100D01*
X69829257Y-102963319D01*
X69823842Y-102951897D01*
X69819765Y-102936095D01*
X69816837Y-102913175D01*
X69814867Y-102880396D01*
X69814225Y-102856089D01*
X69970844Y-102856089D01*
X70064726Y-102856089D01*
X70119664Y-102854483D01*
X70176060Y-102850255D01*
X70222345Y-102844292D01*
X70225139Y-102843790D01*
X70307348Y-102821736D01*
X70371114Y-102788600D01*
X70418452Y-102742847D01*
X70451382Y-102682939D01*
X70457108Y-102667061D01*
X70462721Y-102642333D01*
X70460291Y-102617902D01*
X70448467Y-102585400D01*
X70441340Y-102569434D01*
X70418000Y-102527006D01*
X70389880Y-102497240D01*
X70358940Y-102476511D01*
X70296966Y-102449537D01*
X70217651Y-102429998D01*
X70125253Y-102418746D01*
X70058333Y-102416270D01*
X69970844Y-102415822D01*
X69970844Y-102856089D01*
X69814225Y-102856089D01*
X69813668Y-102835021D01*
X69813050Y-102774311D01*
X69812825Y-102695526D01*
X69812800Y-102633920D01*
X69812800Y-102324485D01*
X69840509Y-102296776D01*
X69852806Y-102285544D01*
X69866103Y-102277853D01*
X69884672Y-102273040D01*
X69912786Y-102270446D01*
X69954717Y-102269410D01*
X70014737Y-102269270D01*
X70018309Y-102269275D01*
G36*
X72744665Y-102271034D02*
X72764255Y-102278035D01*
X72765010Y-102278377D01*
X72791613Y-102298678D01*
X72806270Y-102319561D01*
X72809138Y-102329352D01*
X72808996Y-102342361D01*
X72804961Y-102360895D01*
X72796146Y-102387257D01*
X72781669Y-102423752D01*
X72760645Y-102472687D01*
X72732188Y-102536365D01*
X72695415Y-102617093D01*
X72675175Y-102661216D01*
X72638625Y-102739985D01*
X72604315Y-102812423D01*
X72573552Y-102875880D01*
X72547648Y-102927708D01*
X72527910Y-102965259D01*
X72515650Y-102985884D01*
X72513224Y-102988733D01*
X72482183Y-103001302D01*
X72447121Y-102999619D01*
X72419000Y-102984332D01*
X72417854Y-102983089D01*
X72406668Y-102966154D01*
X72387904Y-102933170D01*
X72363875Y-102888380D01*
X72336897Y-102836032D01*
X72327201Y-102816742D01*
X72254014Y-102670150D01*
X72174240Y-102829393D01*
X72145767Y-102884415D01*
X72119350Y-102932132D01*
X72097148Y-102968893D01*
X72081319Y-102991044D01*
X72075954Y-102995741D01*
X72034257Y-103002102D01*
X71999849Y-102988733D01*
X71989728Y-102974446D01*
X71972214Y-102942692D01*
X71948735Y-102896597D01*
X71920720Y-102839285D01*
X71889599Y-102773880D01*
X71856799Y-102703507D01*
X71823750Y-102631291D01*
X71791881Y-102560355D01*
X71762619Y-102493825D01*
X71737395Y-102434826D01*
X71717636Y-102386481D01*
X71704772Y-102351915D01*
X71700231Y-102334253D01*
X71700277Y-102333613D01*
X71711326Y-102311388D01*
X71733410Y-102288753D01*
X71734710Y-102287768D01*
X71761853Y-102272425D01*
X71786958Y-102272574D01*
X71796368Y-102275466D01*
X71807834Y-102281718D01*
X71820010Y-102294014D01*
X71834357Y-102314908D01*
X71852336Y-102346949D01*
X71875407Y-102392688D01*
X71905030Y-102454677D01*
X71931745Y-102511898D01*
X71962480Y-102578226D01*
X71990021Y-102637874D01*
X72012938Y-102687725D01*
X72029798Y-102724664D01*
X72039173Y-102745573D01*
X72040540Y-102748845D01*
X72046689Y-102743497D01*
X72060822Y-102721109D01*
X72081057Y-102684946D01*
X72105515Y-102638277D01*
X72115248Y-102619022D01*
X72148217Y-102554004D01*
X72173643Y-102506654D01*
X72193612Y-102474219D01*
X72210210Y-102453946D01*
X72225524Y-102443082D01*
X72241640Y-102438875D01*
X72252143Y-102438400D01*
X72270670Y-102440042D01*
X72286904Y-102446831D01*
X72303035Y-102461566D01*
X72321251Y-102487044D01*
X72343739Y-102526061D01*
X72372689Y-102581414D01*
X72388662Y-102612903D01*
X72414570Y-102663087D01*
X72437167Y-102704704D01*
X72454458Y-102734242D01*
X72464450Y-102748189D01*
X72465809Y-102748770D01*
X72472261Y-102737793D01*
X72486708Y-102709290D01*
X72507703Y-102666244D01*
X72533797Y-102611638D01*
X72563546Y-102548454D01*
X72578180Y-102517071D01*
X72616250Y-102436078D01*
X72646905Y-102373756D01*
X72671737Y-102328071D01*
X72692337Y-102296989D01*
X72710298Y-102278478D01*
X72727210Y-102270504D01*
X72744665Y-102271034D01*
X72744665Y-102271034D01*
G37*
X72744665Y-102271034D02*
X72764255Y-102278035D01*
X72765010Y-102278377D01*
X72791613Y-102298678D01*
X72806270Y-102319561D01*
X72809138Y-102329352D01*
X72808996Y-102342361D01*
X72804961Y-102360895D01*
X72796146Y-102387257D01*
X72781669Y-102423752D01*
X72760645Y-102472687D01*
X72732188Y-102536365D01*
X72695415Y-102617093D01*
X72675175Y-102661216D01*
X72638625Y-102739985D01*
X72604315Y-102812423D01*
X72573552Y-102875880D01*
X72547648Y-102927708D01*
X72527910Y-102965259D01*
X72515650Y-102985884D01*
X72513224Y-102988733D01*
X72482183Y-103001302D01*
X72447121Y-102999619D01*
X72419000Y-102984332D01*
X72417854Y-102983089D01*
X72406668Y-102966154D01*
X72387904Y-102933170D01*
X72363875Y-102888380D01*
X72336897Y-102836032D01*
X72327201Y-102816742D01*
X72254014Y-102670150D01*
X72174240Y-102829393D01*
X72145767Y-102884415D01*
X72119350Y-102932132D01*
X72097148Y-102968893D01*
X72081319Y-102991044D01*
X72075954Y-102995741D01*
X72034257Y-103002102D01*
X71999849Y-102988733D01*
X71989728Y-102974446D01*
X71972214Y-102942692D01*
X71948735Y-102896597D01*
X71920720Y-102839285D01*
X71889599Y-102773880D01*
X71856799Y-102703507D01*
X71823750Y-102631291D01*
X71791881Y-102560355D01*
X71762619Y-102493825D01*
X71737395Y-102434826D01*
X71717636Y-102386481D01*
X71704772Y-102351915D01*
X71700231Y-102334253D01*
X71700277Y-102333613D01*
X71711326Y-102311388D01*
X71733410Y-102288753D01*
X71734710Y-102287768D01*
X71761853Y-102272425D01*
X71786958Y-102272574D01*
X71796368Y-102275466D01*
X71807834Y-102281718D01*
X71820010Y-102294014D01*
X71834357Y-102314908D01*
X71852336Y-102346949D01*
X71875407Y-102392688D01*
X71905030Y-102454677D01*
X71931745Y-102511898D01*
X71962480Y-102578226D01*
X71990021Y-102637874D01*
X72012938Y-102687725D01*
X72029798Y-102724664D01*
X72039173Y-102745573D01*
X72040540Y-102748845D01*
X72046689Y-102743497D01*
X72060822Y-102721109D01*
X72081057Y-102684946D01*
X72105515Y-102638277D01*
X72115248Y-102619022D01*
X72148217Y-102554004D01*
X72173643Y-102506654D01*
X72193612Y-102474219D01*
X72210210Y-102453946D01*
X72225524Y-102443082D01*
X72241640Y-102438875D01*
X72252143Y-102438400D01*
X72270670Y-102440042D01*
X72286904Y-102446831D01*
X72303035Y-102461566D01*
X72321251Y-102487044D01*
X72343739Y-102526061D01*
X72372689Y-102581414D01*
X72388662Y-102612903D01*
X72414570Y-102663087D01*
X72437167Y-102704704D01*
X72454458Y-102734242D01*
X72464450Y-102748189D01*
X72465809Y-102748770D01*
X72472261Y-102737793D01*
X72486708Y-102709290D01*
X72507703Y-102666244D01*
X72533797Y-102611638D01*
X72563546Y-102548454D01*
X72578180Y-102517071D01*
X72616250Y-102436078D01*
X72646905Y-102373756D01*
X72671737Y-102328071D01*
X72692337Y-102296989D01*
X72710298Y-102278478D01*
X72727210Y-102270504D01*
X72744665Y-102271034D01*
G36*
X73188614Y-102275877D02*
X73212327Y-102290647D01*
X73238978Y-102312227D01*
X73238978Y-102633773D01*
X73238893Y-102727830D01*
X73238529Y-102801932D01*
X73237724Y-102858704D01*
X73236313Y-102900768D01*
X73234133Y-102930748D01*
X73231021Y-102951267D01*
X73226814Y-102964949D01*
X73221348Y-102974416D01*
X73217472Y-102979082D01*
X73186034Y-102999575D01*
X73150233Y-102998739D01*
X73118873Y-102981264D01*
X73092222Y-102959684D01*
X73092222Y-102312227D01*
X73118873Y-102290647D01*
X73144594Y-102274949D01*
X73165600Y-102269067D01*
X73188614Y-102275877D01*
X73188614Y-102275877D01*
G37*
X73188614Y-102275877D02*
X73212327Y-102290647D01*
X73238978Y-102312227D01*
X73238978Y-102633773D01*
X73238893Y-102727830D01*
X73238529Y-102801932D01*
X73237724Y-102858704D01*
X73236313Y-102900768D01*
X73234133Y-102930748D01*
X73231021Y-102951267D01*
X73226814Y-102964949D01*
X73221348Y-102974416D01*
X73217472Y-102979082D01*
X73186034Y-102999575D01*
X73150233Y-102998739D01*
X73118873Y-102981264D01*
X73092222Y-102959684D01*
X73092222Y-102312227D01*
X73118873Y-102290647D01*
X73144594Y-102274949D01*
X73165600Y-102269067D01*
X73188614Y-102275877D01*
G36*
X73963065Y-102269163D02*
X74041772Y-102269542D01*
X74102863Y-102270333D01*
X74148817Y-102271670D01*
X74182114Y-102273683D01*
X74205236Y-102276506D01*
X74220662Y-102280269D01*
X74230871Y-102285105D01*
X74235813Y-102288822D01*
X74261457Y-102321358D01*
X74264559Y-102355138D01*
X74248711Y-102385826D01*
X74238348Y-102398089D01*
X74227196Y-102406450D01*
X74211035Y-102411657D01*
X74185642Y-102414457D01*
X74146798Y-102415596D01*
X74090280Y-102415821D01*
X74079180Y-102415822D01*
X73933244Y-102415822D01*
X73933244Y-102686756D01*
X73933148Y-102772154D01*
X73932711Y-102837864D01*
X73931712Y-102886774D01*
X73929928Y-102921773D01*
X73927137Y-102945749D01*
X73923117Y-102961593D01*
X73917645Y-102972191D01*
X73910666Y-102980267D01*
X73877734Y-103000112D01*
X73843354Y-102998548D01*
X73812176Y-102975906D01*
X73809886Y-102973100D01*
X73802429Y-102962492D01*
X73796747Y-102950081D01*
X73792601Y-102932850D01*
X73789750Y-102907784D01*
X73787954Y-102871867D01*
X73786972Y-102822083D01*
X73786564Y-102755417D01*
X73786489Y-102679589D01*
X73786489Y-102415822D01*
X73647127Y-102415822D01*
X73587322Y-102415418D01*
X73545918Y-102413840D01*
X73518748Y-102410547D01*
X73501646Y-102404992D01*
X73490443Y-102396631D01*
X73489083Y-102395178D01*
X73472725Y-102361939D01*
X73474172Y-102324362D01*
X73492978Y-102291645D01*
X73500250Y-102285298D01*
X73509627Y-102280266D01*
X73523609Y-102276396D01*
X73544696Y-102273537D01*
X73575389Y-102271535D01*
X73618189Y-102270239D01*
X73675595Y-102269498D01*
X73750110Y-102269158D01*
X73844233Y-102269068D01*
X73864260Y-102269067D01*
X73963065Y-102269163D01*
X73963065Y-102269163D01*
G37*
X73963065Y-102269163D02*
X74041772Y-102269542D01*
X74102863Y-102270333D01*
X74148817Y-102271670D01*
X74182114Y-102273683D01*
X74205236Y-102276506D01*
X74220662Y-102280269D01*
X74230871Y-102285105D01*
X74235813Y-102288822D01*
X74261457Y-102321358D01*
X74264559Y-102355138D01*
X74248711Y-102385826D01*
X74238348Y-102398089D01*
X74227196Y-102406450D01*
X74211035Y-102411657D01*
X74185642Y-102414457D01*
X74146798Y-102415596D01*
X74090280Y-102415821D01*
X74079180Y-102415822D01*
X73933244Y-102415822D01*
X73933244Y-102686756D01*
X73933148Y-102772154D01*
X73932711Y-102837864D01*
X73931712Y-102886774D01*
X73929928Y-102921773D01*
X73927137Y-102945749D01*
X73923117Y-102961593D01*
X73917645Y-102972191D01*
X73910666Y-102980267D01*
X73877734Y-103000112D01*
X73843354Y-102998548D01*
X73812176Y-102975906D01*
X73809886Y-102973100D01*
X73802429Y-102962492D01*
X73796747Y-102950081D01*
X73792601Y-102932850D01*
X73789750Y-102907784D01*
X73787954Y-102871867D01*
X73786972Y-102822083D01*
X73786564Y-102755417D01*
X73786489Y-102679589D01*
X73786489Y-102415822D01*
X73647127Y-102415822D01*
X73587322Y-102415418D01*
X73545918Y-102413840D01*
X73518748Y-102410547D01*
X73501646Y-102404992D01*
X73490443Y-102396631D01*
X73489083Y-102395178D01*
X73472725Y-102361939D01*
X73474172Y-102324362D01*
X73492978Y-102291645D01*
X73500250Y-102285298D01*
X73509627Y-102280266D01*
X73523609Y-102276396D01*
X73544696Y-102273537D01*
X73575389Y-102271535D01*
X73618189Y-102270239D01*
X73675595Y-102269498D01*
X73750110Y-102269158D01*
X73844233Y-102269068D01*
X73864260Y-102269067D01*
X73963065Y-102269163D01*
G36*
X75228823Y-102274533D02*
X75260202Y-102296776D01*
X75287911Y-102324485D01*
X75287911Y-102633920D01*
X75287838Y-102725799D01*
X75287495Y-102797840D01*
X75286692Y-102852780D01*
X75285241Y-102893360D01*
X75282952Y-102922317D01*
X75279636Y-102942391D01*
X75275105Y-102956321D01*
X75269169Y-102966845D01*
X75264514Y-102973100D01*
X75233783Y-102997673D01*
X75198496Y-103000341D01*
X75166245Y-102985271D01*
X75155588Y-102976374D01*
X75148464Y-102964557D01*
X75144167Y-102945526D01*
X75141991Y-102914992D01*
X75141228Y-102868662D01*
X75141155Y-102832871D01*
X75141155Y-102698045D01*
X74644444Y-102698045D01*
X74644444Y-102820700D01*
X74643931Y-102876787D01*
X74641876Y-102915333D01*
X74637508Y-102941361D01*
X74630056Y-102959897D01*
X74621047Y-102973100D01*
X74590144Y-102997604D01*
X74555196Y-103000506D01*
X74521738Y-102983089D01*
X74512604Y-102973959D01*
X74506152Y-102961855D01*
X74501897Y-102943001D01*
X74499352Y-102913620D01*
X74498029Y-102869937D01*
X74497443Y-102808175D01*
X74497375Y-102794000D01*
X74496891Y-102677631D01*
X74496641Y-102581727D01*
X74496723Y-102504177D01*
X74497231Y-102442869D01*
X74498262Y-102395690D01*
X74499913Y-102360530D01*
X74502279Y-102335276D01*
X74505457Y-102317817D01*
X74509544Y-102306041D01*
X74514634Y-102297835D01*
X74520266Y-102291645D01*
X74552128Y-102271844D01*
X74585357Y-102274533D01*
X74616735Y-102296776D01*
X74629433Y-102311126D01*
X74637526Y-102326978D01*
X74642042Y-102349554D01*
X74644006Y-102384078D01*
X74644444Y-102435776D01*
X74644444Y-102551289D01*
X75141155Y-102551289D01*
X75141155Y-102432756D01*
X75141662Y-102378148D01*
X75143698Y-102341275D01*
X75148035Y-102317307D01*
X75155447Y-102301415D01*
X75163733Y-102291645D01*
X75195594Y-102271844D01*
X75228823Y-102274533D01*
X75228823Y-102274533D01*
G37*
X75228823Y-102274533D02*
X75260202Y-102296776D01*
X75287911Y-102324485D01*
X75287911Y-102633920D01*
X75287838Y-102725799D01*
X75287495Y-102797840D01*
X75286692Y-102852780D01*
X75285241Y-102893360D01*
X75282952Y-102922317D01*
X75279636Y-102942391D01*
X75275105Y-102956321D01*
X75269169Y-102966845D01*
X75264514Y-102973100D01*
X75233783Y-102997673D01*
X75198496Y-103000341D01*
X75166245Y-102985271D01*
X75155588Y-102976374D01*
X75148464Y-102964557D01*
X75144167Y-102945526D01*
X75141991Y-102914992D01*
X75141228Y-102868662D01*
X75141155Y-102832871D01*
X75141155Y-102698045D01*
X74644444Y-102698045D01*
X74644444Y-102820700D01*
X74643931Y-102876787D01*
X74641876Y-102915333D01*
X74637508Y-102941361D01*
X74630056Y-102959897D01*
X74621047Y-102973100D01*
X74590144Y-102997604D01*
X74555196Y-103000506D01*
X74521738Y-102983089D01*
X74512604Y-102973959D01*
X74506152Y-102961855D01*
X74501897Y-102943001D01*
X74499352Y-102913620D01*
X74498029Y-102869937D01*
X74497443Y-102808175D01*
X74497375Y-102794000D01*
X74496891Y-102677631D01*
X74496641Y-102581727D01*
X74496723Y-102504177D01*
X74497231Y-102442869D01*
X74498262Y-102395690D01*
X74499913Y-102360530D01*
X74502279Y-102335276D01*
X74505457Y-102317817D01*
X74509544Y-102306041D01*
X74514634Y-102297835D01*
X74520266Y-102291645D01*
X74552128Y-102271844D01*
X74585357Y-102274533D01*
X74616735Y-102296776D01*
X74629433Y-102311126D01*
X74637526Y-102326978D01*
X74642042Y-102349554D01*
X74644006Y-102384078D01*
X74644444Y-102435776D01*
X74644444Y-102551289D01*
X75141155Y-102551289D01*
X75141155Y-102432756D01*
X75141662Y-102378148D01*
X75143698Y-102341275D01*
X75148035Y-102317307D01*
X75155447Y-102301415D01*
X75163733Y-102291645D01*
X75195594Y-102271844D01*
X75228823Y-102274533D01*
G36*
X66053600Y-97489054D02*
X66064465Y-97602993D01*
X66096082Y-97710616D01*
X66146985Y-97809615D01*
X66215707Y-97897684D01*
X66300781Y-97972516D01*
X66397768Y-98030384D01*
X66504036Y-98070005D01*
X66611050Y-98088573D01*
X66716700Y-98087434D01*
X66818875Y-98067930D01*
X66915466Y-98031406D01*
X67004362Y-97979205D01*
X67083454Y-97912673D01*
X67150631Y-97833152D01*
X67203783Y-97741987D01*
X67240801Y-97640523D01*
X67259573Y-97530102D01*
X67261511Y-97480206D01*
X67261511Y-97392267D01*
X67313440Y-97392267D01*
X67349747Y-97395111D01*
X67376645Y-97406911D01*
X67403751Y-97430649D01*
X67442133Y-97469031D01*
X67442133Y-99660602D01*
X67442124Y-99922739D01*
X67442092Y-100163241D01*
X67442028Y-100383048D01*
X67441924Y-100583101D01*
X67441773Y-100764344D01*
X67441566Y-100927716D01*
X67441294Y-101074160D01*
X67440950Y-101204617D01*
X67440526Y-101320029D01*
X67440013Y-101421338D01*
X67439403Y-101509484D01*
X67438688Y-101585410D01*
X67437860Y-101650057D01*
X67436911Y-101704367D01*
X67435833Y-101749280D01*
X67434617Y-101785740D01*
X67433255Y-101814687D01*
X67431739Y-101837063D01*
X67430062Y-101853809D01*
X67428214Y-101865868D01*
X67426187Y-101874180D01*
X67423975Y-101879687D01*
X67422892Y-101881537D01*
X67418729Y-101888549D01*
X67415195Y-101894996D01*
X67411365Y-101900900D01*
X67406318Y-101906286D01*
X67399129Y-101911178D01*
X67388877Y-101915598D01*
X67374636Y-101919572D01*
X67355486Y-101923121D01*
X67330501Y-101926270D01*
X67298760Y-101929042D01*
X67259338Y-101931461D01*
X67211314Y-101933551D01*
X67153763Y-101935335D01*
X67085763Y-101936837D01*
X67006390Y-101938080D01*
X66914721Y-101939089D01*
X66809834Y-101939885D01*
X66690804Y-101940494D01*
X66556710Y-101940939D01*
X66406627Y-101941243D01*
X66239633Y-101941430D01*
X66054804Y-101941524D01*
X65851217Y-101941548D01*
X65627950Y-101941525D01*
X65384078Y-101941480D01*
X65118679Y-101941437D01*
X65080296Y-101941432D01*
X64813318Y-101941389D01*
X64567998Y-101941318D01*
X64343417Y-101941213D01*
X64138655Y-101941066D01*
X63952794Y-101940869D01*
X63784912Y-101940616D01*
X63634092Y-101940300D01*
X63499413Y-101939913D01*
X63379956Y-101939447D01*
X63274801Y-101938897D01*
X63183029Y-101938253D01*
X63103721Y-101937511D01*
X63035957Y-101936661D01*
X62978818Y-101935697D01*
X62931383Y-101934611D01*
X62892734Y-101933397D01*
X62861951Y-101932047D01*
X62838115Y-101930555D01*
X62820306Y-101928911D01*
X62807605Y-101927111D01*
X62799092Y-101925145D01*
X62794734Y-101923477D01*
X62786272Y-101919906D01*
X62778503Y-101917270D01*
X62771398Y-101914634D01*
X62764927Y-101911062D01*
X62759061Y-101905621D01*
X62753771Y-101897375D01*
X62749026Y-101885390D01*
X62744798Y-101868731D01*
X62741057Y-101846463D01*
X62737773Y-101817652D01*
X62734917Y-101781363D01*
X62732460Y-101736661D01*
X62730371Y-101682611D01*
X62728622Y-101618279D01*
X62727183Y-101542730D01*
X62726024Y-101455030D01*
X62725117Y-101354243D01*
X62724431Y-101239434D01*
X62723937Y-101109670D01*
X62723605Y-100964015D01*
X62723407Y-100801535D01*
X62723313Y-100621295D01*
X62723292Y-100422360D01*
X62723315Y-100203796D01*
X62723354Y-99964668D01*
X62723378Y-99704040D01*
X62723378Y-99661889D01*
X62723364Y-99398992D01*
X62723339Y-99157732D01*
X62723329Y-98937165D01*
X62723358Y-98736352D01*
X62723452Y-98554349D01*
X62723638Y-98390216D01*
X62723941Y-98243011D01*
X62724386Y-98111792D01*
X62724966Y-98001867D01*
X63027803Y-98001867D01*
X63067593Y-98059711D01*
X63078764Y-98075479D01*
X63088834Y-98089441D01*
X63097862Y-98102784D01*
X63105903Y-98116693D01*
X63113014Y-98132356D01*
X63119253Y-98150958D01*
X63124675Y-98173686D01*
X63129338Y-98201727D01*
X63133299Y-98236267D01*
X63136615Y-98278492D01*
X63139341Y-98329589D01*
X63141536Y-98390744D01*
X63143255Y-98463144D01*
X63144556Y-98547975D01*
X63145495Y-98646422D01*
X63146130Y-98759674D01*
X63146516Y-98888916D01*
X63146712Y-99035334D01*
X63146773Y-99200116D01*
X63146757Y-99384447D01*
X63146720Y-99589513D01*
X63146711Y-99712133D01*
X63146735Y-99929082D01*
X63146769Y-100124642D01*
X63146757Y-100299999D01*
X63146642Y-100456341D01*
X63146370Y-100594857D01*
X63145882Y-100716734D01*
X63145124Y-100823160D01*
X63144038Y-100915322D01*
X63142569Y-100994409D01*
X63140660Y-101061608D01*
X63138256Y-101118107D01*
X63135299Y-101165093D01*
X63131734Y-101203755D01*
X63127505Y-101235280D01*
X63122554Y-101260855D01*
X63116827Y-101281670D01*
X63110267Y-101298911D01*
X63102817Y-101313765D01*
X63094421Y-101327422D01*
X63085024Y-101341069D01*
X63074568Y-101355893D01*
X63068477Y-101364783D01*
X63029704Y-101422400D01*
X63561268Y-101422400D01*
X63684517Y-101422365D01*
X63787013Y-101422215D01*
X63870580Y-101421878D01*
X63937044Y-101421286D01*
X63988229Y-101420367D01*
X64025959Y-101419051D01*
X64052060Y-101417269D01*
X64068356Y-101414951D01*
X64076672Y-101412026D01*
X64078832Y-101408424D01*
X64076661Y-101404075D01*
X64075465Y-101402645D01*
X64050315Y-101365573D01*
X64024417Y-101312772D01*
X64000808Y-101250770D01*
X63992539Y-101224357D01*
X63987922Y-101206416D01*
X63984021Y-101185355D01*
X63980752Y-101159089D01*
X63978034Y-101125532D01*
X63975785Y-101082599D01*
X63973923Y-101028204D01*
X63972364Y-100960262D01*
X63971028Y-100876688D01*
X63969831Y-100775395D01*
X63968692Y-100654300D01*
X63968315Y-100609600D01*
X63967298Y-100484449D01*
X63966540Y-100380082D01*
X63966097Y-100294707D01*
X63966030Y-100226533D01*
X63966395Y-100173765D01*
X63967252Y-100134614D01*
X63968659Y-100107285D01*
X63970675Y-100089986D01*
X63973357Y-100080926D01*
X63976764Y-100078312D01*
X63980956Y-100080351D01*
X63985429Y-100084667D01*
X63995784Y-100097602D01*
X64017842Y-100126676D01*
X64050043Y-100169759D01*
X64090826Y-100224718D01*
X64138630Y-100289423D01*
X64191895Y-100361742D01*
X64249060Y-100439544D01*
X64308563Y-100520698D01*
X64368845Y-100603072D01*
X64428345Y-100684536D01*
X64485502Y-100762957D01*
X64538755Y-100836204D01*
X64586543Y-100902147D01*
X64627307Y-100958654D01*
X64659484Y-101003593D01*
X64681515Y-101034834D01*
X64686083Y-101041466D01*
X64709004Y-101078369D01*
X64735812Y-101126359D01*
X64761211Y-101175897D01*
X64764432Y-101182577D01*
X64786110Y-101230772D01*
X64798696Y-101268334D01*
X64804426Y-101304160D01*
X64805544Y-101346200D01*
X64804910Y-101422400D01*
X65959349Y-101422400D01*
X65868185Y-101328669D01*
X65821388Y-101278775D01*
X65771101Y-101222295D01*
X65725056Y-101168026D01*
X65704631Y-101142673D01*
X65674193Y-101103128D01*
X65634138Y-101049916D01*
X65585639Y-100984667D01*
X65529865Y-100909011D01*
X65467989Y-100824577D01*
X65401181Y-100732994D01*
X65330613Y-100635892D01*
X65257455Y-100534901D01*
X65182879Y-100431650D01*
X65108056Y-100327768D01*
X65034157Y-100224885D01*
X64962354Y-100124631D01*
X64893816Y-100028636D01*
X64829716Y-99938527D01*
X64771225Y-99855936D01*
X64719514Y-99782492D01*
X64675753Y-99719824D01*
X64641115Y-99669561D01*
X64616770Y-99633334D01*
X64603889Y-99612771D01*
X64602131Y-99608668D01*
X64610090Y-99597342D01*
X64630885Y-99570162D01*
X64663153Y-99528829D01*
X64705530Y-99475044D01*
X64756653Y-99410506D01*
X64815159Y-99336918D01*
X64879686Y-99255978D01*
X64948869Y-99169388D01*
X65021347Y-99078848D01*
X65095754Y-98986060D01*
X65155483Y-98911702D01*
X66166489Y-98911702D01*
X66172398Y-98924659D01*
X66186728Y-98946908D01*
X66187775Y-98948391D01*
X66206562Y-98978544D01*
X66226209Y-99015375D01*
X66230108Y-99023511D01*
X66233644Y-99031940D01*
X66236770Y-99042059D01*
X66239514Y-99055260D01*
X66241908Y-99072938D01*
X66243981Y-99096484D01*
X66245765Y-99127293D01*
X66247288Y-99166757D01*
X66248581Y-99216269D01*
X66249674Y-99277223D01*
X66250597Y-99351011D01*
X66251381Y-99439028D01*
X66252055Y-99542665D01*
X66252650Y-99663316D01*
X66253195Y-99802374D01*
X66253721Y-99961232D01*
X66254255Y-100140089D01*
X66254794Y-100325207D01*
X66255228Y-100489145D01*
X66255491Y-100633303D01*
X66255516Y-100759079D01*
X66255235Y-100867871D01*
X66254581Y-100961077D01*
X66253486Y-101040097D01*
X66251882Y-101106328D01*
X66249703Y-101161170D01*
X66246881Y-101206021D01*
X66243349Y-101242278D01*
X66239039Y-101271341D01*
X66233883Y-101294609D01*
X66227815Y-101313479D01*
X66220767Y-101329351D01*
X66212671Y-101343622D01*
X66203460Y-101357691D01*
X66194960Y-101370158D01*
X66177824Y-101396452D01*
X66167678Y-101414037D01*
X66166489Y-101417257D01*
X66177396Y-101418334D01*
X66208589Y-101419335D01*
X66257777Y-101420235D01*
X66322667Y-101421010D01*
X66400970Y-101421637D01*
X66490393Y-101422091D01*
X66588644Y-101422349D01*
X66657555Y-101422400D01*
X66762548Y-101422180D01*
X66859390Y-101421548D01*
X66945893Y-101420549D01*
X67019868Y-101419227D01*
X67079126Y-101417626D01*
X67121480Y-101415791D01*
X67144740Y-101413765D01*
X67148622Y-101412493D01*
X67140924Y-101397591D01*
X67132926Y-101389560D01*
X67119754Y-101372434D01*
X67102515Y-101342183D01*
X67090593Y-101317622D01*
X67063955Y-101258711D01*
X67060880Y-100081845D01*
X67057805Y-98904978D01*
X66612147Y-98904978D01*
X66514330Y-98905142D01*
X66423936Y-98905611D01*
X66343370Y-98906347D01*
X66275038Y-98907316D01*
X66221344Y-98908480D01*
X66184695Y-98909803D01*
X66167496Y-98911249D01*
X66166489Y-98911702D01*
X65155483Y-98911702D01*
X65170730Y-98892722D01*
X65244910Y-98800537D01*
X65316931Y-98711204D01*
X65385431Y-98626424D01*
X65449045Y-98547898D01*
X65506412Y-98477326D01*
X65556167Y-98416409D01*
X65596948Y-98366847D01*
X65614112Y-98346178D01*
X65700404Y-98245516D01*
X65777003Y-98162259D01*
X65845817Y-98094438D01*
X65908752Y-98040089D01*
X65918133Y-98032722D01*
X65957644Y-98002117D01*
X64825884Y-98001867D01*
X64831173Y-98049844D01*
X64827870Y-98107188D01*
X64806339Y-98175463D01*
X64766365Y-98255212D01*
X64721057Y-98327495D01*
X64704839Y-98350140D01*
X64676786Y-98387696D01*
X64638570Y-98438021D01*
X64591863Y-98498973D01*
X64538339Y-98568411D01*
X64479669Y-98644194D01*
X64417525Y-98724180D01*
X64353579Y-98806228D01*
X64289505Y-98888196D01*
X64226973Y-98967943D01*
X64167657Y-99043327D01*
X64113229Y-99112207D01*
X64065361Y-99172442D01*
X64025725Y-99221889D01*
X63995994Y-99258408D01*
X63977839Y-99279858D01*
X63974780Y-99283156D01*
X63971921Y-99275149D01*
X63969707Y-99244855D01*
X63968143Y-99192556D01*
X63967233Y-99118531D01*
X63966980Y-99023063D01*
X63967387Y-98906434D01*
X63968296Y-98786445D01*
X63969618Y-98654333D01*
X63971143Y-98542594D01*
X63973119Y-98449025D01*
X63975794Y-98371419D01*
X63979418Y-98307574D01*
X63984239Y-98255283D01*
X63990506Y-98212344D01*
X63998468Y-98176551D01*
X64008373Y-98145700D01*
X64020469Y-98117586D01*
X64035007Y-98090005D01*
X64049689Y-98064966D01*
X64087686Y-98001867D01*
X63027803Y-98001867D01*
X62724966Y-98001867D01*
X62724999Y-97995617D01*
X62725805Y-97893544D01*
X62726830Y-97804633D01*
X62728100Y-97727941D01*
X62729640Y-97662527D01*
X62731476Y-97607449D01*
X62733633Y-97561765D01*
X62736137Y-97524534D01*
X62739013Y-97494813D01*
X62742287Y-97471662D01*
X62745985Y-97454139D01*
X62750131Y-97441301D01*
X62754753Y-97432208D01*
X62759874Y-97425918D01*
X62765522Y-97421488D01*
X62771721Y-97417978D01*
X62778496Y-97414445D01*
X62784492Y-97410876D01*
X62789725Y-97408300D01*
X62797901Y-97405972D01*
X62810114Y-97403878D01*
X62827459Y-97402007D01*
X62851031Y-97400347D01*
X62881923Y-97398884D01*
X62921232Y-97397608D01*
X62970050Y-97396504D01*
X63029473Y-97395561D01*
X63100596Y-97394767D01*
X63184512Y-97394109D01*
X63282317Y-97393575D01*
X63395106Y-97393153D01*
X63523971Y-97392829D01*
X63670009Y-97392592D01*
X63834314Y-97392430D01*
X64017980Y-97392330D01*
X64222103Y-97392280D01*
X64433247Y-97392267D01*
X66053600Y-97392267D01*
X66053600Y-97489054D01*
X66053600Y-97489054D01*
G37*
X66053600Y-97489054D02*
X66064465Y-97602993D01*
X66096082Y-97710616D01*
X66146985Y-97809615D01*
X66215707Y-97897684D01*
X66300781Y-97972516D01*
X66397768Y-98030384D01*
X66504036Y-98070005D01*
X66611050Y-98088573D01*
X66716700Y-98087434D01*
X66818875Y-98067930D01*
X66915466Y-98031406D01*
X67004362Y-97979205D01*
X67083454Y-97912673D01*
X67150631Y-97833152D01*
X67203783Y-97741987D01*
X67240801Y-97640523D01*
X67259573Y-97530102D01*
X67261511Y-97480206D01*
X67261511Y-97392267D01*
X67313440Y-97392267D01*
X67349747Y-97395111D01*
X67376645Y-97406911D01*
X67403751Y-97430649D01*
X67442133Y-97469031D01*
X67442133Y-99660602D01*
X67442124Y-99922739D01*
X67442092Y-100163241D01*
X67442028Y-100383048D01*
X67441924Y-100583101D01*
X67441773Y-100764344D01*
X67441566Y-100927716D01*
X67441294Y-101074160D01*
X67440950Y-101204617D01*
X67440526Y-101320029D01*
X67440013Y-101421338D01*
X67439403Y-101509484D01*
X67438688Y-101585410D01*
X67437860Y-101650057D01*
X67436911Y-101704367D01*
X67435833Y-101749280D01*
X67434617Y-101785740D01*
X67433255Y-101814687D01*
X67431739Y-101837063D01*
X67430062Y-101853809D01*
X67428214Y-101865868D01*
X67426187Y-101874180D01*
X67423975Y-101879687D01*
X67422892Y-101881537D01*
X67418729Y-101888549D01*
X67415195Y-101894996D01*
X67411365Y-101900900D01*
X67406318Y-101906286D01*
X67399129Y-101911178D01*
X67388877Y-101915598D01*
X67374636Y-101919572D01*
X67355486Y-101923121D01*
X67330501Y-101926270D01*
X67298760Y-101929042D01*
X67259338Y-101931461D01*
X67211314Y-101933551D01*
X67153763Y-101935335D01*
X67085763Y-101936837D01*
X67006390Y-101938080D01*
X66914721Y-101939089D01*
X66809834Y-101939885D01*
X66690804Y-101940494D01*
X66556710Y-101940939D01*
X66406627Y-101941243D01*
X66239633Y-101941430D01*
X66054804Y-101941524D01*
X65851217Y-101941548D01*
X65627950Y-101941525D01*
X65384078Y-101941480D01*
X65118679Y-101941437D01*
X65080296Y-101941432D01*
X64813318Y-101941389D01*
X64567998Y-101941318D01*
X64343417Y-101941213D01*
X64138655Y-101941066D01*
X63952794Y-101940869D01*
X63784912Y-101940616D01*
X63634092Y-101940300D01*
X63499413Y-101939913D01*
X63379956Y-101939447D01*
X63274801Y-101938897D01*
X63183029Y-101938253D01*
X63103721Y-101937511D01*
X63035957Y-101936661D01*
X62978818Y-101935697D01*
X62931383Y-101934611D01*
X62892734Y-101933397D01*
X62861951Y-101932047D01*
X62838115Y-101930555D01*
X62820306Y-101928911D01*
X62807605Y-101927111D01*
X62799092Y-101925145D01*
X62794734Y-101923477D01*
X62786272Y-101919906D01*
X62778503Y-101917270D01*
X62771398Y-101914634D01*
X62764927Y-101911062D01*
X62759061Y-101905621D01*
X62753771Y-101897375D01*
X62749026Y-101885390D01*
X62744798Y-101868731D01*
X62741057Y-101846463D01*
X62737773Y-101817652D01*
X62734917Y-101781363D01*
X62732460Y-101736661D01*
X62730371Y-101682611D01*
X62728622Y-101618279D01*
X62727183Y-101542730D01*
X62726024Y-101455030D01*
X62725117Y-101354243D01*
X62724431Y-101239434D01*
X62723937Y-101109670D01*
X62723605Y-100964015D01*
X62723407Y-100801535D01*
X62723313Y-100621295D01*
X62723292Y-100422360D01*
X62723315Y-100203796D01*
X62723354Y-99964668D01*
X62723378Y-99704040D01*
X62723378Y-99661889D01*
X62723364Y-99398992D01*
X62723339Y-99157732D01*
X62723329Y-98937165D01*
X62723358Y-98736352D01*
X62723452Y-98554349D01*
X62723638Y-98390216D01*
X62723941Y-98243011D01*
X62724386Y-98111792D01*
X62724966Y-98001867D01*
X63027803Y-98001867D01*
X63067593Y-98059711D01*
X63078764Y-98075479D01*
X63088834Y-98089441D01*
X63097862Y-98102784D01*
X63105903Y-98116693D01*
X63113014Y-98132356D01*
X63119253Y-98150958D01*
X63124675Y-98173686D01*
X63129338Y-98201727D01*
X63133299Y-98236267D01*
X63136615Y-98278492D01*
X63139341Y-98329589D01*
X63141536Y-98390744D01*
X63143255Y-98463144D01*
X63144556Y-98547975D01*
X63145495Y-98646422D01*
X63146130Y-98759674D01*
X63146516Y-98888916D01*
X63146712Y-99035334D01*
X63146773Y-99200116D01*
X63146757Y-99384447D01*
X63146720Y-99589513D01*
X63146711Y-99712133D01*
X63146735Y-99929082D01*
X63146769Y-100124642D01*
X63146757Y-100299999D01*
X63146642Y-100456341D01*
X63146370Y-100594857D01*
X63145882Y-100716734D01*
X63145124Y-100823160D01*
X63144038Y-100915322D01*
X63142569Y-100994409D01*
X63140660Y-101061608D01*
X63138256Y-101118107D01*
X63135299Y-101165093D01*
X63131734Y-101203755D01*
X63127505Y-101235280D01*
X63122554Y-101260855D01*
X63116827Y-101281670D01*
X63110267Y-101298911D01*
X63102817Y-101313765D01*
X63094421Y-101327422D01*
X63085024Y-101341069D01*
X63074568Y-101355893D01*
X63068477Y-101364783D01*
X63029704Y-101422400D01*
X63561268Y-101422400D01*
X63684517Y-101422365D01*
X63787013Y-101422215D01*
X63870580Y-101421878D01*
X63937044Y-101421286D01*
X63988229Y-101420367D01*
X64025959Y-101419051D01*
X64052060Y-101417269D01*
X64068356Y-101414951D01*
X64076672Y-101412026D01*
X64078832Y-101408424D01*
X64076661Y-101404075D01*
X64075465Y-101402645D01*
X64050315Y-101365573D01*
X64024417Y-101312772D01*
X64000808Y-101250770D01*
X63992539Y-101224357D01*
X63987922Y-101206416D01*
X63984021Y-101185355D01*
X63980752Y-101159089D01*
X63978034Y-101125532D01*
X63975785Y-101082599D01*
X63973923Y-101028204D01*
X63972364Y-100960262D01*
X63971028Y-100876688D01*
X63969831Y-100775395D01*
X63968692Y-100654300D01*
X63968315Y-100609600D01*
X63967298Y-100484449D01*
X63966540Y-100380082D01*
X63966097Y-100294707D01*
X63966030Y-100226533D01*
X63966395Y-100173765D01*
X63967252Y-100134614D01*
X63968659Y-100107285D01*
X63970675Y-100089986D01*
X63973357Y-100080926D01*
X63976764Y-100078312D01*
X63980956Y-100080351D01*
X63985429Y-100084667D01*
X63995784Y-100097602D01*
X64017842Y-100126676D01*
X64050043Y-100169759D01*
X64090826Y-100224718D01*
X64138630Y-100289423D01*
X64191895Y-100361742D01*
X64249060Y-100439544D01*
X64308563Y-100520698D01*
X64368845Y-100603072D01*
X64428345Y-100684536D01*
X64485502Y-100762957D01*
X64538755Y-100836204D01*
X64586543Y-100902147D01*
X64627307Y-100958654D01*
X64659484Y-101003593D01*
X64681515Y-101034834D01*
X64686083Y-101041466D01*
X64709004Y-101078369D01*
X64735812Y-101126359D01*
X64761211Y-101175897D01*
X64764432Y-101182577D01*
X64786110Y-101230772D01*
X64798696Y-101268334D01*
X64804426Y-101304160D01*
X64805544Y-101346200D01*
X64804910Y-101422400D01*
X65959349Y-101422400D01*
X65868185Y-101328669D01*
X65821388Y-101278775D01*
X65771101Y-101222295D01*
X65725056Y-101168026D01*
X65704631Y-101142673D01*
X65674193Y-101103128D01*
X65634138Y-101049916D01*
X65585639Y-100984667D01*
X65529865Y-100909011D01*
X65467989Y-100824577D01*
X65401181Y-100732994D01*
X65330613Y-100635892D01*
X65257455Y-100534901D01*
X65182879Y-100431650D01*
X65108056Y-100327768D01*
X65034157Y-100224885D01*
X64962354Y-100124631D01*
X64893816Y-100028636D01*
X64829716Y-99938527D01*
X64771225Y-99855936D01*
X64719514Y-99782492D01*
X64675753Y-99719824D01*
X64641115Y-99669561D01*
X64616770Y-99633334D01*
X64603889Y-99612771D01*
X64602131Y-99608668D01*
X64610090Y-99597342D01*
X64630885Y-99570162D01*
X64663153Y-99528829D01*
X64705530Y-99475044D01*
X64756653Y-99410506D01*
X64815159Y-99336918D01*
X64879686Y-99255978D01*
X64948869Y-99169388D01*
X65021347Y-99078848D01*
X65095754Y-98986060D01*
X65155483Y-98911702D01*
X66166489Y-98911702D01*
X66172398Y-98924659D01*
X66186728Y-98946908D01*
X66187775Y-98948391D01*
X66206562Y-98978544D01*
X66226209Y-99015375D01*
X66230108Y-99023511D01*
X66233644Y-99031940D01*
X66236770Y-99042059D01*
X66239514Y-99055260D01*
X66241908Y-99072938D01*
X66243981Y-99096484D01*
X66245765Y-99127293D01*
X66247288Y-99166757D01*
X66248581Y-99216269D01*
X66249674Y-99277223D01*
X66250597Y-99351011D01*
X66251381Y-99439028D01*
X66252055Y-99542665D01*
X66252650Y-99663316D01*
X66253195Y-99802374D01*
X66253721Y-99961232D01*
X66254255Y-100140089D01*
X66254794Y-100325207D01*
X66255228Y-100489145D01*
X66255491Y-100633303D01*
X66255516Y-100759079D01*
X66255235Y-100867871D01*
X66254581Y-100961077D01*
X66253486Y-101040097D01*
X66251882Y-101106328D01*
X66249703Y-101161170D01*
X66246881Y-101206021D01*
X66243349Y-101242278D01*
X66239039Y-101271341D01*
X66233883Y-101294609D01*
X66227815Y-101313479D01*
X66220767Y-101329351D01*
X66212671Y-101343622D01*
X66203460Y-101357691D01*
X66194960Y-101370158D01*
X66177824Y-101396452D01*
X66167678Y-101414037D01*
X66166489Y-101417257D01*
X66177396Y-101418334D01*
X66208589Y-101419335D01*
X66257777Y-101420235D01*
X66322667Y-101421010D01*
X66400970Y-101421637D01*
X66490393Y-101422091D01*
X66588644Y-101422349D01*
X66657555Y-101422400D01*
X66762548Y-101422180D01*
X66859390Y-101421548D01*
X66945893Y-101420549D01*
X67019868Y-101419227D01*
X67079126Y-101417626D01*
X67121480Y-101415791D01*
X67144740Y-101413765D01*
X67148622Y-101412493D01*
X67140924Y-101397591D01*
X67132926Y-101389560D01*
X67119754Y-101372434D01*
X67102515Y-101342183D01*
X67090593Y-101317622D01*
X67063955Y-101258711D01*
X67060880Y-100081845D01*
X67057805Y-98904978D01*
X66612147Y-98904978D01*
X66514330Y-98905142D01*
X66423936Y-98905611D01*
X66343370Y-98906347D01*
X66275038Y-98907316D01*
X66221344Y-98908480D01*
X66184695Y-98909803D01*
X66167496Y-98911249D01*
X66166489Y-98911702D01*
X65155483Y-98911702D01*
X65170730Y-98892722D01*
X65244910Y-98800537D01*
X65316931Y-98711204D01*
X65385431Y-98626424D01*
X65449045Y-98547898D01*
X65506412Y-98477326D01*
X65556167Y-98416409D01*
X65596948Y-98366847D01*
X65614112Y-98346178D01*
X65700404Y-98245516D01*
X65777003Y-98162259D01*
X65845817Y-98094438D01*
X65908752Y-98040089D01*
X65918133Y-98032722D01*
X65957644Y-98002117D01*
X64825884Y-98001867D01*
X64831173Y-98049844D01*
X64827870Y-98107188D01*
X64806339Y-98175463D01*
X64766365Y-98255212D01*
X64721057Y-98327495D01*
X64704839Y-98350140D01*
X64676786Y-98387696D01*
X64638570Y-98438021D01*
X64591863Y-98498973D01*
X64538339Y-98568411D01*
X64479669Y-98644194D01*
X64417525Y-98724180D01*
X64353579Y-98806228D01*
X64289505Y-98888196D01*
X64226973Y-98967943D01*
X64167657Y-99043327D01*
X64113229Y-99112207D01*
X64065361Y-99172442D01*
X64025725Y-99221889D01*
X63995994Y-99258408D01*
X63977839Y-99279858D01*
X63974780Y-99283156D01*
X63971921Y-99275149D01*
X63969707Y-99244855D01*
X63968143Y-99192556D01*
X63967233Y-99118531D01*
X63966980Y-99023063D01*
X63967387Y-98906434D01*
X63968296Y-98786445D01*
X63969618Y-98654333D01*
X63971143Y-98542594D01*
X63973119Y-98449025D01*
X63975794Y-98371419D01*
X63979418Y-98307574D01*
X63984239Y-98255283D01*
X63990506Y-98212344D01*
X63998468Y-98176551D01*
X64008373Y-98145700D01*
X64020469Y-98117586D01*
X64035007Y-98090005D01*
X64049689Y-98064966D01*
X64087686Y-98001867D01*
X63027803Y-98001867D01*
X62724966Y-98001867D01*
X62724999Y-97995617D01*
X62725805Y-97893544D01*
X62726830Y-97804633D01*
X62728100Y-97727941D01*
X62729640Y-97662527D01*
X62731476Y-97607449D01*
X62733633Y-97561765D01*
X62736137Y-97524534D01*
X62739013Y-97494813D01*
X62742287Y-97471662D01*
X62745985Y-97454139D01*
X62750131Y-97441301D01*
X62754753Y-97432208D01*
X62759874Y-97425918D01*
X62765522Y-97421488D01*
X62771721Y-97417978D01*
X62778496Y-97414445D01*
X62784492Y-97410876D01*
X62789725Y-97408300D01*
X62797901Y-97405972D01*
X62810114Y-97403878D01*
X62827459Y-97402007D01*
X62851031Y-97400347D01*
X62881923Y-97398884D01*
X62921232Y-97397608D01*
X62970050Y-97396504D01*
X63029473Y-97395561D01*
X63100596Y-97394767D01*
X63184512Y-97394109D01*
X63282317Y-97393575D01*
X63395106Y-97393153D01*
X63523971Y-97392829D01*
X63670009Y-97392592D01*
X63834314Y-97392430D01*
X64017980Y-97392330D01*
X64222103Y-97392280D01*
X64433247Y-97392267D01*
X66053600Y-97392267D01*
X66053600Y-97489054D01*
G36*
X69328429Y-97949071D02*
X69488570Y-97970245D01*
X69652510Y-98010385D01*
X69822313Y-98069889D01*
X70000043Y-98149154D01*
X70011310Y-98154699D01*
X70069005Y-98182725D01*
X70120552Y-98206802D01*
X70162191Y-98225249D01*
X70190162Y-98236386D01*
X70199733Y-98238933D01*
X70218950Y-98243941D01*
X70223561Y-98248147D01*
X70218458Y-98258580D01*
X70202418Y-98284868D01*
X70177288Y-98324257D01*
X70144914Y-98373991D01*
X70107143Y-98431315D01*
X70065822Y-98493476D01*
X70022798Y-98557718D01*
X69979917Y-98621285D01*
X69939026Y-98681425D01*
X69901971Y-98735380D01*
X69870600Y-98780397D01*
X69846759Y-98813721D01*
X69832294Y-98832597D01*
X69830309Y-98834787D01*
X69820191Y-98830138D01*
X69797850Y-98812962D01*
X69767280Y-98786440D01*
X69751536Y-98771964D01*
X69655047Y-98696682D01*
X69548336Y-98641241D01*
X69432832Y-98606141D01*
X69309962Y-98591880D01*
X69240561Y-98593051D01*
X69119423Y-98610212D01*
X69010205Y-98646094D01*
X68912582Y-98700959D01*
X68826228Y-98775070D01*
X68750815Y-98868688D01*
X68686018Y-98982076D01*
X68648601Y-99068667D01*
X68604748Y-99204366D01*
X68572428Y-99351850D01*
X68551557Y-99507314D01*
X68542051Y-99666956D01*
X68543827Y-99826973D01*
X68556803Y-99983561D01*
X68580894Y-100132918D01*
X68616018Y-100271240D01*
X68662092Y-100394724D01*
X68678373Y-100428978D01*
X68746620Y-100543064D01*
X68827079Y-100639557D01*
X68918570Y-100717670D01*
X69019911Y-100776617D01*
X69129920Y-100815612D01*
X69247415Y-100833868D01*
X69288883Y-100835211D01*
X69410441Y-100824290D01*
X69530878Y-100791474D01*
X69648666Y-100737439D01*
X69762277Y-100662865D01*
X69853685Y-100584539D01*
X69900215Y-100540008D01*
X70081483Y-100837271D01*
X70126580Y-100911433D01*
X70167819Y-100979646D01*
X70203735Y-101039459D01*
X70232866Y-101088420D01*
X70253750Y-101124079D01*
X70264924Y-101143984D01*
X70266375Y-101147079D01*
X70258146Y-101156718D01*
X70232567Y-101173999D01*
X70192873Y-101197283D01*
X70142297Y-101224934D01*
X70084074Y-101255315D01*
X70021437Y-101286790D01*
X69957621Y-101317722D01*
X69895860Y-101346473D01*
X69839388Y-101371408D01*
X69791438Y-101390889D01*
X69767986Y-101399318D01*
X69634221Y-101437133D01*
X69496327Y-101462136D01*
X69348622Y-101475140D01*
X69221833Y-101477468D01*
X69153878Y-101476373D01*
X69088277Y-101474275D01*
X69030847Y-101471434D01*
X68987403Y-101468106D01*
X68973298Y-101466422D01*
X68834284Y-101437587D01*
X68692757Y-101392468D01*
X68555275Y-101333750D01*
X68428394Y-101264120D01*
X68350889Y-101211441D01*
X68223481Y-101103239D01*
X68105178Y-100976671D01*
X67998172Y-100834866D01*
X67904652Y-100680951D01*
X67826810Y-100518053D01*
X67782956Y-100400756D01*
X67732708Y-100217128D01*
X67699209Y-100022581D01*
X67682449Y-99821325D01*
X67682416Y-99617568D01*
X67699101Y-99415521D01*
X67732493Y-99219392D01*
X67782580Y-99033391D01*
X67786397Y-99021803D01*
X67849281Y-98859750D01*
X67926028Y-98711832D01*
X68019242Y-98573865D01*
X68131527Y-98441661D01*
X68175392Y-98396399D01*
X68311534Y-98272457D01*
X68451491Y-98169915D01*
X68597411Y-98087656D01*
X68751442Y-98024564D01*
X68915732Y-97979523D01*
X69011289Y-97962033D01*
X69170023Y-97946466D01*
X69328429Y-97949071D01*
X69328429Y-97949071D01*
G37*
X69328429Y-97949071D02*
X69488570Y-97970245D01*
X69652510Y-98010385D01*
X69822313Y-98069889D01*
X70000043Y-98149154D01*
X70011310Y-98154699D01*
X70069005Y-98182725D01*
X70120552Y-98206802D01*
X70162191Y-98225249D01*
X70190162Y-98236386D01*
X70199733Y-98238933D01*
X70218950Y-98243941D01*
X70223561Y-98248147D01*
X70218458Y-98258580D01*
X70202418Y-98284868D01*
X70177288Y-98324257D01*
X70144914Y-98373991D01*
X70107143Y-98431315D01*
X70065822Y-98493476D01*
X70022798Y-98557718D01*
X69979917Y-98621285D01*
X69939026Y-98681425D01*
X69901971Y-98735380D01*
X69870600Y-98780397D01*
X69846759Y-98813721D01*
X69832294Y-98832597D01*
X69830309Y-98834787D01*
X69820191Y-98830138D01*
X69797850Y-98812962D01*
X69767280Y-98786440D01*
X69751536Y-98771964D01*
X69655047Y-98696682D01*
X69548336Y-98641241D01*
X69432832Y-98606141D01*
X69309962Y-98591880D01*
X69240561Y-98593051D01*
X69119423Y-98610212D01*
X69010205Y-98646094D01*
X68912582Y-98700959D01*
X68826228Y-98775070D01*
X68750815Y-98868688D01*
X68686018Y-98982076D01*
X68648601Y-99068667D01*
X68604748Y-99204366D01*
X68572428Y-99351850D01*
X68551557Y-99507314D01*
X68542051Y-99666956D01*
X68543827Y-99826973D01*
X68556803Y-99983561D01*
X68580894Y-100132918D01*
X68616018Y-100271240D01*
X68662092Y-100394724D01*
X68678373Y-100428978D01*
X68746620Y-100543064D01*
X68827079Y-100639557D01*
X68918570Y-100717670D01*
X69019911Y-100776617D01*
X69129920Y-100815612D01*
X69247415Y-100833868D01*
X69288883Y-100835211D01*
X69410441Y-100824290D01*
X69530878Y-100791474D01*
X69648666Y-100737439D01*
X69762277Y-100662865D01*
X69853685Y-100584539D01*
X69900215Y-100540008D01*
X70081483Y-100837271D01*
X70126580Y-100911433D01*
X70167819Y-100979646D01*
X70203735Y-101039459D01*
X70232866Y-101088420D01*
X70253750Y-101124079D01*
X70264924Y-101143984D01*
X70266375Y-101147079D01*
X70258146Y-101156718D01*
X70232567Y-101173999D01*
X70192873Y-101197283D01*
X70142297Y-101224934D01*
X70084074Y-101255315D01*
X70021437Y-101286790D01*
X69957621Y-101317722D01*
X69895860Y-101346473D01*
X69839388Y-101371408D01*
X69791438Y-101390889D01*
X69767986Y-101399318D01*
X69634221Y-101437133D01*
X69496327Y-101462136D01*
X69348622Y-101475140D01*
X69221833Y-101477468D01*
X69153878Y-101476373D01*
X69088277Y-101474275D01*
X69030847Y-101471434D01*
X68987403Y-101468106D01*
X68973298Y-101466422D01*
X68834284Y-101437587D01*
X68692757Y-101392468D01*
X68555275Y-101333750D01*
X68428394Y-101264120D01*
X68350889Y-101211441D01*
X68223481Y-101103239D01*
X68105178Y-100976671D01*
X67998172Y-100834866D01*
X67904652Y-100680951D01*
X67826810Y-100518053D01*
X67782956Y-100400756D01*
X67732708Y-100217128D01*
X67699209Y-100022581D01*
X67682449Y-99821325D01*
X67682416Y-99617568D01*
X67699101Y-99415521D01*
X67732493Y-99219392D01*
X67782580Y-99033391D01*
X67786397Y-99021803D01*
X67849281Y-98859750D01*
X67926028Y-98711832D01*
X68019242Y-98573865D01*
X68131527Y-98441661D01*
X68175392Y-98396399D01*
X68311534Y-98272457D01*
X68451491Y-98169915D01*
X68597411Y-98087656D01*
X68751442Y-98024564D01*
X68915732Y-97979523D01*
X69011289Y-97962033D01*
X69170023Y-97946466D01*
X69328429Y-97949071D01*
G36*
X71673574Y-98866552D02*
X71825492Y-98886567D01*
X71960756Y-98920202D01*
X72080239Y-98967725D01*
X72184815Y-99029405D01*
X72262424Y-99092965D01*
X72331265Y-99167099D01*
X72385006Y-99246871D01*
X72427910Y-99339091D01*
X72443384Y-99382161D01*
X72456244Y-99421142D01*
X72467446Y-99457289D01*
X72477120Y-99492434D01*
X72485396Y-99528410D01*
X72492403Y-99567050D01*
X72498272Y-99610185D01*
X72503131Y-99659649D01*
X72507110Y-99717273D01*
X72510340Y-99784891D01*
X72512949Y-99864334D01*
X72515067Y-99957436D01*
X72516824Y-100066027D01*
X72518349Y-100191942D01*
X72519772Y-100337012D01*
X72521025Y-100479778D01*
X72522351Y-100635968D01*
X72523556Y-100771239D01*
X72524766Y-100887246D01*
X72526106Y-100985645D01*
X72527700Y-101068093D01*
X72529675Y-101136246D01*
X72532156Y-101191760D01*
X72535269Y-101236292D01*
X72539138Y-101271498D01*
X72543889Y-101299034D01*
X72549648Y-101320556D01*
X72556539Y-101337722D01*
X72564689Y-101352186D01*
X72574223Y-101365606D01*
X72585266Y-101379638D01*
X72589566Y-101385071D01*
X72605386Y-101407910D01*
X72612422Y-101423463D01*
X72612444Y-101423922D01*
X72601567Y-101426121D01*
X72570582Y-101428147D01*
X72521957Y-101429942D01*
X72458163Y-101431451D01*
X72381669Y-101432616D01*
X72294944Y-101433380D01*
X72200457Y-101433686D01*
X72189550Y-101433689D01*
X71766657Y-101433689D01*
X71763395Y-101337622D01*
X71760133Y-101241556D01*
X71698044Y-101292543D01*
X71600714Y-101360057D01*
X71490813Y-101414749D01*
X71404349Y-101444978D01*
X71335278Y-101459666D01*
X71251925Y-101469659D01*
X71162159Y-101474646D01*
X71073845Y-101474313D01*
X70994851Y-101468351D01*
X70958622Y-101462638D01*
X70818603Y-101424776D01*
X70692178Y-101369932D01*
X70580260Y-101298924D01*
X70483762Y-101212568D01*
X70403600Y-101111679D01*
X70340687Y-100997076D01*
X70296312Y-100870984D01*
X70283978Y-100814401D01*
X70276368Y-100752202D01*
X70272739Y-100677363D01*
X70272245Y-100643467D01*
X70272310Y-100640282D01*
X71032248Y-100640282D01*
X71041541Y-100715333D01*
X71069728Y-100779160D01*
X71118197Y-100834798D01*
X71123254Y-100839211D01*
X71171548Y-100874037D01*
X71223257Y-100896620D01*
X71283989Y-100908540D01*
X71359352Y-100911383D01*
X71377459Y-100910978D01*
X71431278Y-100908325D01*
X71471308Y-100902909D01*
X71506324Y-100892745D01*
X71545103Y-100875850D01*
X71555745Y-100870672D01*
X71616396Y-100834844D01*
X71663215Y-100792212D01*
X71675952Y-100776973D01*
X71720622Y-100720462D01*
X71720622Y-100524586D01*
X71720086Y-100445939D01*
X71718396Y-100387988D01*
X71715428Y-100348875D01*
X71711057Y-100326741D01*
X71706972Y-100320274D01*
X71691047Y-100317111D01*
X71657264Y-100314488D01*
X71610340Y-100312655D01*
X71554993Y-100311857D01*
X71546106Y-100311842D01*
X71425330Y-100317096D01*
X71322660Y-100333263D01*
X71236106Y-100360961D01*
X71163681Y-100400808D01*
X71108751Y-100447758D01*
X71064204Y-100505645D01*
X71039480Y-100568693D01*
X71032248Y-100640282D01*
X70272310Y-100640282D01*
X70274178Y-100549712D01*
X70282522Y-100470812D01*
X70298768Y-100399590D01*
X70324405Y-100328864D01*
X70348401Y-100276493D01*
X70407020Y-100181196D01*
X70485117Y-100093170D01*
X70580315Y-100014017D01*
X70690238Y-99945340D01*
X70812510Y-99888741D01*
X70944755Y-99845821D01*
X71009422Y-99830882D01*
X71145604Y-99808777D01*
X71294049Y-99794194D01*
X71445505Y-99787813D01*
X71572064Y-99789445D01*
X71733950Y-99796224D01*
X71726530Y-99737245D01*
X71707238Y-99638092D01*
X71676104Y-99557372D01*
X71632269Y-99494466D01*
X71574871Y-99448756D01*
X71503048Y-99419622D01*
X71415941Y-99406447D01*
X71312686Y-99408611D01*
X71274711Y-99412612D01*
X71133520Y-99437780D01*
X70996707Y-99478814D01*
X70902178Y-99516815D01*
X70857018Y-99536190D01*
X70818585Y-99551760D01*
X70792234Y-99561405D01*
X70784546Y-99563452D01*
X70774802Y-99554374D01*
X70758083Y-99525405D01*
X70734232Y-99476217D01*
X70703093Y-99406484D01*
X70664507Y-99315879D01*
X70657910Y-99300089D01*
X70627853Y-99227772D01*
X70600874Y-99162425D01*
X70578136Y-99106906D01*
X70560806Y-99064072D01*
X70550048Y-99036781D01*
X70546941Y-99027942D01*
X70556940Y-99023187D01*
X70583217Y-99017910D01*
X70611489Y-99014231D01*
X70641646Y-99009474D01*
X70689433Y-99000028D01*
X70750612Y-98986820D01*
X70820946Y-98970776D01*
X70896194Y-98952820D01*
X70924755Y-98945797D01*
X71029816Y-98920209D01*
X71117480Y-98900147D01*
X71192068Y-98884969D01*
X71257903Y-98874035D01*
X71319307Y-98866704D01*
X71380602Y-98862335D01*
X71446110Y-98860287D01*
X71504128Y-98859889D01*
X71673574Y-98866552D01*
X71673574Y-98866552D01*
G37*
X71673574Y-98866552D02*
X71825492Y-98886567D01*
X71960756Y-98920202D01*
X72080239Y-98967725D01*
X72184815Y-99029405D01*
X72262424Y-99092965D01*
X72331265Y-99167099D01*
X72385006Y-99246871D01*
X72427910Y-99339091D01*
X72443384Y-99382161D01*
X72456244Y-99421142D01*
X72467446Y-99457289D01*
X72477120Y-99492434D01*
X72485396Y-99528410D01*
X72492403Y-99567050D01*
X72498272Y-99610185D01*
X72503131Y-99659649D01*
X72507110Y-99717273D01*
X72510340Y-99784891D01*
X72512949Y-99864334D01*
X72515067Y-99957436D01*
X72516824Y-100066027D01*
X72518349Y-100191942D01*
X72519772Y-100337012D01*
X72521025Y-100479778D01*
X72522351Y-100635968D01*
X72523556Y-100771239D01*
X72524766Y-100887246D01*
X72526106Y-100985645D01*
X72527700Y-101068093D01*
X72529675Y-101136246D01*
X72532156Y-101191760D01*
X72535269Y-101236292D01*
X72539138Y-101271498D01*
X72543889Y-101299034D01*
X72549648Y-101320556D01*
X72556539Y-101337722D01*
X72564689Y-101352186D01*
X72574223Y-101365606D01*
X72585266Y-101379638D01*
X72589566Y-101385071D01*
X72605386Y-101407910D01*
X72612422Y-101423463D01*
X72612444Y-101423922D01*
X72601567Y-101426121D01*
X72570582Y-101428147D01*
X72521957Y-101429942D01*
X72458163Y-101431451D01*
X72381669Y-101432616D01*
X72294944Y-101433380D01*
X72200457Y-101433686D01*
X72189550Y-101433689D01*
X71766657Y-101433689D01*
X71763395Y-101337622D01*
X71760133Y-101241556D01*
X71698044Y-101292543D01*
X71600714Y-101360057D01*
X71490813Y-101414749D01*
X71404349Y-101444978D01*
X71335278Y-101459666D01*
X71251925Y-101469659D01*
X71162159Y-101474646D01*
X71073845Y-101474313D01*
X70994851Y-101468351D01*
X70958622Y-101462638D01*
X70818603Y-101424776D01*
X70692178Y-101369932D01*
X70580260Y-101298924D01*
X70483762Y-101212568D01*
X70403600Y-101111679D01*
X70340687Y-100997076D01*
X70296312Y-100870984D01*
X70283978Y-100814401D01*
X70276368Y-100752202D01*
X70272739Y-100677363D01*
X70272245Y-100643467D01*
X70272310Y-100640282D01*
X71032248Y-100640282D01*
X71041541Y-100715333D01*
X71069728Y-100779160D01*
X71118197Y-100834798D01*
X71123254Y-100839211D01*
X71171548Y-100874037D01*
X71223257Y-100896620D01*
X71283989Y-100908540D01*
X71359352Y-100911383D01*
X71377459Y-100910978D01*
X71431278Y-100908325D01*
X71471308Y-100902909D01*
X71506324Y-100892745D01*
X71545103Y-100875850D01*
X71555745Y-100870672D01*
X71616396Y-100834844D01*
X71663215Y-100792212D01*
X71675952Y-100776973D01*
X71720622Y-100720462D01*
X71720622Y-100524586D01*
X71720086Y-100445939D01*
X71718396Y-100387988D01*
X71715428Y-100348875D01*
X71711057Y-100326741D01*
X71706972Y-100320274D01*
X71691047Y-100317111D01*
X71657264Y-100314488D01*
X71610340Y-100312655D01*
X71554993Y-100311857D01*
X71546106Y-100311842D01*
X71425330Y-100317096D01*
X71322660Y-100333263D01*
X71236106Y-100360961D01*
X71163681Y-100400808D01*
X71108751Y-100447758D01*
X71064204Y-100505645D01*
X71039480Y-100568693D01*
X71032248Y-100640282D01*
X70272310Y-100640282D01*
X70274178Y-100549712D01*
X70282522Y-100470812D01*
X70298768Y-100399590D01*
X70324405Y-100328864D01*
X70348401Y-100276493D01*
X70407020Y-100181196D01*
X70485117Y-100093170D01*
X70580315Y-100014017D01*
X70690238Y-99945340D01*
X70812510Y-99888741D01*
X70944755Y-99845821D01*
X71009422Y-99830882D01*
X71145604Y-99808777D01*
X71294049Y-99794194D01*
X71445505Y-99787813D01*
X71572064Y-99789445D01*
X71733950Y-99796224D01*
X71726530Y-99737245D01*
X71707238Y-99638092D01*
X71676104Y-99557372D01*
X71632269Y-99494466D01*
X71574871Y-99448756D01*
X71503048Y-99419622D01*
X71415941Y-99406447D01*
X71312686Y-99408611D01*
X71274711Y-99412612D01*
X71133520Y-99437780D01*
X70996707Y-99478814D01*
X70902178Y-99516815D01*
X70857018Y-99536190D01*
X70818585Y-99551760D01*
X70792234Y-99561405D01*
X70784546Y-99563452D01*
X70774802Y-99554374D01*
X70758083Y-99525405D01*
X70734232Y-99476217D01*
X70703093Y-99406484D01*
X70664507Y-99315879D01*
X70657910Y-99300089D01*
X70627853Y-99227772D01*
X70600874Y-99162425D01*
X70578136Y-99106906D01*
X70560806Y-99064072D01*
X70550048Y-99036781D01*
X70546941Y-99027942D01*
X70556940Y-99023187D01*
X70583217Y-99017910D01*
X70611489Y-99014231D01*
X70641646Y-99009474D01*
X70689433Y-99000028D01*
X70750612Y-98986820D01*
X70820946Y-98970776D01*
X70896194Y-98952820D01*
X70924755Y-98945797D01*
X71029816Y-98920209D01*
X71117480Y-98900147D01*
X71192068Y-98884969D01*
X71257903Y-98874035D01*
X71319307Y-98866704D01*
X71380602Y-98862335D01*
X71446110Y-98860287D01*
X71504128Y-98859889D01*
X71673574Y-98866552D01*
G36*
X75186507Y-99472245D02*
X75186526Y-99706662D01*
X75186552Y-99919603D01*
X75186625Y-100112168D01*
X75186782Y-100285459D01*
X75187064Y-100440576D01*
X75187509Y-100578620D01*
X75188156Y-100700692D01*
X75189045Y-100807894D01*
X75190213Y-100901326D01*
X75191701Y-100982090D01*
X75193546Y-101051286D01*
X75195789Y-101110015D01*
X75198469Y-101159379D01*
X75201623Y-101200478D01*
X75205292Y-101234413D01*
X75209513Y-101262286D01*
X75214327Y-101285198D01*
X75219773Y-101304249D01*
X75225888Y-101320540D01*
X75232712Y-101335173D01*
X75240285Y-101349249D01*
X75248645Y-101363868D01*
X75253839Y-101372974D01*
X75288104Y-101433689D01*
X74429955Y-101433689D01*
X74429955Y-101337733D01*
X74429224Y-101294370D01*
X74427272Y-101261205D01*
X74424463Y-101243424D01*
X74423221Y-101241778D01*
X74411799Y-101248662D01*
X74389084Y-101266505D01*
X74366385Y-101285879D01*
X74311800Y-101326614D01*
X74242321Y-101367617D01*
X74165270Y-101405123D01*
X74087965Y-101435364D01*
X74057113Y-101445012D01*
X73988616Y-101459578D01*
X73905764Y-101469539D01*
X73816371Y-101474583D01*
X73728248Y-101474396D01*
X73649207Y-101468666D01*
X73611511Y-101462858D01*
X73473414Y-101424797D01*
X73346113Y-101367073D01*
X73230292Y-101290211D01*
X73126637Y-101194739D01*
X73035833Y-101081179D01*
X72969031Y-100970381D01*
X72914164Y-100853625D01*
X72872163Y-100734276D01*
X72842167Y-100608283D01*
X72823311Y-100471594D01*
X72814732Y-100320158D01*
X72814006Y-100242711D01*
X72816100Y-100185934D01*
X73645217Y-100185934D01*
X73645424Y-100279002D01*
X73648337Y-100366692D01*
X73654000Y-100443772D01*
X73662455Y-100505009D01*
X73665038Y-100517350D01*
X73696840Y-100624633D01*
X73738498Y-100711658D01*
X73790363Y-100778642D01*
X73852781Y-100825805D01*
X73926100Y-100853365D01*
X74010669Y-100861541D01*
X74106835Y-100850551D01*
X74170311Y-100834829D01*
X74219454Y-100816639D01*
X74273583Y-100790791D01*
X74314244Y-100767089D01*
X74384800Y-100720721D01*
X74384800Y-99570530D01*
X74317392Y-99526962D01*
X74238867Y-99486040D01*
X74154681Y-99459389D01*
X74069557Y-99447465D01*
X73988216Y-99450722D01*
X73915380Y-99469615D01*
X73883426Y-99485184D01*
X73825501Y-99528181D01*
X73776544Y-99584953D01*
X73735390Y-99657575D01*
X73700874Y-99748121D01*
X73671833Y-99858666D01*
X73670552Y-99864533D01*
X73660381Y-99926788D01*
X73652739Y-100004594D01*
X73647670Y-100092720D01*
X73645217Y-100185934D01*
X72816100Y-100185934D01*
X72821857Y-100029895D01*
X72843802Y-99834059D01*
X72879786Y-99655332D01*
X72929759Y-99493845D01*
X72993668Y-99349726D01*
X73071462Y-99223106D01*
X73163089Y-99114115D01*
X73268497Y-99022883D01*
X73313662Y-98991932D01*
X73414611Y-98935785D01*
X73517901Y-98896174D01*
X73627989Y-98872014D01*
X73749330Y-98862219D01*
X73841836Y-98863265D01*
X73971490Y-98874231D01*
X74084084Y-98896046D01*
X74182875Y-98929714D01*
X74271121Y-98976236D01*
X74319986Y-99010448D01*
X74349353Y-99032362D01*
X74371043Y-99047333D01*
X74379253Y-99051733D01*
X74380868Y-99040904D01*
X74382159Y-99010251D01*
X74383138Y-98962526D01*
X74383817Y-98900479D01*
X74384210Y-98826862D01*
X74384330Y-98744427D01*
X74384188Y-98655925D01*
X74383797Y-98564107D01*
X74383171Y-98471724D01*
X74382320Y-98381528D01*
X74381260Y-98296271D01*
X74380001Y-98218703D01*
X74378556Y-98151576D01*
X74376938Y-98097641D01*
X74375161Y-98059650D01*
X74374669Y-98052667D01*
X74367092Y-97982251D01*
X74355531Y-97927102D01*
X74337792Y-97879981D01*
X74311682Y-97833647D01*
X74305415Y-97824067D01*
X74280983Y-97787378D01*
X75186311Y-97787378D01*
X75186507Y-99472245D01*
X75186507Y-99472245D01*
G37*
X75186507Y-99472245D02*
X75186526Y-99706662D01*
X75186552Y-99919603D01*
X75186625Y-100112168D01*
X75186782Y-100285459D01*
X75187064Y-100440576D01*
X75187509Y-100578620D01*
X75188156Y-100700692D01*
X75189045Y-100807894D01*
X75190213Y-100901326D01*
X75191701Y-100982090D01*
X75193546Y-101051286D01*
X75195789Y-101110015D01*
X75198469Y-101159379D01*
X75201623Y-101200478D01*
X75205292Y-101234413D01*
X75209513Y-101262286D01*
X75214327Y-101285198D01*
X75219773Y-101304249D01*
X75225888Y-101320540D01*
X75232712Y-101335173D01*
X75240285Y-101349249D01*
X75248645Y-101363868D01*
X75253839Y-101372974D01*
X75288104Y-101433689D01*
X74429955Y-101433689D01*
X74429955Y-101337733D01*
X74429224Y-101294370D01*
X74427272Y-101261205D01*
X74424463Y-101243424D01*
X74423221Y-101241778D01*
X74411799Y-101248662D01*
X74389084Y-101266505D01*
X74366385Y-101285879D01*
X74311800Y-101326614D01*
X74242321Y-101367617D01*
X74165270Y-101405123D01*
X74087965Y-101435364D01*
X74057113Y-101445012D01*
X73988616Y-101459578D01*
X73905764Y-101469539D01*
X73816371Y-101474583D01*
X73728248Y-101474396D01*
X73649207Y-101468666D01*
X73611511Y-101462858D01*
X73473414Y-101424797D01*
X73346113Y-101367073D01*
X73230292Y-101290211D01*
X73126637Y-101194739D01*
X73035833Y-101081179D01*
X72969031Y-100970381D01*
X72914164Y-100853625D01*
X72872163Y-100734276D01*
X72842167Y-100608283D01*
X72823311Y-100471594D01*
X72814732Y-100320158D01*
X72814006Y-100242711D01*
X72816100Y-100185934D01*
X73645217Y-100185934D01*
X73645424Y-100279002D01*
X73648337Y-100366692D01*
X73654000Y-100443772D01*
X73662455Y-100505009D01*
X73665038Y-100517350D01*
X73696840Y-100624633D01*
X73738498Y-100711658D01*
X73790363Y-100778642D01*
X73852781Y-100825805D01*
X73926100Y-100853365D01*
X74010669Y-100861541D01*
X74106835Y-100850551D01*
X74170311Y-100834829D01*
X74219454Y-100816639D01*
X74273583Y-100790791D01*
X74314244Y-100767089D01*
X74384800Y-100720721D01*
X74384800Y-99570530D01*
X74317392Y-99526962D01*
X74238867Y-99486040D01*
X74154681Y-99459389D01*
X74069557Y-99447465D01*
X73988216Y-99450722D01*
X73915380Y-99469615D01*
X73883426Y-99485184D01*
X73825501Y-99528181D01*
X73776544Y-99584953D01*
X73735390Y-99657575D01*
X73700874Y-99748121D01*
X73671833Y-99858666D01*
X73670552Y-99864533D01*
X73660381Y-99926788D01*
X73652739Y-100004594D01*
X73647670Y-100092720D01*
X73645217Y-100185934D01*
X72816100Y-100185934D01*
X72821857Y-100029895D01*
X72843802Y-99834059D01*
X72879786Y-99655332D01*
X72929759Y-99493845D01*
X72993668Y-99349726D01*
X73071462Y-99223106D01*
X73163089Y-99114115D01*
X73268497Y-99022883D01*
X73313662Y-98991932D01*
X73414611Y-98935785D01*
X73517901Y-98896174D01*
X73627989Y-98872014D01*
X73749330Y-98862219D01*
X73841836Y-98863265D01*
X73971490Y-98874231D01*
X74084084Y-98896046D01*
X74182875Y-98929714D01*
X74271121Y-98976236D01*
X74319986Y-99010448D01*
X74349353Y-99032362D01*
X74371043Y-99047333D01*
X74379253Y-99051733D01*
X74380868Y-99040904D01*
X74382159Y-99010251D01*
X74383138Y-98962526D01*
X74383817Y-98900479D01*
X74384210Y-98826862D01*
X74384330Y-98744427D01*
X74384188Y-98655925D01*
X74383797Y-98564107D01*
X74383171Y-98471724D01*
X74382320Y-98381528D01*
X74381260Y-98296271D01*
X74380001Y-98218703D01*
X74378556Y-98151576D01*
X74376938Y-98097641D01*
X74375161Y-98059650D01*
X74374669Y-98052667D01*
X74367092Y-97982251D01*
X74355531Y-97927102D01*
X74337792Y-97879981D01*
X74311682Y-97833647D01*
X74305415Y-97824067D01*
X74280983Y-97787378D01*
X75186311Y-97787378D01*
X75186507Y-99472245D01*
G36*
X66726957Y-97026571D02*
X66823232Y-97050809D01*
X66909816Y-97093641D01*
X66984627Y-97153419D01*
X67045582Y-97228494D01*
X67090601Y-97317220D01*
X67116864Y-97413530D01*
X67122714Y-97510795D01*
X67107860Y-97604654D01*
X67074160Y-97692511D01*
X67023472Y-97771770D01*
X66957655Y-97839836D01*
X66878566Y-97894112D01*
X66788066Y-97932002D01*
X66736800Y-97944426D01*
X66692302Y-97951947D01*
X66658001Y-97954919D01*
X66625040Y-97953094D01*
X66584566Y-97946225D01*
X66551469Y-97939250D01*
X66458053Y-97907741D01*
X66374381Y-97856617D01*
X66302335Y-97787429D01*
X66243800Y-97701728D01*
X66229852Y-97674489D01*
X66213414Y-97638122D01*
X66203106Y-97607582D01*
X66197540Y-97575450D01*
X66195331Y-97534307D01*
X66195052Y-97488222D01*
X66199139Y-97403865D01*
X66212554Y-97334586D01*
X66237744Y-97273961D01*
X66277154Y-97215567D01*
X66315702Y-97171302D01*
X66387594Y-97105484D01*
X66462687Y-97060053D01*
X66545438Y-97032850D01*
X66623072Y-97022576D01*
X66726957Y-97026571D01*
X66726957Y-97026571D01*
G37*
X66726957Y-97026571D02*
X66823232Y-97050809D01*
X66909816Y-97093641D01*
X66984627Y-97153419D01*
X67045582Y-97228494D01*
X67090601Y-97317220D01*
X67116864Y-97413530D01*
X67122714Y-97510795D01*
X67107860Y-97604654D01*
X67074160Y-97692511D01*
X67023472Y-97771770D01*
X66957655Y-97839836D01*
X66878566Y-97894112D01*
X66788066Y-97932002D01*
X66736800Y-97944426D01*
X66692302Y-97951947D01*
X66658001Y-97954919D01*
X66625040Y-97953094D01*
X66584566Y-97946225D01*
X66551469Y-97939250D01*
X66458053Y-97907741D01*
X66374381Y-97856617D01*
X66302335Y-97787429D01*
X66243800Y-97701728D01*
X66229852Y-97674489D01*
X66213414Y-97638122D01*
X66203106Y-97607582D01*
X66197540Y-97575450D01*
X66195331Y-97534307D01*
X66195052Y-97488222D01*
X66199139Y-97403865D01*
X66212554Y-97334586D01*
X66237744Y-97273961D01*
X66277154Y-97215567D01*
X66315702Y-97171302D01*
X66387594Y-97105484D01*
X66462687Y-97060053D01*
X66545438Y-97032850D01*
X66623072Y-97022576D01*
X66726957Y-97026571D01*
D11*
G04 #@! TO.C,C3*
X64725000Y-89125000D02*
X64725000Y-88125000D01*
X63025000Y-88125000D02*
X63025000Y-89125000D01*
G04 #@! TO.C,C1*
D14*
X68738000Y-94022142D02*
X68701714Y-94058428D01*
X68592857Y-94094714D01*
X68520285Y-94094714D01*
X68411428Y-94058428D01*
X68338857Y-93985857D01*
X68302571Y-93913285D01*
X68266285Y-93768142D01*
X68266285Y-93659285D01*
X68302571Y-93514142D01*
X68338857Y-93441571D01*
X68411428Y-93369000D01*
X68520285Y-93332714D01*
X68592857Y-93332714D01*
X68701714Y-93369000D01*
X68738000Y-93405285D01*
X69463714Y-94094714D02*
X69028285Y-94094714D01*
X69246000Y-94094714D02*
X69246000Y-93332714D01*
X69173428Y-93441571D01*
X69100857Y-93514142D01*
X69028285Y-93550428D01*
G04 #@! TO.C,C2*
X71882000Y-85870142D02*
X71845714Y-85906428D01*
X71736857Y-85942714D01*
X71664285Y-85942714D01*
X71555428Y-85906428D01*
X71482857Y-85833857D01*
X71446571Y-85761285D01*
X71410285Y-85616142D01*
X71410285Y-85507285D01*
X71446571Y-85362142D01*
X71482857Y-85289571D01*
X71555428Y-85217000D01*
X71664285Y-85180714D01*
X71736857Y-85180714D01*
X71845714Y-85217000D01*
X71882000Y-85253285D01*
X72172285Y-85253285D02*
X72208571Y-85217000D01*
X72281142Y-85180714D01*
X72462571Y-85180714D01*
X72535142Y-85217000D01*
X72571428Y-85253285D01*
X72607714Y-85325857D01*
X72607714Y-85398428D01*
X72571428Y-85507285D01*
X72136000Y-85942714D01*
X72607714Y-85942714D01*
G04 #@! TO.C,D1*
X79349714Y-88769428D02*
X78587714Y-88769428D01*
X78587714Y-88588000D01*
X78624000Y-88479142D01*
X78696571Y-88406571D01*
X78769142Y-88370285D01*
X78914285Y-88334000D01*
X79023142Y-88334000D01*
X79168285Y-88370285D01*
X79240857Y-88406571D01*
X79313428Y-88479142D01*
X79349714Y-88588000D01*
X79349714Y-88769428D01*
X79349714Y-87608285D02*
X79349714Y-88043714D01*
X79349714Y-87826000D02*
X78587714Y-87826000D01*
X78696571Y-87898571D01*
X78769142Y-87971142D01*
X78805428Y-88043714D01*
G04 #@! TO.C,D2*
X57314714Y-88827428D02*
X56552714Y-88827428D01*
X56552714Y-88646000D01*
X56589000Y-88537142D01*
X56661571Y-88464571D01*
X56734142Y-88428285D01*
X56879285Y-88392000D01*
X56988142Y-88392000D01*
X57133285Y-88428285D01*
X57205857Y-88464571D01*
X57278428Y-88537142D01*
X57314714Y-88646000D01*
X57314714Y-88827428D01*
X56625285Y-88101714D02*
X56589000Y-88065428D01*
X56552714Y-87992857D01*
X56552714Y-87811428D01*
X56589000Y-87738857D01*
X56625285Y-87702571D01*
X56697857Y-87666285D01*
X56770428Y-87666285D01*
X56879285Y-87702571D01*
X57314714Y-88138000D01*
X57314714Y-87666285D01*
G04 #@! TO.C,R1*
X76855714Y-84646000D02*
X76492857Y-84900000D01*
X76855714Y-85081428D02*
X76093714Y-85081428D01*
X76093714Y-84791142D01*
X76130000Y-84718571D01*
X76166285Y-84682285D01*
X76238857Y-84646000D01*
X76347714Y-84646000D01*
X76420285Y-84682285D01*
X76456571Y-84718571D01*
X76492857Y-84791142D01*
X76492857Y-85081428D01*
X76855714Y-83920285D02*
X76855714Y-84355714D01*
X76855714Y-84138000D02*
X76093714Y-84138000D01*
X76202571Y-84210571D01*
X76275142Y-84283142D01*
X76311428Y-84355714D01*
G04 #@! TO.C,R2*
X79275715Y-92652000D02*
X78912858Y-92906000D01*
X79275715Y-93087428D02*
X78513715Y-93087428D01*
X78513715Y-92797142D01*
X78550001Y-92724571D01*
X78586286Y-92688285D01*
X78658858Y-92652000D01*
X78767715Y-92652000D01*
X78840286Y-92688285D01*
X78876572Y-92724571D01*
X78912858Y-92797142D01*
X78912858Y-93087428D01*
X78586286Y-92361714D02*
X78550001Y-92325428D01*
X78513715Y-92252857D01*
X78513715Y-92071428D01*
X78550001Y-91998857D01*
X78586286Y-91962571D01*
X78658858Y-91926285D01*
X78731429Y-91926285D01*
X78840286Y-91962571D01*
X79275715Y-92398000D01*
X79275715Y-91926285D01*
G04 #@! TO.C,R3*
X76855714Y-88075000D02*
X76492857Y-88329000D01*
X76855714Y-88510428D02*
X76093714Y-88510428D01*
X76093714Y-88220142D01*
X76130000Y-88147571D01*
X76166285Y-88111285D01*
X76238857Y-88075000D01*
X76347714Y-88075000D01*
X76420285Y-88111285D01*
X76456571Y-88147571D01*
X76492857Y-88220142D01*
X76492857Y-88510428D01*
X76093714Y-87821000D02*
X76093714Y-87349285D01*
X76384000Y-87603285D01*
X76384000Y-87494428D01*
X76420285Y-87421857D01*
X76456571Y-87385571D01*
X76529142Y-87349285D01*
X76710571Y-87349285D01*
X76783142Y-87385571D01*
X76819428Y-87421857D01*
X76855714Y-87494428D01*
X76855714Y-87712142D01*
X76819428Y-87784714D01*
X76783142Y-87821000D01*
G04 #@! TO.C,R4*
X57240714Y-92583000D02*
X56877857Y-92837000D01*
X57240714Y-93018428D02*
X56478714Y-93018428D01*
X56478714Y-92728142D01*
X56515000Y-92655571D01*
X56551285Y-92619285D01*
X56623857Y-92583000D01*
X56732714Y-92583000D01*
X56805285Y-92619285D01*
X56841571Y-92655571D01*
X56877857Y-92728142D01*
X56877857Y-93018428D01*
X56732714Y-91929857D02*
X57240714Y-91929857D01*
X56442428Y-92111285D02*
X56986714Y-92292714D01*
X56986714Y-91821000D01*
G04 #@! TO.C,U1*
X65840428Y-85942714D02*
X65840428Y-86559571D01*
X65876714Y-86632142D01*
X65913000Y-86668428D01*
X65985571Y-86704714D01*
X66130714Y-86704714D01*
X66203285Y-86668428D01*
X66239571Y-86632142D01*
X66275857Y-86559571D01*
X66275857Y-85942714D01*
X67037857Y-86704714D02*
X66602428Y-86704714D01*
X66820142Y-86704714D02*
X66820142Y-85942714D01*
X66747571Y-86051571D01*
X66675000Y-86124142D01*
X66602428Y-86160428D01*
G04 #@! TO.C,C3*
X62502142Y-88773000D02*
X62538428Y-88809285D01*
X62574714Y-88918142D01*
X62574714Y-88990714D01*
X62538428Y-89099571D01*
X62465857Y-89172142D01*
X62393285Y-89208428D01*
X62248142Y-89244714D01*
X62139285Y-89244714D01*
X61994142Y-89208428D01*
X61921571Y-89172142D01*
X61849000Y-89099571D01*
X61812714Y-88990714D01*
X61812714Y-88918142D01*
X61849000Y-88809285D01*
X61885285Y-88773000D01*
X61812714Y-88519000D02*
X61812714Y-88047285D01*
X62103000Y-88301285D01*
X62103000Y-88192428D01*
X62139285Y-88119857D01*
X62175571Y-88083571D01*
X62248142Y-88047285D01*
X62429571Y-88047285D01*
X62502142Y-88083571D01*
X62538428Y-88119857D01*
X62574714Y-88192428D01*
X62574714Y-88410142D01*
X62538428Y-88482714D01*
X62502142Y-88519000D01*
G04 #@! TD*
M02*
