G04 #@! TF.GenerationSoftware,KiCad,Pcbnew,(5.0.0)*
G04 #@! TF.CreationDate,2018-09-15T12:16:20+02:00*
G04 #@! TF.ProjectId,Blinky,426C696E6B792E6B696361645F706362,rev?*
G04 #@! TF.SameCoordinates,Original*
G04 #@! TF.FileFunction,Copper,L1,Top,Signal*
G04 #@! TF.FilePolarity,Positive*
%FSLAX46Y46*%
G04 Gerber Fmt 4.6, Leading zero omitted, Abs format (unit mm)*
G04 Created by KiCad (PCBNEW (5.0.0)) date 09/15/18 12:16:20*
%MOMM*%
%LPD*%
G01*
G04 APERTURE LIST*
G04 #@! TA.AperFunction,SMDPad,CuDef*
%ADD10R,1.000000X1.250000*%
G04 #@! TD*
G04 #@! TA.AperFunction,SMDPad,CuDef*
%ADD11R,1.200000X1.200000*%
G04 #@! TD*
G04 #@! TA.AperFunction,SMDPad,CuDef*
%ADD12R,1.300000X0.700000*%
G04 #@! TD*
G04 #@! TA.AperFunction,SMDPad,CuDef*
%ADD13R,1.550000X0.600000*%
G04 #@! TD*
G04 #@! TA.AperFunction,SMDPad,CuDef*
%ADD14R,1.250000X1.000000*%
G04 #@! TD*
G04 #@! TA.AperFunction,ViaPad*
%ADD15C,0.685800*%
G04 #@! TD*
G04 #@! TA.AperFunction,Conductor*
%ADD16C,0.152400*%
G04 #@! TD*
G04 #@! TA.AperFunction,Conductor*
%ADD17C,0.254000*%
G04 #@! TD*
G04 APERTURE END LIST*
D10*
G04 #@! TO.P,C1,2*
G04 #@! TO.N,GND*
X70374000Y-93726000D03*
G04 #@! TO.P,C1,1*
G04 #@! TO.N,/Cv*
X72374000Y-93726000D03*
G04 #@! TD*
G04 #@! TO.P,C2,1*
G04 #@! TO.N,/Vcc*
X70469000Y-85598000D03*
G04 #@! TO.P,C2,2*
G04 #@! TO.N,GND*
X68469000Y-85598000D03*
G04 #@! TD*
D11*
G04 #@! TO.P,D1,2*
G04 #@! TO.N,/Vcc*
X80455000Y-87107000D03*
G04 #@! TO.P,D1,1*
G04 #@! TO.N,Net-(D1-Pad1)*
X80455000Y-89307000D03*
G04 #@! TD*
G04 #@! TO.P,D2,1*
G04 #@! TO.N,Net-(D2-Pad1)*
X58420000Y-89365000D03*
G04 #@! TO.P,D2,2*
G04 #@! TO.N,Net-(D2-Pad2)*
X58420000Y-87165000D03*
G04 #@! TD*
D12*
G04 #@! TO.P,R1,2*
G04 #@! TO.N,Net-(R1-Pad2)*
X74861000Y-85469000D03*
G04 #@! TO.P,R1,1*
G04 #@! TO.N,/Vcc*
X74861000Y-83569000D03*
G04 #@! TD*
G04 #@! TO.P,R2,1*
G04 #@! TO.N,Net-(D1-Pad1)*
X80455001Y-91575000D03*
G04 #@! TO.P,R2,2*
G04 #@! TO.N,Net-(D2-Pad2)*
X80455001Y-93475000D03*
G04 #@! TD*
G04 #@! TO.P,R3,1*
G04 #@! TO.N,Net-(R1-Pad2)*
X74861000Y-86998000D03*
G04 #@! TO.P,R3,2*
G04 #@! TO.N,Net-(C3-Pad1)*
X74861000Y-88898000D03*
G04 #@! TD*
G04 #@! TO.P,R4,2*
G04 #@! TO.N,GND*
X58420000Y-93406000D03*
G04 #@! TO.P,R4,1*
G04 #@! TO.N,Net-(D2-Pad1)*
X58420000Y-91506000D03*
G04 #@! TD*
D13*
G04 #@! TO.P,U1,8*
G04 #@! TO.N,/Vcc*
X72296000Y-87630000D03*
G04 #@! TO.P,U1,7*
G04 #@! TO.N,Net-(R1-Pad2)*
X72296000Y-88900000D03*
G04 #@! TO.P,U1,6*
G04 #@! TO.N,Net-(C3-Pad1)*
X72296000Y-90170000D03*
G04 #@! TO.P,U1,5*
G04 #@! TO.N,/Cv*
X72296000Y-91440000D03*
G04 #@! TO.P,U1,4*
G04 #@! TO.N,/Vcc*
X66896000Y-91440000D03*
G04 #@! TO.P,U1,3*
G04 #@! TO.N,Net-(D2-Pad2)*
X66896000Y-90170000D03*
G04 #@! TO.P,U1,2*
G04 #@! TO.N,Net-(C3-Pad1)*
X66896000Y-88900000D03*
G04 #@! TO.P,U1,1*
G04 #@! TO.N,GND*
X66896000Y-87630000D03*
G04 #@! TD*
D14*
G04 #@! TO.P,C3,2*
G04 #@! TO.N,GND*
X63875000Y-87625000D03*
G04 #@! TO.P,C3,1*
G04 #@! TO.N,Net-(C3-Pad1)*
X63875000Y-89625000D03*
G04 #@! TD*
D15*
G04 #@! TO.N,GND*
X69500000Y-92050000D03*
G04 #@! TO.N,/Vcc*
X71875000Y-85600000D03*
X73375000Y-83575000D03*
X81800000Y-86475000D03*
X66929000Y-92710000D03*
G04 #@! TD*
D16*
G04 #@! TO.N,Net-(D1-Pad1)*
X80455001Y-91072600D02*
X80455001Y-91575000D01*
X80455000Y-89307000D02*
X80455001Y-91072600D01*
G04 #@! TO.N,Net-(D2-Pad1)*
X58420000Y-90117400D02*
X58420000Y-91506000D01*
X58420000Y-89365000D02*
X58420000Y-90117400D01*
G04 #@! TO.N,Net-(D2-Pad2)*
X59172400Y-87165000D02*
X63032400Y-91025000D01*
X58420000Y-87165000D02*
X59172400Y-87165000D01*
X65968600Y-90170000D02*
X66896000Y-90170000D01*
X65113600Y-91025000D02*
X65968600Y-90170000D01*
X63032400Y-91025000D02*
X65113600Y-91025000D01*
X77089000Y-90911399D02*
X79652601Y-93475000D01*
X71039856Y-90929811D02*
X71058268Y-90911399D01*
X71058268Y-90911399D02*
X77089000Y-90911399D01*
X67938933Y-90170000D02*
X68698744Y-90929811D01*
X66896000Y-90170000D02*
X67938933Y-90170000D01*
X79652601Y-93475000D02*
X80455001Y-93475000D01*
X68698744Y-90929811D02*
X71039856Y-90929811D01*
G04 #@! TO.N,Net-(R1-Pad2)*
X74861000Y-85971400D02*
X74861000Y-86998000D01*
X74861000Y-85469000D02*
X74861000Y-85971400D01*
X72659000Y-88900000D02*
X72296000Y-88900000D01*
X74561000Y-86998000D02*
X72659000Y-88900000D01*
X74861000Y-86998000D02*
X74561000Y-86998000D01*
G04 #@! TO.N,/Vcc*
X72296000Y-87177600D02*
X72296000Y-87630000D01*
X72296000Y-86772600D02*
X72296000Y-87177600D01*
X71121400Y-85598000D02*
X72296000Y-86772600D01*
X70469000Y-85598000D02*
X71121400Y-85598000D01*
X70469000Y-85598000D02*
X71873000Y-85598000D01*
X71873000Y-85598000D02*
X71875000Y-85600000D01*
X74861000Y-83569000D02*
X73381000Y-83569000D01*
X73381000Y-83569000D02*
X73375000Y-83575000D01*
X81800000Y-86514400D02*
X81800000Y-86475000D01*
X80455000Y-87107000D02*
X81207400Y-87107000D01*
X81207400Y-87107000D02*
X81800000Y-86514400D01*
X66896000Y-91440000D02*
X66896000Y-92677000D01*
X66896000Y-92677000D02*
X66929000Y-92710000D01*
G04 #@! TO.N,Net-(C3-Pad1)*
X74861000Y-89400400D02*
X74861000Y-88898000D01*
X74091400Y-90170000D02*
X74861000Y-89400400D01*
X72296000Y-90170000D02*
X74091400Y-90170000D01*
X66421000Y-89375000D02*
X66896000Y-88900000D01*
X64250000Y-89375000D02*
X66421000Y-89375000D01*
X63875000Y-89625000D02*
X64000000Y-89625000D01*
X64000000Y-89625000D02*
X64250000Y-89375000D01*
X70913600Y-90625000D02*
X71368600Y-90170000D01*
X71368600Y-90170000D02*
X72296000Y-90170000D01*
X67100000Y-88900000D02*
X68825000Y-90625000D01*
X66896000Y-88900000D02*
X67100000Y-88900000D01*
X68825000Y-90625000D02*
X70913600Y-90625000D01*
G04 #@! TO.N,/Cv*
X72296000Y-93648000D02*
X72374000Y-93726000D01*
X72296000Y-91440000D02*
X72296000Y-93648000D01*
G04 #@! TD*
D17*
G04 #@! TO.N,GND*
G36*
X83645600Y-83646797D02*
X83645601Y-95353202D01*
X75353204Y-103645600D01*
X63646797Y-103645600D01*
X61846165Y-101844968D01*
X66720600Y-101844968D01*
X66720600Y-102155032D01*
X66839257Y-102441494D01*
X67058506Y-102660743D01*
X67344968Y-102779400D01*
X67655032Y-102779400D01*
X67941494Y-102660743D01*
X68160743Y-102441494D01*
X68279400Y-102155032D01*
X68279400Y-101844968D01*
X69720600Y-101844968D01*
X69720600Y-102155032D01*
X69839257Y-102441494D01*
X70058506Y-102660743D01*
X70344968Y-102779400D01*
X70655032Y-102779400D01*
X70941494Y-102660743D01*
X71160743Y-102441494D01*
X71279400Y-102155032D01*
X71279400Y-101844968D01*
X71160743Y-101558506D01*
X70941494Y-101339257D01*
X70655032Y-101220600D01*
X70344968Y-101220600D01*
X70058506Y-101339257D01*
X69839257Y-101558506D01*
X69720600Y-101844968D01*
X68279400Y-101844968D01*
X68160743Y-101558506D01*
X67941494Y-101339257D01*
X67655032Y-101220600D01*
X67344968Y-101220600D01*
X67058506Y-101339257D01*
X66839257Y-101558506D01*
X66720600Y-101844968D01*
X61846165Y-101844968D01*
X55354400Y-95353204D01*
X55354400Y-93691750D01*
X57135000Y-93691750D01*
X57135000Y-93882309D01*
X57231673Y-94115698D01*
X57410301Y-94294327D01*
X57643690Y-94391000D01*
X58134250Y-94391000D01*
X58293000Y-94232250D01*
X58293000Y-93533000D01*
X58547000Y-93533000D01*
X58547000Y-94232250D01*
X58705750Y-94391000D01*
X59196310Y-94391000D01*
X59429699Y-94294327D01*
X59608327Y-94115698D01*
X59651383Y-94011750D01*
X69239000Y-94011750D01*
X69239000Y-94477310D01*
X69335673Y-94710699D01*
X69514302Y-94889327D01*
X69747691Y-94986000D01*
X70088250Y-94986000D01*
X70247000Y-94827250D01*
X70247000Y-93853000D01*
X70501000Y-93853000D01*
X70501000Y-94827250D01*
X70659750Y-94986000D01*
X71000309Y-94986000D01*
X71233698Y-94889327D01*
X71412327Y-94710699D01*
X71509000Y-94477310D01*
X71509000Y-94011750D01*
X71350250Y-93853000D01*
X70501000Y-93853000D01*
X70247000Y-93853000D01*
X69397750Y-93853000D01*
X69239000Y-94011750D01*
X59651383Y-94011750D01*
X59705000Y-93882309D01*
X59705000Y-93691750D01*
X59546250Y-93533000D01*
X58547000Y-93533000D01*
X58293000Y-93533000D01*
X57293750Y-93533000D01*
X57135000Y-93691750D01*
X55354400Y-93691750D01*
X55354400Y-92929691D01*
X57135000Y-92929691D01*
X57135000Y-93120250D01*
X57293750Y-93279000D01*
X58293000Y-93279000D01*
X58293000Y-92579750D01*
X58547000Y-92579750D01*
X58547000Y-93279000D01*
X59546250Y-93279000D01*
X59705000Y-93120250D01*
X59705000Y-92929691D01*
X59608327Y-92696302D01*
X59429699Y-92517673D01*
X59196310Y-92421000D01*
X58705750Y-92421000D01*
X58547000Y-92579750D01*
X58293000Y-92579750D01*
X58134250Y-92421000D01*
X57643690Y-92421000D01*
X57410301Y-92517673D01*
X57231673Y-92696302D01*
X57135000Y-92929691D01*
X55354400Y-92929691D01*
X55354400Y-91156000D01*
X57485127Y-91156000D01*
X57485127Y-91856000D01*
X57506812Y-91965016D01*
X57568564Y-92057436D01*
X57660984Y-92119188D01*
X57770000Y-92140873D01*
X59070000Y-92140873D01*
X59179016Y-92119188D01*
X59271436Y-92057436D01*
X59333188Y-91965016D01*
X59354873Y-91856000D01*
X59354873Y-91156000D01*
X59333188Y-91046984D01*
X59271436Y-90954564D01*
X59179016Y-90892812D01*
X59070000Y-90871127D01*
X58775600Y-90871127D01*
X58775600Y-90249873D01*
X59020000Y-90249873D01*
X59129016Y-90228188D01*
X59221436Y-90166436D01*
X59283188Y-90074016D01*
X59304873Y-89965000D01*
X59304873Y-88765000D01*
X59283188Y-88655984D01*
X59221436Y-88563564D01*
X59129016Y-88501812D01*
X59020000Y-88480127D01*
X57820000Y-88480127D01*
X57710984Y-88501812D01*
X57618564Y-88563564D01*
X57556812Y-88655984D01*
X57535127Y-88765000D01*
X57535127Y-89965000D01*
X57556812Y-90074016D01*
X57618564Y-90166436D01*
X57710984Y-90228188D01*
X57820000Y-90249873D01*
X58064400Y-90249873D01*
X58064401Y-90871127D01*
X57770000Y-90871127D01*
X57660984Y-90892812D01*
X57568564Y-90954564D01*
X57506812Y-91046984D01*
X57485127Y-91156000D01*
X55354400Y-91156000D01*
X55354400Y-86565000D01*
X57535127Y-86565000D01*
X57535127Y-87765000D01*
X57556812Y-87874016D01*
X57618564Y-87966436D01*
X57710984Y-88028188D01*
X57820000Y-88049873D01*
X59020000Y-88049873D01*
X59129016Y-88028188D01*
X59221436Y-87966436D01*
X59283188Y-87874016D01*
X59299005Y-87794499D01*
X62756189Y-91251683D01*
X62776027Y-91281373D01*
X62893652Y-91359967D01*
X62997380Y-91380600D01*
X62997384Y-91380600D01*
X63032399Y-91387565D01*
X63067414Y-91380600D01*
X65078580Y-91380600D01*
X65113600Y-91387566D01*
X65148620Y-91380600D01*
X65252348Y-91359967D01*
X65369973Y-91281373D01*
X65389811Y-91251683D01*
X65501494Y-91140000D01*
X65836127Y-91140000D01*
X65836127Y-91740000D01*
X65857812Y-91849016D01*
X65919564Y-91941436D01*
X66011984Y-92003188D01*
X66121000Y-92024873D01*
X66540400Y-92024873D01*
X66540401Y-92218533D01*
X66401439Y-92357495D01*
X66306700Y-92586217D01*
X66306700Y-92833783D01*
X66401439Y-93062505D01*
X66576495Y-93237561D01*
X66805217Y-93332300D01*
X67052783Y-93332300D01*
X67281505Y-93237561D01*
X67456561Y-93062505D01*
X67492934Y-92974690D01*
X69239000Y-92974690D01*
X69239000Y-93440250D01*
X69397750Y-93599000D01*
X70247000Y-93599000D01*
X70247000Y-92624750D01*
X70501000Y-92624750D01*
X70501000Y-93599000D01*
X71350250Y-93599000D01*
X71509000Y-93440250D01*
X71509000Y-92974690D01*
X71412327Y-92741301D01*
X71233698Y-92562673D01*
X71000309Y-92466000D01*
X70659750Y-92466000D01*
X70501000Y-92624750D01*
X70247000Y-92624750D01*
X70088250Y-92466000D01*
X69747691Y-92466000D01*
X69514302Y-92562673D01*
X69335673Y-92741301D01*
X69239000Y-92974690D01*
X67492934Y-92974690D01*
X67551300Y-92833783D01*
X67551300Y-92586217D01*
X67456561Y-92357495D01*
X67281505Y-92182439D01*
X67251600Y-92170052D01*
X67251600Y-92024873D01*
X67671000Y-92024873D01*
X67780016Y-92003188D01*
X67872436Y-91941436D01*
X67934188Y-91849016D01*
X67955873Y-91740000D01*
X67955873Y-91140000D01*
X67934188Y-91030984D01*
X67872436Y-90938564D01*
X67780016Y-90876812D01*
X67671000Y-90855127D01*
X66121000Y-90855127D01*
X66011984Y-90876812D01*
X65919564Y-90938564D01*
X65857812Y-91030984D01*
X65836127Y-91140000D01*
X65501494Y-91140000D01*
X65949834Y-90691661D01*
X66011984Y-90733188D01*
X66121000Y-90754873D01*
X67671000Y-90754873D01*
X67780016Y-90733188D01*
X67872436Y-90671436D01*
X67898487Y-90632448D01*
X68422535Y-91156497D01*
X68442371Y-91186184D01*
X68472058Y-91206020D01*
X68472059Y-91206021D01*
X68559996Y-91264778D01*
X68698743Y-91292377D01*
X68733763Y-91285411D01*
X71004836Y-91285411D01*
X71039856Y-91292377D01*
X71074876Y-91285411D01*
X71167438Y-91266999D01*
X71236127Y-91266999D01*
X71236127Y-91740000D01*
X71257812Y-91849016D01*
X71319564Y-91941436D01*
X71411984Y-92003188D01*
X71521000Y-92024873D01*
X71940400Y-92024873D01*
X71940401Y-92816127D01*
X71874000Y-92816127D01*
X71764984Y-92837812D01*
X71672564Y-92899564D01*
X71610812Y-92991984D01*
X71589127Y-93101000D01*
X71589127Y-94351000D01*
X71610812Y-94460016D01*
X71672564Y-94552436D01*
X71764984Y-94614188D01*
X71874000Y-94635873D01*
X72874000Y-94635873D01*
X72983016Y-94614188D01*
X73075436Y-94552436D01*
X73137188Y-94460016D01*
X73158873Y-94351000D01*
X73158873Y-93101000D01*
X73137188Y-92991984D01*
X73075436Y-92899564D01*
X72983016Y-92837812D01*
X72874000Y-92816127D01*
X72651600Y-92816127D01*
X72651600Y-92024873D01*
X73071000Y-92024873D01*
X73180016Y-92003188D01*
X73272436Y-91941436D01*
X73334188Y-91849016D01*
X73355873Y-91740000D01*
X73355873Y-91266999D01*
X76941706Y-91266999D01*
X79376390Y-93701683D01*
X79396228Y-93731373D01*
X79513853Y-93809967D01*
X79520128Y-93811215D01*
X79520128Y-93825000D01*
X79541813Y-93934016D01*
X79603565Y-94026436D01*
X79695985Y-94088188D01*
X79805001Y-94109873D01*
X81105001Y-94109873D01*
X81214017Y-94088188D01*
X81306437Y-94026436D01*
X81368189Y-93934016D01*
X81389874Y-93825000D01*
X81389874Y-93125000D01*
X81368189Y-93015984D01*
X81306437Y-92923564D01*
X81214017Y-92861812D01*
X81105001Y-92840127D01*
X79805001Y-92840127D01*
X79695985Y-92861812D01*
X79603861Y-92923366D01*
X77905495Y-91225000D01*
X79520128Y-91225000D01*
X79520128Y-91925000D01*
X79541813Y-92034016D01*
X79603565Y-92126436D01*
X79695985Y-92188188D01*
X79805001Y-92209873D01*
X81105001Y-92209873D01*
X81214017Y-92188188D01*
X81306437Y-92126436D01*
X81368189Y-92034016D01*
X81389874Y-91925000D01*
X81389874Y-91225000D01*
X81368189Y-91115984D01*
X81306437Y-91023564D01*
X81214017Y-90961812D01*
X81105001Y-90940127D01*
X80810601Y-90940127D01*
X80810600Y-90191873D01*
X81055000Y-90191873D01*
X81164016Y-90170188D01*
X81256436Y-90108436D01*
X81318188Y-90016016D01*
X81339873Y-89907000D01*
X81339873Y-88707000D01*
X81318188Y-88597984D01*
X81256436Y-88505564D01*
X81164016Y-88443812D01*
X81055000Y-88422127D01*
X79855000Y-88422127D01*
X79745984Y-88443812D01*
X79653564Y-88505564D01*
X79591812Y-88597984D01*
X79570127Y-88707000D01*
X79570127Y-89907000D01*
X79591812Y-90016016D01*
X79653564Y-90108436D01*
X79745984Y-90170188D01*
X79855000Y-90191873D01*
X80099401Y-90191873D01*
X80099402Y-90940127D01*
X79805001Y-90940127D01*
X79695985Y-90961812D01*
X79603565Y-91023564D01*
X79541813Y-91115984D01*
X79520128Y-91225000D01*
X77905495Y-91225000D01*
X77365211Y-90684716D01*
X77345373Y-90655026D01*
X77227748Y-90576432D01*
X77124020Y-90555799D01*
X77089000Y-90548833D01*
X77053980Y-90555799D01*
X73338806Y-90555799D01*
X73344813Y-90525600D01*
X74056380Y-90525600D01*
X74091400Y-90532566D01*
X74126420Y-90525600D01*
X74230148Y-90504967D01*
X74347773Y-90426373D01*
X74367611Y-90396683D01*
X75087688Y-89676607D01*
X75117372Y-89656773D01*
X75137207Y-89627088D01*
X75137210Y-89627085D01*
X75195967Y-89539148D01*
X75197215Y-89532873D01*
X75511000Y-89532873D01*
X75620016Y-89511188D01*
X75712436Y-89449436D01*
X75774188Y-89357016D01*
X75795873Y-89248000D01*
X75795873Y-88548000D01*
X75774188Y-88438984D01*
X75712436Y-88346564D01*
X75620016Y-88284812D01*
X75511000Y-88263127D01*
X74211000Y-88263127D01*
X74101984Y-88284812D01*
X74009564Y-88346564D01*
X73947812Y-88438984D01*
X73926127Y-88548000D01*
X73926127Y-89248000D01*
X73947812Y-89357016D01*
X74009564Y-89449436D01*
X74101984Y-89511188D01*
X74211000Y-89532873D01*
X74225632Y-89532873D01*
X73944106Y-89814400D01*
X73344813Y-89814400D01*
X73334188Y-89760984D01*
X73272436Y-89668564D01*
X73180016Y-89606812D01*
X73071000Y-89585127D01*
X71521000Y-89585127D01*
X71411984Y-89606812D01*
X71319564Y-89668564D01*
X71257812Y-89760984D01*
X71243628Y-89832293D01*
X71229852Y-89835033D01*
X71112227Y-89913627D01*
X71092390Y-89943316D01*
X70766306Y-90269400D01*
X68972294Y-90269400D01*
X67947083Y-89244189D01*
X67955873Y-89200000D01*
X67955873Y-88600000D01*
X67937371Y-88506984D01*
X68030698Y-88468327D01*
X68209327Y-88289699D01*
X68306000Y-88056310D01*
X68306000Y-87915750D01*
X68147250Y-87757000D01*
X67023000Y-87757000D01*
X67023000Y-87777000D01*
X66769000Y-87777000D01*
X66769000Y-87757000D01*
X65644750Y-87757000D01*
X65486000Y-87915750D01*
X65486000Y-88056310D01*
X65582673Y-88289699D01*
X65761302Y-88468327D01*
X65854629Y-88506984D01*
X65836127Y-88600000D01*
X65836127Y-89019400D01*
X64763867Y-89019400D01*
X64763188Y-89015984D01*
X64701436Y-88923564D01*
X64609016Y-88861812D01*
X64500000Y-88840127D01*
X63250000Y-88840127D01*
X63140984Y-88861812D01*
X63048564Y-88923564D01*
X62986812Y-89015984D01*
X62965127Y-89125000D01*
X62965127Y-90125000D01*
X62986812Y-90234016D01*
X63048564Y-90326436D01*
X63140984Y-90388188D01*
X63250000Y-90409873D01*
X64500000Y-90409873D01*
X64609016Y-90388188D01*
X64701436Y-90326436D01*
X64763188Y-90234016D01*
X64784873Y-90125000D01*
X64784873Y-89730600D01*
X65878114Y-89730600D01*
X65857812Y-89760984D01*
X65843628Y-89832293D01*
X65829852Y-89835033D01*
X65712227Y-89913627D01*
X65692391Y-89943314D01*
X64966306Y-90669400D01*
X63179694Y-90669400D01*
X60421044Y-87910750D01*
X62615000Y-87910750D01*
X62615000Y-88251309D01*
X62711673Y-88484698D01*
X62890301Y-88663327D01*
X63123690Y-88760000D01*
X63589250Y-88760000D01*
X63748000Y-88601250D01*
X63748000Y-87752000D01*
X64002000Y-87752000D01*
X64002000Y-88601250D01*
X64160750Y-88760000D01*
X64626310Y-88760000D01*
X64859699Y-88663327D01*
X65038327Y-88484698D01*
X65135000Y-88251309D01*
X65135000Y-87910750D01*
X64976250Y-87752000D01*
X64002000Y-87752000D01*
X63748000Y-87752000D01*
X62773750Y-87752000D01*
X62615000Y-87910750D01*
X60421044Y-87910750D01*
X59508985Y-86998691D01*
X62615000Y-86998691D01*
X62615000Y-87339250D01*
X62773750Y-87498000D01*
X63748000Y-87498000D01*
X63748000Y-86648750D01*
X64002000Y-86648750D01*
X64002000Y-87498000D01*
X64976250Y-87498000D01*
X65135000Y-87339250D01*
X65135000Y-87203690D01*
X65486000Y-87203690D01*
X65486000Y-87344250D01*
X65644750Y-87503000D01*
X66769000Y-87503000D01*
X66769000Y-86853750D01*
X67023000Y-86853750D01*
X67023000Y-87503000D01*
X68147250Y-87503000D01*
X68306000Y-87344250D01*
X68306000Y-87203690D01*
X68209327Y-86970301D01*
X68097025Y-86858000D01*
X68183250Y-86858000D01*
X68342000Y-86699250D01*
X68342000Y-85725000D01*
X68596000Y-85725000D01*
X68596000Y-86699250D01*
X68754750Y-86858000D01*
X69095309Y-86858000D01*
X69328698Y-86761327D01*
X69507327Y-86582699D01*
X69604000Y-86349310D01*
X69604000Y-85883750D01*
X69445250Y-85725000D01*
X68596000Y-85725000D01*
X68342000Y-85725000D01*
X67492750Y-85725000D01*
X67334000Y-85883750D01*
X67334000Y-86349310D01*
X67430673Y-86582699D01*
X67542975Y-86695000D01*
X67181750Y-86695000D01*
X67023000Y-86853750D01*
X66769000Y-86853750D01*
X66610250Y-86695000D01*
X65994691Y-86695000D01*
X65761302Y-86791673D01*
X65582673Y-86970301D01*
X65486000Y-87203690D01*
X65135000Y-87203690D01*
X65135000Y-86998691D01*
X65038327Y-86765302D01*
X64859699Y-86586673D01*
X64626310Y-86490000D01*
X64160750Y-86490000D01*
X64002000Y-86648750D01*
X63748000Y-86648750D01*
X63589250Y-86490000D01*
X63123690Y-86490000D01*
X62890301Y-86586673D01*
X62711673Y-86765302D01*
X62615000Y-86998691D01*
X59508985Y-86998691D01*
X59448611Y-86938317D01*
X59428773Y-86908627D01*
X59311148Y-86830033D01*
X59304873Y-86828785D01*
X59304873Y-86565000D01*
X59283188Y-86455984D01*
X59221436Y-86363564D01*
X59129016Y-86301812D01*
X59020000Y-86280127D01*
X57820000Y-86280127D01*
X57710984Y-86301812D01*
X57618564Y-86363564D01*
X57556812Y-86455984D01*
X57535127Y-86565000D01*
X55354400Y-86565000D01*
X55354400Y-84846690D01*
X67334000Y-84846690D01*
X67334000Y-85312250D01*
X67492750Y-85471000D01*
X68342000Y-85471000D01*
X68342000Y-84496750D01*
X68596000Y-84496750D01*
X68596000Y-85471000D01*
X69445250Y-85471000D01*
X69604000Y-85312250D01*
X69604000Y-84973000D01*
X69684127Y-84973000D01*
X69684127Y-86223000D01*
X69705812Y-86332016D01*
X69767564Y-86424436D01*
X69859984Y-86486188D01*
X69969000Y-86507873D01*
X70969000Y-86507873D01*
X71078016Y-86486188D01*
X71170436Y-86424436D01*
X71232188Y-86332016D01*
X71252153Y-86231647D01*
X71940400Y-86919894D01*
X71940400Y-87045127D01*
X71521000Y-87045127D01*
X71411984Y-87066812D01*
X71319564Y-87128564D01*
X71257812Y-87220984D01*
X71236127Y-87330000D01*
X71236127Y-87930000D01*
X71257812Y-88039016D01*
X71319564Y-88131436D01*
X71411984Y-88193188D01*
X71521000Y-88214873D01*
X72841233Y-88214873D01*
X72740979Y-88315127D01*
X71521000Y-88315127D01*
X71411984Y-88336812D01*
X71319564Y-88398564D01*
X71257812Y-88490984D01*
X71236127Y-88600000D01*
X71236127Y-89200000D01*
X71257812Y-89309016D01*
X71319564Y-89401436D01*
X71411984Y-89463188D01*
X71521000Y-89484873D01*
X73071000Y-89484873D01*
X73180016Y-89463188D01*
X73272436Y-89401436D01*
X73334188Y-89309016D01*
X73355873Y-89200000D01*
X73355873Y-88706021D01*
X74429021Y-87632873D01*
X75511000Y-87632873D01*
X75620016Y-87611188D01*
X75712436Y-87549436D01*
X75774188Y-87457016D01*
X75795873Y-87348000D01*
X75795873Y-86648000D01*
X75774188Y-86538984D01*
X75752818Y-86507000D01*
X79570127Y-86507000D01*
X79570127Y-87707000D01*
X79591812Y-87816016D01*
X79653564Y-87908436D01*
X79745984Y-87970188D01*
X79855000Y-87991873D01*
X81055000Y-87991873D01*
X81164016Y-87970188D01*
X81256436Y-87908436D01*
X81318188Y-87816016D01*
X81339873Y-87707000D01*
X81339873Y-87443215D01*
X81346148Y-87441967D01*
X81463773Y-87363373D01*
X81483611Y-87333683D01*
X81719994Y-87097300D01*
X81923783Y-87097300D01*
X82152505Y-87002561D01*
X82327561Y-86827505D01*
X82422300Y-86598783D01*
X82422300Y-86351217D01*
X82327561Y-86122495D01*
X82152505Y-85947439D01*
X81923783Y-85852700D01*
X81676217Y-85852700D01*
X81447495Y-85947439D01*
X81272439Y-86122495D01*
X81209578Y-86274255D01*
X81164016Y-86243812D01*
X81055000Y-86222127D01*
X79855000Y-86222127D01*
X79745984Y-86243812D01*
X79653564Y-86305564D01*
X79591812Y-86397984D01*
X79570127Y-86507000D01*
X75752818Y-86507000D01*
X75712436Y-86446564D01*
X75620016Y-86384812D01*
X75511000Y-86363127D01*
X75216600Y-86363127D01*
X75216600Y-86103873D01*
X75511000Y-86103873D01*
X75620016Y-86082188D01*
X75712436Y-86020436D01*
X75774188Y-85928016D01*
X75795873Y-85819000D01*
X75795873Y-85119000D01*
X75774188Y-85009984D01*
X75712436Y-84917564D01*
X75620016Y-84855812D01*
X75511000Y-84834127D01*
X74211000Y-84834127D01*
X74101984Y-84855812D01*
X74009564Y-84917564D01*
X73947812Y-85009984D01*
X73926127Y-85119000D01*
X73926127Y-85819000D01*
X73947812Y-85928016D01*
X74009564Y-86020436D01*
X74101984Y-86082188D01*
X74211000Y-86103873D01*
X74505400Y-86103873D01*
X74505400Y-86363127D01*
X74211000Y-86363127D01*
X74101984Y-86384812D01*
X74009564Y-86446564D01*
X73947812Y-86538984D01*
X73926127Y-86648000D01*
X73926127Y-87129979D01*
X73355873Y-87700233D01*
X73355873Y-87330000D01*
X73334188Y-87220984D01*
X73272436Y-87128564D01*
X73180016Y-87066812D01*
X73071000Y-87045127D01*
X72651600Y-87045127D01*
X72651600Y-86807614D01*
X72658565Y-86772599D01*
X72651600Y-86737584D01*
X72651600Y-86737580D01*
X72630967Y-86633852D01*
X72552372Y-86516227D01*
X72522685Y-86496391D01*
X72175426Y-86149132D01*
X72227505Y-86127561D01*
X72402561Y-85952505D01*
X72497300Y-85723783D01*
X72497300Y-85476217D01*
X72402561Y-85247495D01*
X72227505Y-85072439D01*
X71998783Y-84977700D01*
X71751217Y-84977700D01*
X71522495Y-85072439D01*
X71352534Y-85242400D01*
X71253873Y-85242400D01*
X71253873Y-84973000D01*
X71232188Y-84863984D01*
X71170436Y-84771564D01*
X71078016Y-84709812D01*
X70969000Y-84688127D01*
X69969000Y-84688127D01*
X69859984Y-84709812D01*
X69767564Y-84771564D01*
X69705812Y-84863984D01*
X69684127Y-84973000D01*
X69604000Y-84973000D01*
X69604000Y-84846690D01*
X69507327Y-84613301D01*
X69328698Y-84434673D01*
X69095309Y-84338000D01*
X68754750Y-84338000D01*
X68596000Y-84496750D01*
X68342000Y-84496750D01*
X68183250Y-84338000D01*
X67842691Y-84338000D01*
X67609302Y-84434673D01*
X67430673Y-84613301D01*
X67334000Y-84846690D01*
X55354400Y-84846690D01*
X55354400Y-83646796D01*
X55549979Y-83451217D01*
X72752700Y-83451217D01*
X72752700Y-83698783D01*
X72847439Y-83927505D01*
X73022495Y-84102561D01*
X73251217Y-84197300D01*
X73498783Y-84197300D01*
X73727505Y-84102561D01*
X73902561Y-83927505D01*
X73903764Y-83924600D01*
X73927241Y-83924600D01*
X73947812Y-84028016D01*
X74009564Y-84120436D01*
X74101984Y-84182188D01*
X74211000Y-84203873D01*
X75511000Y-84203873D01*
X75620016Y-84182188D01*
X75712436Y-84120436D01*
X75774188Y-84028016D01*
X75795873Y-83919000D01*
X75795873Y-83219000D01*
X75774188Y-83109984D01*
X75712436Y-83017564D01*
X75620016Y-82955812D01*
X75511000Y-82934127D01*
X74211000Y-82934127D01*
X74101984Y-82955812D01*
X74009564Y-83017564D01*
X73947812Y-83109984D01*
X73927241Y-83213400D01*
X73893466Y-83213400D01*
X73727505Y-83047439D01*
X73498783Y-82952700D01*
X73251217Y-82952700D01*
X73022495Y-83047439D01*
X72847439Y-83222495D01*
X72752700Y-83451217D01*
X55549979Y-83451217D01*
X60925032Y-78076164D01*
X67495600Y-78076164D01*
X67495600Y-78823836D01*
X67781721Y-79514595D01*
X68310405Y-80043279D01*
X69001164Y-80329400D01*
X69748836Y-80329400D01*
X70439595Y-80043279D01*
X70968279Y-79514595D01*
X71254400Y-78823836D01*
X71254400Y-78076164D01*
X70968279Y-77385405D01*
X70439595Y-76856721D01*
X69748836Y-76570600D01*
X69001164Y-76570600D01*
X68310405Y-76856721D01*
X67781721Y-77385405D01*
X67495600Y-78076164D01*
X60925032Y-78076164D01*
X63646797Y-75354400D01*
X75353204Y-75354400D01*
X83645600Y-83646797D01*
X83645600Y-83646797D01*
G37*
X83645600Y-83646797D02*
X83645601Y-95353202D01*
X75353204Y-103645600D01*
X63646797Y-103645600D01*
X61846165Y-101844968D01*
X66720600Y-101844968D01*
X66720600Y-102155032D01*
X66839257Y-102441494D01*
X67058506Y-102660743D01*
X67344968Y-102779400D01*
X67655032Y-102779400D01*
X67941494Y-102660743D01*
X68160743Y-102441494D01*
X68279400Y-102155032D01*
X68279400Y-101844968D01*
X69720600Y-101844968D01*
X69720600Y-102155032D01*
X69839257Y-102441494D01*
X70058506Y-102660743D01*
X70344968Y-102779400D01*
X70655032Y-102779400D01*
X70941494Y-102660743D01*
X71160743Y-102441494D01*
X71279400Y-102155032D01*
X71279400Y-101844968D01*
X71160743Y-101558506D01*
X70941494Y-101339257D01*
X70655032Y-101220600D01*
X70344968Y-101220600D01*
X70058506Y-101339257D01*
X69839257Y-101558506D01*
X69720600Y-101844968D01*
X68279400Y-101844968D01*
X68160743Y-101558506D01*
X67941494Y-101339257D01*
X67655032Y-101220600D01*
X67344968Y-101220600D01*
X67058506Y-101339257D01*
X66839257Y-101558506D01*
X66720600Y-101844968D01*
X61846165Y-101844968D01*
X55354400Y-95353204D01*
X55354400Y-93691750D01*
X57135000Y-93691750D01*
X57135000Y-93882309D01*
X57231673Y-94115698D01*
X57410301Y-94294327D01*
X57643690Y-94391000D01*
X58134250Y-94391000D01*
X58293000Y-94232250D01*
X58293000Y-93533000D01*
X58547000Y-93533000D01*
X58547000Y-94232250D01*
X58705750Y-94391000D01*
X59196310Y-94391000D01*
X59429699Y-94294327D01*
X59608327Y-94115698D01*
X59651383Y-94011750D01*
X69239000Y-94011750D01*
X69239000Y-94477310D01*
X69335673Y-94710699D01*
X69514302Y-94889327D01*
X69747691Y-94986000D01*
X70088250Y-94986000D01*
X70247000Y-94827250D01*
X70247000Y-93853000D01*
X70501000Y-93853000D01*
X70501000Y-94827250D01*
X70659750Y-94986000D01*
X71000309Y-94986000D01*
X71233698Y-94889327D01*
X71412327Y-94710699D01*
X71509000Y-94477310D01*
X71509000Y-94011750D01*
X71350250Y-93853000D01*
X70501000Y-93853000D01*
X70247000Y-93853000D01*
X69397750Y-93853000D01*
X69239000Y-94011750D01*
X59651383Y-94011750D01*
X59705000Y-93882309D01*
X59705000Y-93691750D01*
X59546250Y-93533000D01*
X58547000Y-93533000D01*
X58293000Y-93533000D01*
X57293750Y-93533000D01*
X57135000Y-93691750D01*
X55354400Y-93691750D01*
X55354400Y-92929691D01*
X57135000Y-92929691D01*
X57135000Y-93120250D01*
X57293750Y-93279000D01*
X58293000Y-93279000D01*
X58293000Y-92579750D01*
X58547000Y-92579750D01*
X58547000Y-93279000D01*
X59546250Y-93279000D01*
X59705000Y-93120250D01*
X59705000Y-92929691D01*
X59608327Y-92696302D01*
X59429699Y-92517673D01*
X59196310Y-92421000D01*
X58705750Y-92421000D01*
X58547000Y-92579750D01*
X58293000Y-92579750D01*
X58134250Y-92421000D01*
X57643690Y-92421000D01*
X57410301Y-92517673D01*
X57231673Y-92696302D01*
X57135000Y-92929691D01*
X55354400Y-92929691D01*
X55354400Y-91156000D01*
X57485127Y-91156000D01*
X57485127Y-91856000D01*
X57506812Y-91965016D01*
X57568564Y-92057436D01*
X57660984Y-92119188D01*
X57770000Y-92140873D01*
X59070000Y-92140873D01*
X59179016Y-92119188D01*
X59271436Y-92057436D01*
X59333188Y-91965016D01*
X59354873Y-91856000D01*
X59354873Y-91156000D01*
X59333188Y-91046984D01*
X59271436Y-90954564D01*
X59179016Y-90892812D01*
X59070000Y-90871127D01*
X58775600Y-90871127D01*
X58775600Y-90249873D01*
X59020000Y-90249873D01*
X59129016Y-90228188D01*
X59221436Y-90166436D01*
X59283188Y-90074016D01*
X59304873Y-89965000D01*
X59304873Y-88765000D01*
X59283188Y-88655984D01*
X59221436Y-88563564D01*
X59129016Y-88501812D01*
X59020000Y-88480127D01*
X57820000Y-88480127D01*
X57710984Y-88501812D01*
X57618564Y-88563564D01*
X57556812Y-88655984D01*
X57535127Y-88765000D01*
X57535127Y-89965000D01*
X57556812Y-90074016D01*
X57618564Y-90166436D01*
X57710984Y-90228188D01*
X57820000Y-90249873D01*
X58064400Y-90249873D01*
X58064401Y-90871127D01*
X57770000Y-90871127D01*
X57660984Y-90892812D01*
X57568564Y-90954564D01*
X57506812Y-91046984D01*
X57485127Y-91156000D01*
X55354400Y-91156000D01*
X55354400Y-86565000D01*
X57535127Y-86565000D01*
X57535127Y-87765000D01*
X57556812Y-87874016D01*
X57618564Y-87966436D01*
X57710984Y-88028188D01*
X57820000Y-88049873D01*
X59020000Y-88049873D01*
X59129016Y-88028188D01*
X59221436Y-87966436D01*
X59283188Y-87874016D01*
X59299005Y-87794499D01*
X62756189Y-91251683D01*
X62776027Y-91281373D01*
X62893652Y-91359967D01*
X62997380Y-91380600D01*
X62997384Y-91380600D01*
X63032399Y-91387565D01*
X63067414Y-91380600D01*
X65078580Y-91380600D01*
X65113600Y-91387566D01*
X65148620Y-91380600D01*
X65252348Y-91359967D01*
X65369973Y-91281373D01*
X65389811Y-91251683D01*
X65501494Y-91140000D01*
X65836127Y-91140000D01*
X65836127Y-91740000D01*
X65857812Y-91849016D01*
X65919564Y-91941436D01*
X66011984Y-92003188D01*
X66121000Y-92024873D01*
X66540400Y-92024873D01*
X66540401Y-92218533D01*
X66401439Y-92357495D01*
X66306700Y-92586217D01*
X66306700Y-92833783D01*
X66401439Y-93062505D01*
X66576495Y-93237561D01*
X66805217Y-93332300D01*
X67052783Y-93332300D01*
X67281505Y-93237561D01*
X67456561Y-93062505D01*
X67492934Y-92974690D01*
X69239000Y-92974690D01*
X69239000Y-93440250D01*
X69397750Y-93599000D01*
X70247000Y-93599000D01*
X70247000Y-92624750D01*
X70501000Y-92624750D01*
X70501000Y-93599000D01*
X71350250Y-93599000D01*
X71509000Y-93440250D01*
X71509000Y-92974690D01*
X71412327Y-92741301D01*
X71233698Y-92562673D01*
X71000309Y-92466000D01*
X70659750Y-92466000D01*
X70501000Y-92624750D01*
X70247000Y-92624750D01*
X70088250Y-92466000D01*
X69747691Y-92466000D01*
X69514302Y-92562673D01*
X69335673Y-92741301D01*
X69239000Y-92974690D01*
X67492934Y-92974690D01*
X67551300Y-92833783D01*
X67551300Y-92586217D01*
X67456561Y-92357495D01*
X67281505Y-92182439D01*
X67251600Y-92170052D01*
X67251600Y-92024873D01*
X67671000Y-92024873D01*
X67780016Y-92003188D01*
X67872436Y-91941436D01*
X67934188Y-91849016D01*
X67955873Y-91740000D01*
X67955873Y-91140000D01*
X67934188Y-91030984D01*
X67872436Y-90938564D01*
X67780016Y-90876812D01*
X67671000Y-90855127D01*
X66121000Y-90855127D01*
X66011984Y-90876812D01*
X65919564Y-90938564D01*
X65857812Y-91030984D01*
X65836127Y-91140000D01*
X65501494Y-91140000D01*
X65949834Y-90691661D01*
X66011984Y-90733188D01*
X66121000Y-90754873D01*
X67671000Y-90754873D01*
X67780016Y-90733188D01*
X67872436Y-90671436D01*
X67898487Y-90632448D01*
X68422535Y-91156497D01*
X68442371Y-91186184D01*
X68472058Y-91206020D01*
X68472059Y-91206021D01*
X68559996Y-91264778D01*
X68698743Y-91292377D01*
X68733763Y-91285411D01*
X71004836Y-91285411D01*
X71039856Y-91292377D01*
X71074876Y-91285411D01*
X71167438Y-91266999D01*
X71236127Y-91266999D01*
X71236127Y-91740000D01*
X71257812Y-91849016D01*
X71319564Y-91941436D01*
X71411984Y-92003188D01*
X71521000Y-92024873D01*
X71940400Y-92024873D01*
X71940401Y-92816127D01*
X71874000Y-92816127D01*
X71764984Y-92837812D01*
X71672564Y-92899564D01*
X71610812Y-92991984D01*
X71589127Y-93101000D01*
X71589127Y-94351000D01*
X71610812Y-94460016D01*
X71672564Y-94552436D01*
X71764984Y-94614188D01*
X71874000Y-94635873D01*
X72874000Y-94635873D01*
X72983016Y-94614188D01*
X73075436Y-94552436D01*
X73137188Y-94460016D01*
X73158873Y-94351000D01*
X73158873Y-93101000D01*
X73137188Y-92991984D01*
X73075436Y-92899564D01*
X72983016Y-92837812D01*
X72874000Y-92816127D01*
X72651600Y-92816127D01*
X72651600Y-92024873D01*
X73071000Y-92024873D01*
X73180016Y-92003188D01*
X73272436Y-91941436D01*
X73334188Y-91849016D01*
X73355873Y-91740000D01*
X73355873Y-91266999D01*
X76941706Y-91266999D01*
X79376390Y-93701683D01*
X79396228Y-93731373D01*
X79513853Y-93809967D01*
X79520128Y-93811215D01*
X79520128Y-93825000D01*
X79541813Y-93934016D01*
X79603565Y-94026436D01*
X79695985Y-94088188D01*
X79805001Y-94109873D01*
X81105001Y-94109873D01*
X81214017Y-94088188D01*
X81306437Y-94026436D01*
X81368189Y-93934016D01*
X81389874Y-93825000D01*
X81389874Y-93125000D01*
X81368189Y-93015984D01*
X81306437Y-92923564D01*
X81214017Y-92861812D01*
X81105001Y-92840127D01*
X79805001Y-92840127D01*
X79695985Y-92861812D01*
X79603861Y-92923366D01*
X77905495Y-91225000D01*
X79520128Y-91225000D01*
X79520128Y-91925000D01*
X79541813Y-92034016D01*
X79603565Y-92126436D01*
X79695985Y-92188188D01*
X79805001Y-92209873D01*
X81105001Y-92209873D01*
X81214017Y-92188188D01*
X81306437Y-92126436D01*
X81368189Y-92034016D01*
X81389874Y-91925000D01*
X81389874Y-91225000D01*
X81368189Y-91115984D01*
X81306437Y-91023564D01*
X81214017Y-90961812D01*
X81105001Y-90940127D01*
X80810601Y-90940127D01*
X80810600Y-90191873D01*
X81055000Y-90191873D01*
X81164016Y-90170188D01*
X81256436Y-90108436D01*
X81318188Y-90016016D01*
X81339873Y-89907000D01*
X81339873Y-88707000D01*
X81318188Y-88597984D01*
X81256436Y-88505564D01*
X81164016Y-88443812D01*
X81055000Y-88422127D01*
X79855000Y-88422127D01*
X79745984Y-88443812D01*
X79653564Y-88505564D01*
X79591812Y-88597984D01*
X79570127Y-88707000D01*
X79570127Y-89907000D01*
X79591812Y-90016016D01*
X79653564Y-90108436D01*
X79745984Y-90170188D01*
X79855000Y-90191873D01*
X80099401Y-90191873D01*
X80099402Y-90940127D01*
X79805001Y-90940127D01*
X79695985Y-90961812D01*
X79603565Y-91023564D01*
X79541813Y-91115984D01*
X79520128Y-91225000D01*
X77905495Y-91225000D01*
X77365211Y-90684716D01*
X77345373Y-90655026D01*
X77227748Y-90576432D01*
X77124020Y-90555799D01*
X77089000Y-90548833D01*
X77053980Y-90555799D01*
X73338806Y-90555799D01*
X73344813Y-90525600D01*
X74056380Y-90525600D01*
X74091400Y-90532566D01*
X74126420Y-90525600D01*
X74230148Y-90504967D01*
X74347773Y-90426373D01*
X74367611Y-90396683D01*
X75087688Y-89676607D01*
X75117372Y-89656773D01*
X75137207Y-89627088D01*
X75137210Y-89627085D01*
X75195967Y-89539148D01*
X75197215Y-89532873D01*
X75511000Y-89532873D01*
X75620016Y-89511188D01*
X75712436Y-89449436D01*
X75774188Y-89357016D01*
X75795873Y-89248000D01*
X75795873Y-88548000D01*
X75774188Y-88438984D01*
X75712436Y-88346564D01*
X75620016Y-88284812D01*
X75511000Y-88263127D01*
X74211000Y-88263127D01*
X74101984Y-88284812D01*
X74009564Y-88346564D01*
X73947812Y-88438984D01*
X73926127Y-88548000D01*
X73926127Y-89248000D01*
X73947812Y-89357016D01*
X74009564Y-89449436D01*
X74101984Y-89511188D01*
X74211000Y-89532873D01*
X74225632Y-89532873D01*
X73944106Y-89814400D01*
X73344813Y-89814400D01*
X73334188Y-89760984D01*
X73272436Y-89668564D01*
X73180016Y-89606812D01*
X73071000Y-89585127D01*
X71521000Y-89585127D01*
X71411984Y-89606812D01*
X71319564Y-89668564D01*
X71257812Y-89760984D01*
X71243628Y-89832293D01*
X71229852Y-89835033D01*
X71112227Y-89913627D01*
X71092390Y-89943316D01*
X70766306Y-90269400D01*
X68972294Y-90269400D01*
X67947083Y-89244189D01*
X67955873Y-89200000D01*
X67955873Y-88600000D01*
X67937371Y-88506984D01*
X68030698Y-88468327D01*
X68209327Y-88289699D01*
X68306000Y-88056310D01*
X68306000Y-87915750D01*
X68147250Y-87757000D01*
X67023000Y-87757000D01*
X67023000Y-87777000D01*
X66769000Y-87777000D01*
X66769000Y-87757000D01*
X65644750Y-87757000D01*
X65486000Y-87915750D01*
X65486000Y-88056310D01*
X65582673Y-88289699D01*
X65761302Y-88468327D01*
X65854629Y-88506984D01*
X65836127Y-88600000D01*
X65836127Y-89019400D01*
X64763867Y-89019400D01*
X64763188Y-89015984D01*
X64701436Y-88923564D01*
X64609016Y-88861812D01*
X64500000Y-88840127D01*
X63250000Y-88840127D01*
X63140984Y-88861812D01*
X63048564Y-88923564D01*
X62986812Y-89015984D01*
X62965127Y-89125000D01*
X62965127Y-90125000D01*
X62986812Y-90234016D01*
X63048564Y-90326436D01*
X63140984Y-90388188D01*
X63250000Y-90409873D01*
X64500000Y-90409873D01*
X64609016Y-90388188D01*
X64701436Y-90326436D01*
X64763188Y-90234016D01*
X64784873Y-90125000D01*
X64784873Y-89730600D01*
X65878114Y-89730600D01*
X65857812Y-89760984D01*
X65843628Y-89832293D01*
X65829852Y-89835033D01*
X65712227Y-89913627D01*
X65692391Y-89943314D01*
X64966306Y-90669400D01*
X63179694Y-90669400D01*
X60421044Y-87910750D01*
X62615000Y-87910750D01*
X62615000Y-88251309D01*
X62711673Y-88484698D01*
X62890301Y-88663327D01*
X63123690Y-88760000D01*
X63589250Y-88760000D01*
X63748000Y-88601250D01*
X63748000Y-87752000D01*
X64002000Y-87752000D01*
X64002000Y-88601250D01*
X64160750Y-88760000D01*
X64626310Y-88760000D01*
X64859699Y-88663327D01*
X65038327Y-88484698D01*
X65135000Y-88251309D01*
X65135000Y-87910750D01*
X64976250Y-87752000D01*
X64002000Y-87752000D01*
X63748000Y-87752000D01*
X62773750Y-87752000D01*
X62615000Y-87910750D01*
X60421044Y-87910750D01*
X59508985Y-86998691D01*
X62615000Y-86998691D01*
X62615000Y-87339250D01*
X62773750Y-87498000D01*
X63748000Y-87498000D01*
X63748000Y-86648750D01*
X64002000Y-86648750D01*
X64002000Y-87498000D01*
X64976250Y-87498000D01*
X65135000Y-87339250D01*
X65135000Y-87203690D01*
X65486000Y-87203690D01*
X65486000Y-87344250D01*
X65644750Y-87503000D01*
X66769000Y-87503000D01*
X66769000Y-86853750D01*
X67023000Y-86853750D01*
X67023000Y-87503000D01*
X68147250Y-87503000D01*
X68306000Y-87344250D01*
X68306000Y-87203690D01*
X68209327Y-86970301D01*
X68097025Y-86858000D01*
X68183250Y-86858000D01*
X68342000Y-86699250D01*
X68342000Y-85725000D01*
X68596000Y-85725000D01*
X68596000Y-86699250D01*
X68754750Y-86858000D01*
X69095309Y-86858000D01*
X69328698Y-86761327D01*
X69507327Y-86582699D01*
X69604000Y-86349310D01*
X69604000Y-85883750D01*
X69445250Y-85725000D01*
X68596000Y-85725000D01*
X68342000Y-85725000D01*
X67492750Y-85725000D01*
X67334000Y-85883750D01*
X67334000Y-86349310D01*
X67430673Y-86582699D01*
X67542975Y-86695000D01*
X67181750Y-86695000D01*
X67023000Y-86853750D01*
X66769000Y-86853750D01*
X66610250Y-86695000D01*
X65994691Y-86695000D01*
X65761302Y-86791673D01*
X65582673Y-86970301D01*
X65486000Y-87203690D01*
X65135000Y-87203690D01*
X65135000Y-86998691D01*
X65038327Y-86765302D01*
X64859699Y-86586673D01*
X64626310Y-86490000D01*
X64160750Y-86490000D01*
X64002000Y-86648750D01*
X63748000Y-86648750D01*
X63589250Y-86490000D01*
X63123690Y-86490000D01*
X62890301Y-86586673D01*
X62711673Y-86765302D01*
X62615000Y-86998691D01*
X59508985Y-86998691D01*
X59448611Y-86938317D01*
X59428773Y-86908627D01*
X59311148Y-86830033D01*
X59304873Y-86828785D01*
X59304873Y-86565000D01*
X59283188Y-86455984D01*
X59221436Y-86363564D01*
X59129016Y-86301812D01*
X59020000Y-86280127D01*
X57820000Y-86280127D01*
X57710984Y-86301812D01*
X57618564Y-86363564D01*
X57556812Y-86455984D01*
X57535127Y-86565000D01*
X55354400Y-86565000D01*
X55354400Y-84846690D01*
X67334000Y-84846690D01*
X67334000Y-85312250D01*
X67492750Y-85471000D01*
X68342000Y-85471000D01*
X68342000Y-84496750D01*
X68596000Y-84496750D01*
X68596000Y-85471000D01*
X69445250Y-85471000D01*
X69604000Y-85312250D01*
X69604000Y-84973000D01*
X69684127Y-84973000D01*
X69684127Y-86223000D01*
X69705812Y-86332016D01*
X69767564Y-86424436D01*
X69859984Y-86486188D01*
X69969000Y-86507873D01*
X70969000Y-86507873D01*
X71078016Y-86486188D01*
X71170436Y-86424436D01*
X71232188Y-86332016D01*
X71252153Y-86231647D01*
X71940400Y-86919894D01*
X71940400Y-87045127D01*
X71521000Y-87045127D01*
X71411984Y-87066812D01*
X71319564Y-87128564D01*
X71257812Y-87220984D01*
X71236127Y-87330000D01*
X71236127Y-87930000D01*
X71257812Y-88039016D01*
X71319564Y-88131436D01*
X71411984Y-88193188D01*
X71521000Y-88214873D01*
X72841233Y-88214873D01*
X72740979Y-88315127D01*
X71521000Y-88315127D01*
X71411984Y-88336812D01*
X71319564Y-88398564D01*
X71257812Y-88490984D01*
X71236127Y-88600000D01*
X71236127Y-89200000D01*
X71257812Y-89309016D01*
X71319564Y-89401436D01*
X71411984Y-89463188D01*
X71521000Y-89484873D01*
X73071000Y-89484873D01*
X73180016Y-89463188D01*
X73272436Y-89401436D01*
X73334188Y-89309016D01*
X73355873Y-89200000D01*
X73355873Y-88706021D01*
X74429021Y-87632873D01*
X75511000Y-87632873D01*
X75620016Y-87611188D01*
X75712436Y-87549436D01*
X75774188Y-87457016D01*
X75795873Y-87348000D01*
X75795873Y-86648000D01*
X75774188Y-86538984D01*
X75752818Y-86507000D01*
X79570127Y-86507000D01*
X79570127Y-87707000D01*
X79591812Y-87816016D01*
X79653564Y-87908436D01*
X79745984Y-87970188D01*
X79855000Y-87991873D01*
X81055000Y-87991873D01*
X81164016Y-87970188D01*
X81256436Y-87908436D01*
X81318188Y-87816016D01*
X81339873Y-87707000D01*
X81339873Y-87443215D01*
X81346148Y-87441967D01*
X81463773Y-87363373D01*
X81483611Y-87333683D01*
X81719994Y-87097300D01*
X81923783Y-87097300D01*
X82152505Y-87002561D01*
X82327561Y-86827505D01*
X82422300Y-86598783D01*
X82422300Y-86351217D01*
X82327561Y-86122495D01*
X82152505Y-85947439D01*
X81923783Y-85852700D01*
X81676217Y-85852700D01*
X81447495Y-85947439D01*
X81272439Y-86122495D01*
X81209578Y-86274255D01*
X81164016Y-86243812D01*
X81055000Y-86222127D01*
X79855000Y-86222127D01*
X79745984Y-86243812D01*
X79653564Y-86305564D01*
X79591812Y-86397984D01*
X79570127Y-86507000D01*
X75752818Y-86507000D01*
X75712436Y-86446564D01*
X75620016Y-86384812D01*
X75511000Y-86363127D01*
X75216600Y-86363127D01*
X75216600Y-86103873D01*
X75511000Y-86103873D01*
X75620016Y-86082188D01*
X75712436Y-86020436D01*
X75774188Y-85928016D01*
X75795873Y-85819000D01*
X75795873Y-85119000D01*
X75774188Y-85009984D01*
X75712436Y-84917564D01*
X75620016Y-84855812D01*
X75511000Y-84834127D01*
X74211000Y-84834127D01*
X74101984Y-84855812D01*
X74009564Y-84917564D01*
X73947812Y-85009984D01*
X73926127Y-85119000D01*
X73926127Y-85819000D01*
X73947812Y-85928016D01*
X74009564Y-86020436D01*
X74101984Y-86082188D01*
X74211000Y-86103873D01*
X74505400Y-86103873D01*
X74505400Y-86363127D01*
X74211000Y-86363127D01*
X74101984Y-86384812D01*
X74009564Y-86446564D01*
X73947812Y-86538984D01*
X73926127Y-86648000D01*
X73926127Y-87129979D01*
X73355873Y-87700233D01*
X73355873Y-87330000D01*
X73334188Y-87220984D01*
X73272436Y-87128564D01*
X73180016Y-87066812D01*
X73071000Y-87045127D01*
X72651600Y-87045127D01*
X72651600Y-86807614D01*
X72658565Y-86772599D01*
X72651600Y-86737584D01*
X72651600Y-86737580D01*
X72630967Y-86633852D01*
X72552372Y-86516227D01*
X72522685Y-86496391D01*
X72175426Y-86149132D01*
X72227505Y-86127561D01*
X72402561Y-85952505D01*
X72497300Y-85723783D01*
X72497300Y-85476217D01*
X72402561Y-85247495D01*
X72227505Y-85072439D01*
X71998783Y-84977700D01*
X71751217Y-84977700D01*
X71522495Y-85072439D01*
X71352534Y-85242400D01*
X71253873Y-85242400D01*
X71253873Y-84973000D01*
X71232188Y-84863984D01*
X71170436Y-84771564D01*
X71078016Y-84709812D01*
X70969000Y-84688127D01*
X69969000Y-84688127D01*
X69859984Y-84709812D01*
X69767564Y-84771564D01*
X69705812Y-84863984D01*
X69684127Y-84973000D01*
X69604000Y-84973000D01*
X69604000Y-84846690D01*
X69507327Y-84613301D01*
X69328698Y-84434673D01*
X69095309Y-84338000D01*
X68754750Y-84338000D01*
X68596000Y-84496750D01*
X68342000Y-84496750D01*
X68183250Y-84338000D01*
X67842691Y-84338000D01*
X67609302Y-84434673D01*
X67430673Y-84613301D01*
X67334000Y-84846690D01*
X55354400Y-84846690D01*
X55354400Y-83646796D01*
X55549979Y-83451217D01*
X72752700Y-83451217D01*
X72752700Y-83698783D01*
X72847439Y-83927505D01*
X73022495Y-84102561D01*
X73251217Y-84197300D01*
X73498783Y-84197300D01*
X73727505Y-84102561D01*
X73902561Y-83927505D01*
X73903764Y-83924600D01*
X73927241Y-83924600D01*
X73947812Y-84028016D01*
X74009564Y-84120436D01*
X74101984Y-84182188D01*
X74211000Y-84203873D01*
X75511000Y-84203873D01*
X75620016Y-84182188D01*
X75712436Y-84120436D01*
X75774188Y-84028016D01*
X75795873Y-83919000D01*
X75795873Y-83219000D01*
X75774188Y-83109984D01*
X75712436Y-83017564D01*
X75620016Y-82955812D01*
X75511000Y-82934127D01*
X74211000Y-82934127D01*
X74101984Y-82955812D01*
X74009564Y-83017564D01*
X73947812Y-83109984D01*
X73927241Y-83213400D01*
X73893466Y-83213400D01*
X73727505Y-83047439D01*
X73498783Y-82952700D01*
X73251217Y-82952700D01*
X73022495Y-83047439D01*
X72847439Y-83222495D01*
X72752700Y-83451217D01*
X55549979Y-83451217D01*
X60925032Y-78076164D01*
X67495600Y-78076164D01*
X67495600Y-78823836D01*
X67781721Y-79514595D01*
X68310405Y-80043279D01*
X69001164Y-80329400D01*
X69748836Y-80329400D01*
X70439595Y-80043279D01*
X70968279Y-79514595D01*
X71254400Y-78823836D01*
X71254400Y-78076164D01*
X70968279Y-77385405D01*
X70439595Y-76856721D01*
X69748836Y-76570600D01*
X69001164Y-76570600D01*
X68310405Y-76856721D01*
X67781721Y-77385405D01*
X67495600Y-78076164D01*
X60925032Y-78076164D01*
X63646797Y-75354400D01*
X75353204Y-75354400D01*
X83645600Y-83646797D01*
G04 #@! TD*
M02*
