G04 #@! TF.GenerationSoftware,KiCad,Pcbnew,(5.0.0)*
G04 #@! TF.CreationDate,2018-08-09T23:53:02+02:00*
G04 #@! TF.ProjectId,Initial,496E697469616C2E6B696361645F7063,rev?*
G04 #@! TF.SameCoordinates,Original*
G04 #@! TF.FileFunction,Copper,L2,Bot,Signal*
G04 #@! TF.FilePolarity,Positive*
%FSLAX46Y46*%
G04 Gerber Fmt 4.6, Leading zero omitted, Abs format (unit mm)*
G04 Created by KiCad (PCBNEW (5.0.0)) date 08/09/18 23:53:02*
%MOMM*%
%LPD*%
G01*
G04 APERTURE LIST*
G04 #@! TA.AperFunction,SMDPad,CuDef*
%ADD10R,3.500000X3.300000*%
G04 #@! TD*
G04 #@! TA.AperFunction,SMDPad,CuDef*
%ADD11R,4.000000X4.000000*%
G04 #@! TD*
G04 #@! TA.AperFunction,ComponentPad*
%ADD12C,1.800000*%
G04 #@! TD*
G04 #@! TA.AperFunction,ComponentPad*
%ADD13R,1.800000X1.800000*%
G04 #@! TD*
G04 #@! TA.AperFunction,ComponentPad*
%ADD14O,1.600000X1.600000*%
G04 #@! TD*
G04 #@! TA.AperFunction,ComponentPad*
%ADD15C,1.600000*%
G04 #@! TD*
G04 #@! TA.AperFunction,ViaPad*
%ADD16C,0.685800*%
G04 #@! TD*
G04 #@! TA.AperFunction,Conductor*
%ADD17C,0.609600*%
G04 #@! TD*
G04 #@! TA.AperFunction,Conductor*
%ADD18C,0.254000*%
G04 #@! TD*
G04 APERTURE END LIST*
D10*
G04 #@! TO.P,BT1,1*
G04 #@! TO.N,Net-(BT1-Pad1)*
X123989500Y-42545000D03*
X139789500Y-42545000D03*
D11*
G04 #@! TO.P,BT1,2*
G04 #@! TO.N,Net-(BT1-Pad2)*
X131889500Y-42545000D03*
G04 #@! TD*
D12*
G04 #@! TO.P,D1,2*
G04 #@! TO.N,Net-(D1-Pad2)*
X118681500Y-43497500D03*
D13*
G04 #@! TO.P,D1,1*
G04 #@! TO.N,Net-(BT1-Pad2)*
X118681500Y-40957500D03*
G04 #@! TD*
D14*
G04 #@! TO.P,R1,2*
G04 #@! TO.N,Net-(D1-Pad2)*
X121983500Y-46482000D03*
D15*
G04 #@! TO.P,R1,1*
G04 #@! TO.N,Net-(R1-Pad1)*
X121983500Y-38862000D03*
G04 #@! TD*
D16*
G04 #@! TO.N,Net-(BT1-Pad1)*
X138176000Y-39116000D03*
X125984000Y-39116000D03*
G04 #@! TD*
D17*
G04 #@! TO.N,Net-(BT1-Pad2)*
X131889500Y-39935400D02*
X128784100Y-36830000D01*
X131889500Y-42545000D02*
X131889500Y-39935400D01*
X118681500Y-39447900D02*
X118681500Y-40957500D01*
X121299400Y-36830000D02*
X118681500Y-39447900D01*
X128784100Y-36830000D02*
X121299400Y-36830000D01*
G04 #@! TD*
D18*
G04 #@! TO.N,Net-(BT1-Pad1)*
G36*
X144045001Y-51335000D02*
X117067000Y-51335000D01*
X117067000Y-46482000D01*
X120520387Y-46482000D01*
X120631760Y-47041909D01*
X120948923Y-47516577D01*
X121423591Y-47833740D01*
X121842167Y-47917000D01*
X122124833Y-47917000D01*
X122543409Y-47833740D01*
X123018077Y-47516577D01*
X123335240Y-47041909D01*
X123446613Y-46482000D01*
X123335240Y-45922091D01*
X123018077Y-45447423D01*
X122543409Y-45130260D01*
X122124833Y-45047000D01*
X121842167Y-45047000D01*
X121423591Y-45130260D01*
X120948923Y-45447423D01*
X120631760Y-45922091D01*
X120520387Y-46482000D01*
X117067000Y-46482000D01*
X117067000Y-40057500D01*
X117134060Y-40057500D01*
X117134060Y-41857500D01*
X117183343Y-42105265D01*
X117323691Y-42315309D01*
X117533735Y-42455657D01*
X117549408Y-42458775D01*
X117380190Y-42627993D01*
X117146500Y-43192170D01*
X117146500Y-43802830D01*
X117380190Y-44367007D01*
X117811993Y-44798810D01*
X118376170Y-45032500D01*
X118986830Y-45032500D01*
X119551007Y-44798810D01*
X119982810Y-44367007D01*
X120216500Y-43802830D01*
X120216500Y-43192170D01*
X120066795Y-42830750D01*
X121604500Y-42830750D01*
X121604500Y-44321310D01*
X121701173Y-44554699D01*
X121879802Y-44733327D01*
X122113191Y-44830000D01*
X123703750Y-44830000D01*
X123862500Y-44671250D01*
X123862500Y-42672000D01*
X124116500Y-42672000D01*
X124116500Y-44671250D01*
X124275250Y-44830000D01*
X125865809Y-44830000D01*
X126099198Y-44733327D01*
X126277827Y-44554699D01*
X126374500Y-44321310D01*
X126374500Y-42830750D01*
X126215750Y-42672000D01*
X124116500Y-42672000D01*
X123862500Y-42672000D01*
X121763250Y-42672000D01*
X121604500Y-42830750D01*
X120066795Y-42830750D01*
X119982810Y-42627993D01*
X119813592Y-42458775D01*
X119829265Y-42455657D01*
X120039309Y-42315309D01*
X120179657Y-42105265D01*
X120228940Y-41857500D01*
X120228940Y-40057500D01*
X120179657Y-39809735D01*
X120039309Y-39599691D01*
X119931094Y-39527383D01*
X120548500Y-38909977D01*
X120548500Y-39147439D01*
X120766966Y-39674862D01*
X121170638Y-40078534D01*
X121698061Y-40297000D01*
X122023865Y-40297000D01*
X121879802Y-40356673D01*
X121701173Y-40535301D01*
X121604500Y-40768690D01*
X121604500Y-42259250D01*
X121763250Y-42418000D01*
X123862500Y-42418000D01*
X123862500Y-40418750D01*
X124116500Y-40418750D01*
X124116500Y-42418000D01*
X126215750Y-42418000D01*
X126374500Y-42259250D01*
X126374500Y-40768690D01*
X126277827Y-40535301D01*
X126099198Y-40356673D01*
X125865809Y-40260000D01*
X124275250Y-40260000D01*
X124116500Y-40418750D01*
X123862500Y-40418750D01*
X123703750Y-40260000D01*
X122358265Y-40260000D01*
X122796362Y-40078534D01*
X123200034Y-39674862D01*
X123418500Y-39147439D01*
X123418500Y-38576561D01*
X123200034Y-38049138D01*
X122920696Y-37769800D01*
X128394823Y-37769800D01*
X130522582Y-39897560D01*
X129889500Y-39897560D01*
X129641735Y-39946843D01*
X129431691Y-40087191D01*
X129291343Y-40297235D01*
X129242060Y-40545000D01*
X129242060Y-44545000D01*
X129291343Y-44792765D01*
X129431691Y-45002809D01*
X129641735Y-45143157D01*
X129889500Y-45192440D01*
X133889500Y-45192440D01*
X134137265Y-45143157D01*
X134347309Y-45002809D01*
X134487657Y-44792765D01*
X134536940Y-44545000D01*
X134536940Y-42830750D01*
X137404500Y-42830750D01*
X137404500Y-44321310D01*
X137501173Y-44554699D01*
X137679802Y-44733327D01*
X137913191Y-44830000D01*
X139503750Y-44830000D01*
X139662500Y-44671250D01*
X139662500Y-42672000D01*
X139916500Y-42672000D01*
X139916500Y-44671250D01*
X140075250Y-44830000D01*
X141665809Y-44830000D01*
X141899198Y-44733327D01*
X142077827Y-44554699D01*
X142174500Y-44321310D01*
X142174500Y-42830750D01*
X142015750Y-42672000D01*
X139916500Y-42672000D01*
X139662500Y-42672000D01*
X137563250Y-42672000D01*
X137404500Y-42830750D01*
X134536940Y-42830750D01*
X134536940Y-40768690D01*
X137404500Y-40768690D01*
X137404500Y-42259250D01*
X137563250Y-42418000D01*
X139662500Y-42418000D01*
X139662500Y-40418750D01*
X139916500Y-40418750D01*
X139916500Y-42418000D01*
X142015750Y-42418000D01*
X142174500Y-42259250D01*
X142174500Y-40768690D01*
X142077827Y-40535301D01*
X141899198Y-40356673D01*
X141665809Y-40260000D01*
X140075250Y-40260000D01*
X139916500Y-40418750D01*
X139662500Y-40418750D01*
X139503750Y-40260000D01*
X137913191Y-40260000D01*
X137679802Y-40356673D01*
X137501173Y-40535301D01*
X137404500Y-40768690D01*
X134536940Y-40768690D01*
X134536940Y-40545000D01*
X134487657Y-40297235D01*
X134347309Y-40087191D01*
X134137265Y-39946843D01*
X133889500Y-39897560D01*
X132840183Y-39897560D01*
X132829300Y-39842846D01*
X132829300Y-39842841D01*
X132774772Y-39568709D01*
X132668766Y-39410060D01*
X132619488Y-39336310D01*
X132619486Y-39336308D01*
X132567057Y-39257843D01*
X132488592Y-39205414D01*
X129514088Y-36230911D01*
X129461657Y-36152443D01*
X129150791Y-35944728D01*
X128876659Y-35890200D01*
X128876654Y-35890200D01*
X128784100Y-35871790D01*
X128691546Y-35890200D01*
X121391954Y-35890200D01*
X121299400Y-35871790D01*
X121206846Y-35890200D01*
X121206841Y-35890200D01*
X120932709Y-35944728D01*
X120932707Y-35944729D01*
X120932708Y-35944729D01*
X120700310Y-36100012D01*
X120700308Y-36100014D01*
X120621843Y-36152443D01*
X120569414Y-36230908D01*
X118082411Y-38717912D01*
X118003943Y-38770343D01*
X117951513Y-38848810D01*
X117951512Y-38848811D01*
X117865733Y-38977189D01*
X117796228Y-39081210D01*
X117741700Y-39355342D01*
X117741700Y-39355346D01*
X117728729Y-39420557D01*
X117533735Y-39459343D01*
X117323691Y-39599691D01*
X117183343Y-39809735D01*
X117134060Y-40057500D01*
X117067000Y-40057500D01*
X117067000Y-35279000D01*
X144045000Y-35279000D01*
X144045001Y-51335000D01*
X144045001Y-51335000D01*
G37*
X144045001Y-51335000D02*
X117067000Y-51335000D01*
X117067000Y-46482000D01*
X120520387Y-46482000D01*
X120631760Y-47041909D01*
X120948923Y-47516577D01*
X121423591Y-47833740D01*
X121842167Y-47917000D01*
X122124833Y-47917000D01*
X122543409Y-47833740D01*
X123018077Y-47516577D01*
X123335240Y-47041909D01*
X123446613Y-46482000D01*
X123335240Y-45922091D01*
X123018077Y-45447423D01*
X122543409Y-45130260D01*
X122124833Y-45047000D01*
X121842167Y-45047000D01*
X121423591Y-45130260D01*
X120948923Y-45447423D01*
X120631760Y-45922091D01*
X120520387Y-46482000D01*
X117067000Y-46482000D01*
X117067000Y-40057500D01*
X117134060Y-40057500D01*
X117134060Y-41857500D01*
X117183343Y-42105265D01*
X117323691Y-42315309D01*
X117533735Y-42455657D01*
X117549408Y-42458775D01*
X117380190Y-42627993D01*
X117146500Y-43192170D01*
X117146500Y-43802830D01*
X117380190Y-44367007D01*
X117811993Y-44798810D01*
X118376170Y-45032500D01*
X118986830Y-45032500D01*
X119551007Y-44798810D01*
X119982810Y-44367007D01*
X120216500Y-43802830D01*
X120216500Y-43192170D01*
X120066795Y-42830750D01*
X121604500Y-42830750D01*
X121604500Y-44321310D01*
X121701173Y-44554699D01*
X121879802Y-44733327D01*
X122113191Y-44830000D01*
X123703750Y-44830000D01*
X123862500Y-44671250D01*
X123862500Y-42672000D01*
X124116500Y-42672000D01*
X124116500Y-44671250D01*
X124275250Y-44830000D01*
X125865809Y-44830000D01*
X126099198Y-44733327D01*
X126277827Y-44554699D01*
X126374500Y-44321310D01*
X126374500Y-42830750D01*
X126215750Y-42672000D01*
X124116500Y-42672000D01*
X123862500Y-42672000D01*
X121763250Y-42672000D01*
X121604500Y-42830750D01*
X120066795Y-42830750D01*
X119982810Y-42627993D01*
X119813592Y-42458775D01*
X119829265Y-42455657D01*
X120039309Y-42315309D01*
X120179657Y-42105265D01*
X120228940Y-41857500D01*
X120228940Y-40057500D01*
X120179657Y-39809735D01*
X120039309Y-39599691D01*
X119931094Y-39527383D01*
X120548500Y-38909977D01*
X120548500Y-39147439D01*
X120766966Y-39674862D01*
X121170638Y-40078534D01*
X121698061Y-40297000D01*
X122023865Y-40297000D01*
X121879802Y-40356673D01*
X121701173Y-40535301D01*
X121604500Y-40768690D01*
X121604500Y-42259250D01*
X121763250Y-42418000D01*
X123862500Y-42418000D01*
X123862500Y-40418750D01*
X124116500Y-40418750D01*
X124116500Y-42418000D01*
X126215750Y-42418000D01*
X126374500Y-42259250D01*
X126374500Y-40768690D01*
X126277827Y-40535301D01*
X126099198Y-40356673D01*
X125865809Y-40260000D01*
X124275250Y-40260000D01*
X124116500Y-40418750D01*
X123862500Y-40418750D01*
X123703750Y-40260000D01*
X122358265Y-40260000D01*
X122796362Y-40078534D01*
X123200034Y-39674862D01*
X123418500Y-39147439D01*
X123418500Y-38576561D01*
X123200034Y-38049138D01*
X122920696Y-37769800D01*
X128394823Y-37769800D01*
X130522582Y-39897560D01*
X129889500Y-39897560D01*
X129641735Y-39946843D01*
X129431691Y-40087191D01*
X129291343Y-40297235D01*
X129242060Y-40545000D01*
X129242060Y-44545000D01*
X129291343Y-44792765D01*
X129431691Y-45002809D01*
X129641735Y-45143157D01*
X129889500Y-45192440D01*
X133889500Y-45192440D01*
X134137265Y-45143157D01*
X134347309Y-45002809D01*
X134487657Y-44792765D01*
X134536940Y-44545000D01*
X134536940Y-42830750D01*
X137404500Y-42830750D01*
X137404500Y-44321310D01*
X137501173Y-44554699D01*
X137679802Y-44733327D01*
X137913191Y-44830000D01*
X139503750Y-44830000D01*
X139662500Y-44671250D01*
X139662500Y-42672000D01*
X139916500Y-42672000D01*
X139916500Y-44671250D01*
X140075250Y-44830000D01*
X141665809Y-44830000D01*
X141899198Y-44733327D01*
X142077827Y-44554699D01*
X142174500Y-44321310D01*
X142174500Y-42830750D01*
X142015750Y-42672000D01*
X139916500Y-42672000D01*
X139662500Y-42672000D01*
X137563250Y-42672000D01*
X137404500Y-42830750D01*
X134536940Y-42830750D01*
X134536940Y-40768690D01*
X137404500Y-40768690D01*
X137404500Y-42259250D01*
X137563250Y-42418000D01*
X139662500Y-42418000D01*
X139662500Y-40418750D01*
X139916500Y-40418750D01*
X139916500Y-42418000D01*
X142015750Y-42418000D01*
X142174500Y-42259250D01*
X142174500Y-40768690D01*
X142077827Y-40535301D01*
X141899198Y-40356673D01*
X141665809Y-40260000D01*
X140075250Y-40260000D01*
X139916500Y-40418750D01*
X139662500Y-40418750D01*
X139503750Y-40260000D01*
X137913191Y-40260000D01*
X137679802Y-40356673D01*
X137501173Y-40535301D01*
X137404500Y-40768690D01*
X134536940Y-40768690D01*
X134536940Y-40545000D01*
X134487657Y-40297235D01*
X134347309Y-40087191D01*
X134137265Y-39946843D01*
X133889500Y-39897560D01*
X132840183Y-39897560D01*
X132829300Y-39842846D01*
X132829300Y-39842841D01*
X132774772Y-39568709D01*
X132668766Y-39410060D01*
X132619488Y-39336310D01*
X132619486Y-39336308D01*
X132567057Y-39257843D01*
X132488592Y-39205414D01*
X129514088Y-36230911D01*
X129461657Y-36152443D01*
X129150791Y-35944728D01*
X128876659Y-35890200D01*
X128876654Y-35890200D01*
X128784100Y-35871790D01*
X128691546Y-35890200D01*
X121391954Y-35890200D01*
X121299400Y-35871790D01*
X121206846Y-35890200D01*
X121206841Y-35890200D01*
X120932709Y-35944728D01*
X120932707Y-35944729D01*
X120932708Y-35944729D01*
X120700310Y-36100012D01*
X120700308Y-36100014D01*
X120621843Y-36152443D01*
X120569414Y-36230908D01*
X118082411Y-38717912D01*
X118003943Y-38770343D01*
X117951513Y-38848810D01*
X117951512Y-38848811D01*
X117865733Y-38977189D01*
X117796228Y-39081210D01*
X117741700Y-39355342D01*
X117741700Y-39355346D01*
X117728729Y-39420557D01*
X117533735Y-39459343D01*
X117323691Y-39599691D01*
X117183343Y-39809735D01*
X117134060Y-40057500D01*
X117067000Y-40057500D01*
X117067000Y-35279000D01*
X144045000Y-35279000D01*
X144045001Y-51335000D01*
G04 #@! TD*
M02*
