G04 #@! TF.GenerationSoftware,KiCad,Pcbnew,(5.0.0)*
G04 #@! TF.CreationDate,2018-08-09T23:53:02+02:00*
G04 #@! TF.ProjectId,Initial,496E697469616C2E6B696361645F7063,rev?*
G04 #@! TF.SameCoordinates,Original*
G04 #@! TF.FileFunction,Legend,Bot*
G04 #@! TF.FilePolarity,Positive*
%FSLAX46Y46*%
G04 Gerber Fmt 4.6, Leading zero omitted, Abs format (unit mm)*
G04 Created by KiCad (PCBNEW (5.0.0)) date 08/09/18 23:53:02*
%MOMM*%
%LPD*%
G01*
G04 APERTURE LIST*
%ADD10C,0.120000*%
%ADD11C,0.150000*%
G04 APERTURE END LIST*
D10*
G04 #@! TO.C,BT1*
X137304115Y-36960840D02*
G75*
G03X136389500Y-37345000I-124615J-984160D01*
G01*
X126474885Y-36960840D02*
G75*
G02X127389500Y-37345000I124615J-984160D01*
G01*
X136380161Y-37356329D02*
G75*
G02X127389500Y-37345000I-4490661J3711329D01*
G01*
X138639500Y-38495000D02*
G75*
G03X137189500Y-36945000I-1500000J50000D01*
G01*
X125139500Y-38495000D02*
G75*
G02X126589500Y-36945000I1500000J50000D01*
G01*
X138639500Y-40545000D02*
X138639500Y-38445000D01*
X125139500Y-40545000D02*
X125139500Y-38445000D01*
X125139500Y-44545000D02*
X125139500Y-45995000D01*
X125139500Y-45995000D02*
X127739500Y-48595000D01*
X127739500Y-48595000D02*
X127739500Y-49395000D01*
X127739500Y-49395000D02*
X136039500Y-49395000D01*
X136039500Y-49395000D02*
X136039500Y-48595000D01*
X136039500Y-48595000D02*
X138639500Y-45995000D01*
X138639500Y-45995000D02*
X138639500Y-44545000D01*
D11*
X132675214Y-50473571D02*
X132532357Y-50521190D01*
X132484738Y-50568809D01*
X132437119Y-50664047D01*
X132437119Y-50806904D01*
X132484738Y-50902142D01*
X132532357Y-50949761D01*
X132627595Y-50997380D01*
X133008547Y-50997380D01*
X133008547Y-49997380D01*
X132675214Y-49997380D01*
X132579976Y-50045000D01*
X132532357Y-50092619D01*
X132484738Y-50187857D01*
X132484738Y-50283095D01*
X132532357Y-50378333D01*
X132579976Y-50425952D01*
X132675214Y-50473571D01*
X133008547Y-50473571D01*
X132151404Y-49997380D02*
X131579976Y-49997380D01*
X131865690Y-50997380D02*
X131865690Y-49997380D01*
X130722833Y-50997380D02*
X131294261Y-50997380D01*
X131008547Y-50997380D02*
X131008547Y-49997380D01*
X131103785Y-50140238D01*
X131199023Y-50235476D01*
X131294261Y-50283095D01*
G04 #@! TD*
M02*
